<svg width="50" height="50" viewBox="0 0 50 50" fill="none" xmlns="http://www.w3.org/2000/svg">
<path d="M44.2623 31.2338V8.19672C44.2623 5.93702 42.4236 4.09836 40.1639 4.09836H38.5246V2.45902C38.5246 1.10303 37.4216 0 36.0656 0C34.7096 0 33.6066 1.10303 33.6066 2.45902V4.09836H29.5082V2.45902C29.5082 1.10303 28.4052 0 27.0492 0C25.6932 0 24.5902 1.10303 24.5902 2.45902V4.09836H19.6721V2.45902C19.6721 1.10303 18.5691 0 17.2131 0C15.8571 0 14.7541 1.10303 14.7541 2.45902V4.09836H10.6557V2.45902C10.6557 1.10303 9.55271 0 8.19672 0C6.84074 0 5.7377 1.10303 5.7377 2.45902V4.09836H4.09836C1.83866 4.09836 0 5.93702 0 8.19672V40.9836C0 43.2433 1.83866 45.082 4.09836 45.082H31.6586C33.3624 48.0171 36.5325 50 40.1639 50C45.5879 50 50 45.5879 50 40.1639C50 36.2038 47.6429 32.7917 44.2623 31.2338ZM35.2459 2.45902C35.2459 2.00675 35.6133 1.63934 36.0656 1.63934C36.5178 1.63934 36.8852 2.00675 36.8852 2.45902V7.37705C36.8852 7.82931 36.5178 8.19672 36.0656 8.19672C35.6133 8.19672 35.2459 7.82931 35.2459 7.37705V2.45902ZM26.2295 2.45902C26.2295 2.00675 26.5969 1.63934 27.0492 1.63934C27.5014 1.63934 27.8689 2.00675 27.8689 2.45902V7.37705C27.8689 7.82931 27.5014 8.19672 27.0492 8.19672C26.5969 8.19672 26.2295 7.82931 26.2295 7.37705V2.45902ZM16.3934 2.45902C16.3934 2.00675 16.7609 1.63934 17.2131 1.63934C17.6654 1.63934 18.0328 2.00675 18.0328 2.45902V7.37705C18.0328 7.82931 17.6654 8.19672 17.2131 8.19672C16.7609 8.19672 16.3934 7.82931 16.3934 7.37705V2.45902ZM7.37705 2.45902C7.37705 2.00675 7.74446 1.63934 8.19672 1.63934C8.64898 1.63934 9.01639 2.00675 9.01639 2.45902V7.37705C9.01639 7.82931 8.64898 8.19672 8.19672 8.19672C7.74446 8.19672 7.37705 7.82931 7.37705 7.37705V2.45902ZM4.09836 5.7377H5.7377V7.37705C5.7377 8.73303 6.84074 9.83607 8.19672 9.83607C9.55271 9.83607 10.6557 8.73303 10.6557 7.37705V5.7377H14.7541V7.37705C14.7541 8.73303 15.8571 9.83607 17.2131 9.83607C18.5691 9.83607 19.6721 8.73303 19.6721 7.37705V5.7377H24.5902V7.37705C24.5902 8.73303 25.6932 9.83607 27.0492 9.83607C28.4052 9.83607 29.5082 8.73303 29.5082 7.37705V5.7377H33.6066V7.37705C33.6066 8.73303 34.7096 9.83607 36.0656 9.83607C37.4216 9.83607 38.5246 8.73303 38.5246 7.37705V5.7377H40.1639C41.5199 5.7377 42.623 6.84074 42.623 8.19672V12.2951H1.63934V8.19672C1.63934 6.84074 2.74238 5.7377 4.09836 5.7377ZM4.09836 43.4426C2.74238 43.4426 1.63934 42.3396 1.63934 40.9836V13.9344H42.623V30.6515C41.8354 30.4477 41.0144 30.3279 40.1639 30.3279C39.6043 30.3279 39.059 30.3857 38.5246 30.4759V26.2295C38.5246 25.7765 38.158 25.4098 37.7049 25.4098H32.7869C32.3338 25.4098 31.9672 25.7765 31.9672 26.2295V31.1475C31.9672 31.6006 32.3338 31.9672 32.7869 31.9672H34.7384C32.0834 33.7304 30.3279 36.7446 30.3279 40.1639C30.3279 41.3148 30.5368 42.4153 30.9016 43.4426H4.09836ZM36.8852 30.3279H33.6066V27.0492H36.8852V30.3279ZM40.1639 48.3607C35.6445 48.3607 31.9672 44.6833 31.9672 40.1639C31.9672 35.6445 35.6445 31.9672 40.1639 31.9672C44.6833 31.9672 48.3607 35.6445 48.3607 40.1639C48.3607 44.6833 44.6833 48.3607 40.1639 48.3607Z" fill="#AB0520"/>
<path d="M40.9837 38.9943V33.6364H39.3145V38.9943C38.8177 39.29 38.4799 39.8342 38.4799 40.4645C38.4799 40.551 38.4927 40.6339 38.5048 40.7168L35.4546 43.2118L36.4978 44.5455L39.5454 42.052C39.7331 42.1268 39.9355 42.1716 40.1491 42.1716C41.0709 42.1716 41.8182 41.4073 41.8182 40.4645C41.8182 39.8343 41.4805 39.29 40.9837 38.9943Z" fill="#AB0520"/>
<path d="M11.0228 16.3636H6.25004C5.81037 16.3636 5.45459 16.7194 5.45459 17.1591V21.9318C5.45459 22.3715 5.81037 22.7273 6.25004 22.7273H11.0228C11.4624 22.7273 11.8182 22.3715 11.8182 21.9318V17.1591C11.8182 16.7194 11.4624 16.3636 11.0228 16.3636ZM10.2273 21.1364H7.0455V17.9545H10.2273V21.1364Z" fill="#AB0520"/>
<path d="M20.1136 16.3636H15.3409C14.9012 16.3636 14.5454 16.7194 14.5454 17.1591V21.9318C14.5454 22.3715 14.9012 22.7273 15.3409 22.7273H20.1136C20.5533 22.7273 20.909 22.3715 20.909 21.9318V17.1591C20.909 16.7194 20.5533 16.3636 20.1136 16.3636ZM19.3181 21.1364H16.1363V17.9545H19.3181V21.1364Z" fill="#AB0520"/>
<path d="M28.2955 16.3636H23.5227C23.0831 16.3636 22.7273 16.7194 22.7273 17.1591V21.9318C22.7273 22.3715 23.0831 22.7273 23.5227 22.7273H28.2955C28.7351 22.7273 29.0909 22.3715 29.0909 21.9318V17.1591C29.0909 16.7194 28.7351 16.3636 28.2955 16.3636ZM27.5 21.1364H24.3182V17.9545H27.5V21.1364Z" fill="#AB0520"/>
<path d="M32.6137 22.7273H37.3864C37.8261 22.7273 38.1819 22.3715 38.1819 21.9318V17.1591C38.1819 16.7194 37.8261 16.3636 37.3864 16.3636H32.6137C32.174 16.3636 31.8182 16.7194 31.8182 17.1591V21.9318C31.8182 22.3715 32.174 22.7273 32.6137 22.7273ZM33.4091 17.9545H36.591V21.1364H33.4091V17.9545Z" fill="#AB0520"/>
<path d="M11.0228 25.4545H6.25004C5.81037 25.4545 5.45459 25.8103 5.45459 26.25V31.0227C5.45459 31.4624 5.81037 31.8182 6.25004 31.8182H11.0228C11.4624 31.8182 11.8182 31.4624 11.8182 31.0227V26.25C11.8182 25.8103 11.4624 25.4545 11.0228 25.4545ZM10.2273 30.2273H7.0455V27.0455H10.2273V30.2273Z" fill="#AB0520"/>
<path d="M20.1136 25.4545H15.3409C14.9012 25.4545 14.5454 25.8103 14.5454 26.25V31.0227C14.5454 31.4624 14.9012 31.8182 15.3409 31.8182H20.1136C20.5533 31.8182 20.909 31.4624 20.909 31.0227V26.25C20.909 25.8103 20.5533 25.4545 20.1136 25.4545ZM19.3181 30.2273H16.1363V27.0455H19.3181V30.2273Z" fill="#AB0520"/>
<path d="M28.2955 25.4545H23.5227C23.0831 25.4545 22.7273 25.8103 22.7273 26.25V31.0227C22.7273 31.4624 23.0831 31.8182 23.5227 31.8182H28.2955C28.7351 31.8182 29.0909 31.4624 29.0909 31.0227V26.25C29.0909 25.8103 28.7351 25.4545 28.2955 25.4545ZM27.5 30.2273H24.3182V27.0455H27.5V30.2273Z" fill="#AB0520"/>
<path d="M11.0228 34.5455H6.25004C5.81037 34.5455 5.45459 34.9012 5.45459 35.3409V40.1136C5.45459 40.5533 5.81037 40.9091 6.25004 40.9091H11.0228C11.4624 40.9091 11.8182 40.5533 11.8182 40.1136V35.3409C11.8182 34.9012 11.4624 34.5455 11.0228 34.5455ZM10.2273 39.3182H7.0455V36.1364H10.2273V39.3182Z" fill="#AB0520"/>
<path d="M20.1136 34.5455H15.3409C14.9012 34.5455 14.5454 34.9012 14.5454 35.3409V40.1136C14.5454 40.5533 14.9012 40.9091 15.3409 40.9091H20.1136C20.5533 40.9091 20.909 40.5533 20.909 40.1136V35.3409C20.909 34.9012 20.5533 34.5455 20.1136 34.5455ZM19.3181 39.3182H16.1363V36.1364H19.3181V39.3182Z" fill="#AB0520"/>
<path d="M28.2955 34.5455H23.5227C23.0831 34.5455 22.7273 34.9012 22.7273 35.3409V40.1136C22.7273 40.5533 23.0831 40.9091 23.5227 40.9091H28.2955C28.7351 40.9091 29.0909 40.5533 29.0909 40.1136V35.3409C29.0909 34.9012 28.7351 34.5455 28.2955 34.5455ZM27.5 39.3182H24.3182V36.1364H27.5V39.3182Z" fill="#AB0520"/>
</svg>
