<svg width="50" height="50" viewBox="0 0 50 50" fill="none" xmlns="http://www.w3.org/2000/svg">
<path d="M49.1667 26.6667H46.6667V25.8333C46.6667 25.3731 46.2936 25 45.8333 25H43.3333V2.5C43.3292 1.121 42.2123 0.0041185 40.8333 0H2.5C1.121 0.0041185 0.0041185 1.121 0 2.5V37.5C0.0041185 38.879 1.121 39.9959 2.5 40H15V49.1667C15 49.6269 15.3731 50 15.8333 50H49.1667C49.6269 50 50 49.6269 50 49.1667V27.5C50 27.0398 49.6269 26.6667 49.1667 26.6667ZM45 26.6667V45H35V26.6667H45ZM1.66667 2.5C1.66667 2.03976 2.03976 1.66667 2.5 1.66667H40.8333C41.2936 1.66667 41.6667 2.03976 41.6667 2.5V6.66667H1.66667V2.5ZM15 27.5V38.3333H2.5C2.03976 38.3333 1.66667 37.9602 1.66667 37.5V8.33333H41.6667V25H34.1667C33.7064 25 33.3333 25.3731 33.3333 25.8333V26.6667H31.6667V25.8333C31.6667 25.3731 31.2936 25 30.8333 25H19.1667C18.7064 25 18.3333 25.3731 18.3333 25.8333V26.6667H15.8333C15.3731 26.6667 15 27.0398 15 27.5ZM33.3333 28.3333V45.8333C33.3333 46.2936 32.9602 46.6667 32.5 46.6667C32.0398 46.6667 31.6667 46.2936 31.6667 45.8333V28.3333H33.3333ZM30 26.6667V45H20V26.6667H30ZM48.3333 48.3335H16.6667V28.3333H18.3333V45.8333C18.3333 46.2936 18.7064 46.6667 19.1667 46.6667H30.15C30.4997 47.6651 31.4421 48.3335 32.5 48.3335C33.5579 48.3335 34.5003 47.6651 34.85 46.6667H45.8333C46.2936 46.6667 46.6667 46.2936 46.6667 45.8333V28.3333H48.3333V48.3335Z" fill="#AB0520"/>
<path d="M23.1482 29.6296H21.2963V31.4815H23.1482V29.6296Z" fill="#AB0520"/>
<path d="M28.7037 29.6296H25V31.4815H28.7037V29.6296Z" fill="#AB0520"/>
<path d="M28.7037 33.3333H22.2222V35.1852H28.7037V33.3333Z" fill="#AB0520"/>
<path d="M28.7037 36.1111H22.2222V37.963H28.7037V36.1111Z" fill="#AB0520"/>
<path d="M28.7037 39.8148H22.2222V41.6667H28.7037V39.8148Z" fill="#AB0520"/>
<path d="M5.55553 2.77777H3.70367V4.62962H5.55553V2.77777Z" fill="#AB0520"/>
<path d="M8.85185 2.77777H7V4.62962H8.85185V2.77777Z" fill="#AB0520"/>
<path d="M11.8519 2.77777H10V4.62962H11.8519V2.77777Z" fill="#AB0520"/>
<path d="M43.5185 29.6296H37.037V31.4815H43.5185V29.6296Z" fill="#AB0520"/>
<path d="M43.5185 33.3333H37.037V35.1852H43.5185V33.3333Z" fill="#AB0520"/>
<path d="M43.5185 36.1111H37.037V37.963H43.5185V36.1111Z" fill="#AB0520"/>
<path d="M43.5185 39.8148H37.037V41.6667H43.5185V39.8148Z" fill="#AB0520"/>
</svg>
