<svg width="55" height="50" viewBox="0 0 55 50" fill="none" xmlns="http://www.w3.org/2000/svg">
<path d="M15.1284 24.526V12.4203C15.1284 6.1131 20.6674 1 27.5001 1C34.3328 1 39.8719 6.1131 39.8719 12.4203V24.526" stroke="#AB0520" stroke-width="1.5"/>
<path d="M35.4313 15.3059C34.064 14.0441 31.8476 14.0441 30.4807 15.3059" stroke="#AB0520" stroke-width="1.5" stroke-linecap="round"/>
<path d="M24.5296 15.3059C23.1627 14.0441 20.9458 14.0441 19.5789 15.3059" stroke="#AB0520" stroke-width="1.5" stroke-linecap="round"/>
<path d="M25.0247 20.4032C26.392 21.6654 28.6084 21.6654 29.9753 20.4032" stroke="#AB0520" stroke-width="1.5" stroke-linecap="round"/>
<path d="M15.1284 13.2665L18.2391 9.99403C19.0043 9.18877 20.4024 8.81368 21.7272 9.05834L26.6879 9.97378C27.2206 10.0722 27.7796 10.0722 28.3123 9.97378L33.2731 9.05834C34.5978 8.81368 35.9954 9.18877 36.7612 9.99403L39.8719 13.2665" stroke="#AB0520" stroke-width="1.5" stroke-linecap="round"/>
<path fill-rule="evenodd" clip-rule="evenodd" d="M48.0173 49H6.98265C5.92688 49 4.98432 48.5103 4.87638 47.9007L1.01618 26.0609C0.866987 25.2172 1.7661 24.5262 3.02548 24.5262H51.9745C53.2339 24.5262 54.133 25.2172 53.9838 26.0609L50.1236 47.9007C50.0161 48.5103 49.0736 49 48.0173 49Z" stroke="#AB0520" stroke-width="1.5"/>
<path fill-rule="evenodd" clip-rule="evenodd" d="M29.9752 37.0206C31.3425 35.7588 31.3425 33.7125 29.9752 32.4507C28.6083 31.1889 26.3919 31.1889 25.0246 32.4507C23.6577 33.7125 23.6577 35.7588 25.0246 37.0206C26.3919 38.2824 28.6083 38.2824 29.9752 37.0206Z" stroke="#AB0520" stroke-width="1.5"/>
</svg>
