<svg width="50" height="50" viewBox="0 0 50 50" fill="none" xmlns="http://www.w3.org/2000/svg">
<g clip-path="url(#clip0)">
<path d="M19.3359 27.7343H2.92969C1.31426 27.7343 0 29.0486 0 30.664V47.0702C0 48.6857 1.31426 49.9999 2.92969 49.9999H19.3359C20.9514 49.9999 22.2656 48.6857 22.2656 47.0702V30.664C22.2656 29.0486 20.9514 27.7343 19.3359 27.7343ZM1.95312 30.664C1.95312 30.1255 2.39121 29.6874 2.92969 29.6874H19.3359C19.8744 29.6874 20.3125 30.1255 20.3125 30.664V47.0702C20.3125 47.16 20.2993 47.2465 20.2766 47.3291C19.3498 44.8986 17.2876 43.0839 14.7794 42.4618C15.4594 41.6417 15.8687 40.5896 15.8687 39.4435V36.3765C15.8687 33.7651 13.7442 31.6405 11.1328 31.6405C8.52139 31.6405 6.39687 33.7651 6.39687 36.3765V39.4435C6.39687 40.5895 6.80615 41.6415 7.48603 42.4615C4.97666 43.0832 2.91553 44.8976 1.98906 47.3289C1.96631 47.2464 1.95312 47.1599 1.95312 47.0702V30.664ZM8.35 38.9522H12.5031C13.001 38.9522 13.4798 38.8447 13.9156 38.6503V39.4436C13.9156 40.978 12.6673 42.2264 11.1328 42.2264C9.59834 42.2264 8.35 40.978 8.35 39.4436V38.9522ZM8.35 36.999V36.3765C8.35 34.842 9.59834 33.5937 11.1328 33.5937C12.5636 33.5937 13.745 34.6791 13.8983 36.0696C13.8974 36.0719 13.8961 36.074 13.8951 36.0763C13.658 36.6368 13.1116 36.999 12.5031 36.999H8.35ZM9.40635 44.1794H12.8594C15.3896 44.1794 17.5947 45.7526 18.4603 48.0468H3.80547C4.67061 45.7521 6.87402 44.1794 9.40635 44.1794Z" fill="#AB0520"/>
<path d="M22.2666 2.92969C22.2666 1.31426 20.9523 0 19.3369 0H2.93066C1.31523 0 0.000976562 1.31426 0.000976562 2.92969V19.3359C0.000976562 20.9514 1.31523 22.2656 2.93066 22.2656H19.3369C20.9523 22.2656 22.2666 20.9514 22.2666 19.3359V2.92969ZM2.93066 1.95312H19.3369C19.8754 1.95312 20.3135 2.39121 20.3135 2.92969V9.02412L17.198 5.90869C16.8166 5.52734 16.1984 5.52734 15.8169 5.90869L10.0753 11.6503L7.97676 9.55176C7.59551 9.17051 6.97715 9.17041 6.59561 9.55176L1.9541 14.1933V2.92969C1.9541 2.39121 2.39229 1.95312 2.93066 1.95312ZM1.9541 19.3359V16.9555L7.28623 11.6233L15.9754 20.3125H2.93066C2.39229 20.3125 1.9541 19.8744 1.9541 19.3359ZM19.3369 20.3125H18.7376L11.4564 13.0313L16.5075 7.98027L20.3136 11.7863V19.3359C20.3135 19.8744 19.8754 20.3125 19.3369 20.3125Z" fill="#AB0520"/>
<path d="M45.1208 5.46869H32.6135C32.0743 5.46869 31.637 5.9059 31.637 6.44525C31.637 6.98461 32.0743 7.42181 32.6135 7.42181H45.1208C45.66 7.42181 46.0973 6.98461 46.0973 6.44525C46.0973 5.9059 45.6601 5.46869 45.1208 5.46869Z" fill="#AB0520"/>
<path d="M45.1207 14.8437H41.1998C40.6606 14.8437 40.2233 15.2809 40.2233 15.8203C40.2233 16.3597 40.6606 16.7969 41.1998 16.7969H45.1207C45.66 16.7969 46.0973 16.3597 46.0973 15.8203C46.0973 15.2809 45.6601 14.8437 45.1207 14.8437Z" fill="#AB0520"/>
<path d="M32.6135 14.8437C32.0743 14.8437 31.637 15.2809 31.637 15.8203C31.637 16.3597 32.0743 16.7969 32.6135 16.7969H36.7271C37.2664 16.7969 37.7037 16.3597 37.7037 15.8203C37.7037 15.2809 37.2664 14.8437 36.7271 14.8437H32.6135Z" fill="#AB0520"/>
<path d="M45.1208 10.1562H32.6135C32.0743 10.1562 31.637 10.5934 31.637 11.1327C31.637 11.6721 32.0743 12.1093 32.6135 12.1093H45.1208C45.66 12.1093 46.0973 11.6721 46.0973 11.1327C46.0973 10.5934 45.6601 10.1562 45.1208 10.1562Z" fill="#AB0520"/>
<path d="M9.375 6.85931C9.91434 6.85931 10.3516 6.42209 10.3516 5.88275C10.3516 5.34341 9.91434 4.90619 9.375 4.90619C8.83566 4.90619 8.39844 5.34341 8.39844 5.88275C8.39844 6.42209 8.83566 6.85931 9.375 6.85931Z" fill="#AB0520"/>
<path d="M47.0702 22.2655C48.6857 22.2655 49.9999 20.9513 49.9999 19.3359V2.92968C49.9999 1.31425 48.6857 0 47.0702 0H43.2617C42.7224 0 42.2851 0.437205 42.2851 0.976559C42.2851 1.51591 42.7224 1.95312 43.2617 1.95312H47.0702C47.6087 1.95312 48.0468 2.3912 48.0468 2.92968V19.3359C48.0468 19.8743 47.6087 20.3124 47.0702 20.3124H37.9343C37.4399 19.3916 36.4677 18.7639 35.3515 18.7639C34.2353 18.7639 33.2632 19.3916 32.7687 20.3124H30.6641C30.1256 20.3124 29.6875 19.8743 29.6875 19.3359V2.92968C29.6875 2.3912 30.1256 1.95312 30.6641 1.95312H34.4726C35.0119 1.95312 35.4492 1.51591 35.4492 0.976559C35.4492 0.437205 35.0119 0 34.4726 0H30.6641C29.0486 0 27.7344 1.31425 27.7344 2.92968V19.3359C27.7344 20.9513 29.0486 22.2655 30.6641 22.2655H32.4219V33.5782L31.7278 33.738C29.8366 34.1735 28.5156 35.8332 28.5156 37.774V39.2666C28.5156 41.0282 28.8403 42.7533 29.4808 44.394C30.2222 46.2937 31.3927 48.0432 32.8655 49.4532L33.1532 49.7287C33.3425 49.9099 33.5856 49.9999 33.8285 49.9999C34.0855 49.9999 34.3422 49.899 34.5341 49.6987C34.907 49.3092 34.8936 48.691 34.504 48.318L34.2162 48.0425C32.9472 46.8277 31.939 45.3205 31.3002 43.6839C30.7485 42.2703 30.4687 40.7842 30.4687 39.2666V37.774C30.4687 36.7485 31.1667 35.8715 32.1661 35.6415L32.4219 35.5825V37.4275C32.4219 37.9668 32.8592 38.404 33.3984 38.404C33.9377 38.404 34.375 37.9668 34.375 37.4275V21.6936C34.375 21.1551 34.8131 20.717 35.3515 20.717C35.89 20.717 36.3281 21.1551 36.3281 21.6936V37.2162C36.3281 37.7555 36.7654 38.1927 37.3047 38.1927C37.8439 38.1927 38.2812 37.7555 38.2812 37.2162V34.1217C38.2812 33.5833 38.7193 33.1452 39.2578 33.1452C39.7962 33.1452 40.2343 33.5833 40.2343 34.1217V37.2162C40.2343 37.7555 40.6716 38.1927 41.2109 38.1927C41.7501 38.1927 42.1874 37.7555 42.1874 37.2162V34.1217C42.1874 33.5833 42.6255 33.1452 43.164 33.1452C43.7025 33.1452 44.1406 33.5833 44.1406 34.1217V37.2162C44.1406 37.7555 44.5779 38.1927 45.1171 38.1927C45.6564 38.1927 46.0937 37.7555 46.0937 37.2162V34.1217C46.0937 33.5833 46.5318 33.1452 47.0702 33.1452C47.6087 33.1452 48.0468 33.5833 48.0468 34.1217V40.379C48.0468 43.2065 47.4042 46.0504 46.1886 48.6033C45.9567 49.0902 46.1634 49.673 46.6504 49.9049C46.7861 49.9694 46.9289 50 47.0697 50C47.4345 50 47.7847 49.7945 47.952 49.4431C49.2918 46.6294 50 43.4951 50 40.379V34.1217C50 32.5063 48.6858 31.1921 47.0703 31.1921C46.3205 31.1921 45.636 31.4755 45.1172 31.9404C44.5985 31.4755 43.9139 31.1921 43.1641 31.1921C42.4143 31.1921 41.7297 31.4755 41.211 31.9404C40.6922 31.4755 40.0077 31.1921 39.2579 31.1921C38.9155 31.1921 38.587 31.2516 38.2813 31.36V22.2655H47.0702Z" fill="#AB0520"/>
<path d="M38.8671 1.95358C39.4064 1.95358 39.8436 1.51636 39.8436 0.97702C39.8436 0.43768 39.4064 0.000457764 38.8671 0.000457764C38.3277 0.000457764 37.8905 0.43768 37.8905 0.97702C37.8905 1.51636 38.3277 1.95358 38.8671 1.95358Z" fill="#AB0520"/>
</g>
<defs>
<clipPath id="clip0">
<rect width="50" height="50" fill="white"/>
</clipPath>
</defs>
</svg>
