<svg width="56" height="56" viewBox="0 0 56 56" fill="none" xmlns="http://www.w3.org/2000/svg">
<path d="M12 7.65279V7.3374C12 5.12826 10.2091 3.3374 8 3.3374H5C2.79086 3.3374 1 5.12826 1 7.3374V7.80214C1 9.44746 2.00749 10.925 3.53916 11.5258L9.46084 13.849C10.9925 14.4498 12 15.9273 12 17.5727V18.0374C12 20.2465 10.2091 22.0374 8 22.0374H5C2.79086 22.0374 1 20.2465 1 18.0374V17.722" stroke="#AB0520" stroke-width="2" stroke-linecap="round"/>
<path d="M6.5 1L6.5 23" stroke="#AB0520" stroke-width="2" stroke-linecap="round"/>
<path d="M6.5 22.0376L6.5 24.3751" stroke="#AB0520" stroke-width="2" stroke-linecap="round"/>
<path d="M35 1C41.5284 1 46.4799 3.31429 49.8548 7.94286C53.2849 12.5714 55 19.2314 55 27.9229C55 36.6657 53.2849 43.3771 49.8548 48.0571C46.4799 52.6857 41.5284 55 35 55C28.4716 55 23.4924 52.6857 20.0622 48.0571C16.6874 43.3771 15 36.6657 15 27.9229C15 19.2314 16.6874 12.5714 20.0622 7.94286C23.4924 3.31429 28.4716 1 35 1ZM35 8.48286C31.8465 8.48286 29.5505 9.97429 28.112 12.9571C26.6736 15.8886 25.9544 20.8771 25.9544 27.9229C25.9544 35.02 26.6736 40.06 28.112 43.0429C29.5505 46.0257 31.8465 47.5171 35 47.5171C38.1535 47.5171 40.4495 46.0514 41.888 43.12C43.3264 40.1371 44.0456 35.0714 44.0456 27.9229C44.0456 20.8257 43.3264 15.8114 41.888 12.88C40.4495 9.94858 38.1535 8.48286 35 8.48286Z" stroke="#AB0520" stroke-width="2"/>
</svg>
