<svg width="50" height="50" viewBox="0 0 50 50" fill="none" xmlns="http://www.w3.org/2000/svg">
<g clip-path="url(#clip0)">
<path d="M49.714 7.3785C49.3326 6.99725 48.7144 6.99725 48.3329 7.3785C46.3368 9.37469 44.8502 11.9148 44.0341 14.7243C43.9811 14.9061 43.9228 15.093 43.861 15.2792C42.8534 18.3037 41.0754 20.5144 41 20.6072C40.9707 20.6432 40.9396 20.6778 40.9076 20.7099C40.4333 21.1841 39.6821 21.2223 39.1601 20.7985C38.9206 20.6041 38.7685 20.3416 38.7078 20.0612C38.7059 20.0544 38.7047 20.0474 38.7028 20.0406C38.6289 19.6713 38.7137 19.2729 38.9693 18.9582C38.9841 18.9399 40.4514 17.1135 41.302 14.6859C42.4634 11.3718 41.9585 8.50145 39.8421 6.38495C38.8895 5.43251 37.6368 4.88925 36.3143 4.85526C34.9724 4.81962 33.7239 5.31249 32.7969 6.23944C31.8452 7.19091 31.3544 8.47284 31.4148 9.84911C31.4465 10.5696 30.886 11.1816 30.1655 11.2134C29.4452 11.2455 28.8329 10.6845 28.8012 9.96405C28.7095 7.87684 29.4915 5.84501 30.9469 4.38964C32.9426 2.39413 35.8876 1.72323 38.6322 2.63895C40.1131 3.1328 41.7126 2.76083 42.8056 1.66776C43.187 1.28641 43.187 0.668054 42.8056 0.286609C42.4242 -0.0946411 41.806 -0.0946411 41.4245 0.286609C40.858 0.85321 40.0249 1.04462 39.2501 0.786121C35.7988 -0.365149 32.0878 0.486218 29.5657 3.00829C27.7241 4.85009 26.7342 7.41659 26.8499 10.0497C26.8847 10.8427 27.202 11.557 27.6997 12.1015L26.3546 13.4467C26.226 13.2268 26.0691 13.0231 25.8876 12.8416L25.8285 12.7825C24.6627 11.6169 22.766 11.6168 21.6002 12.7826C20.4345 13.9484 20.4345 15.8451 21.6002 17.0108L21.6594 17.07C21.841 17.2515 22.0445 17.4083 22.2643 17.5369L20.6179 19.1832C20.3559 19.4452 20.1846 19.763 20.0995 20.0984C19.7641 20.1836 19.4464 20.3549 19.1844 20.6168L17.5381 22.2631C17.4095 22.0432 17.2526 21.8396 17.0712 21.6581L17.0121 21.599C15.8463 20.4332 13.9496 20.4333 12.7838 21.599C11.618 22.7648 11.618 24.6615 12.7838 25.8273L12.8428 25.8864C13.0244 26.0679 13.228 26.2248 13.4478 26.3533L12.1024 27.6987C11.5575 27.2009 10.8424 26.8836 10.0491 26.8486C7.41677 26.7323 4.84959 27.7227 3.00789 29.5645C0.485913 32.0864 -0.365649 35.7973 0.785522 39.2488C1.04392 40.0235 0.852612 40.8567 0.286011 41.4232C-0.0953369 41.8046 -0.0953369 42.4229 0.286011 42.8044C0.667456 43.1856 1.28562 43.1856 1.66716 42.8044C2.76023 41.7112 3.1325 40.112 2.63835 38.6309C1.72273 35.8859 2.39363 32.941 4.38914 30.9457C5.84431 29.4904 7.874 28.7081 9.96345 28.7999C10.684 28.8316 11.2444 29.4437 11.2129 30.1641C11.1811 30.8848 10.5698 31.4438 9.84861 31.4136C8.47332 31.3534 7.1906 31.8436 6.23884 32.7954C4.3366 34.6976 4.40203 37.8582 6.38445 39.8407C7.91667 41.3729 9.65798 41.9099 11.3463 41.9098C15.27 41.9095 18.9064 39.0098 18.9582 38.9677C19.5181 38.5133 20.3435 38.5991 20.798 39.1591C21.2217 39.681 21.1835 40.4322 20.71 40.9058C20.6772 40.9387 20.6426 40.9699 20.6067 40.9989C20.514 41.0742 18.3025 42.8524 15.2786 43.8599C15.0952 43.9211 14.9085 43.9793 14.7238 44.0329C11.9142 44.8491 9.37419 46.3356 7.3781 48.3318C6.99675 48.7132 6.99675 49.3314 7.3781 49.7129C7.56882 49.9036 7.81873 49.9989 8.06853 49.9989C8.31853 49.9989 8.56843 49.9035 8.75916 49.7129C10.5232 47.9488 12.7742 46.6333 15.2686 45.9085C15.4776 45.8478 15.6887 45.7819 15.896 45.7129C19.2533 44.5943 21.7334 42.5998 21.8374 42.5155C21.9249 42.4445 22.0098 42.368 22.0905 42.2875C23.2742 41.1035 23.3704 39.2295 22.3144 37.9283C22.3075 37.9197 22.3001 37.9118 22.293 37.9033L23.6453 36.5511C23.7739 36.7709 23.9307 36.9746 24.1123 37.156L24.1714 37.2151C25.3372 38.3807 27.2339 38.3808 28.3997 37.215C29.5654 36.0492 29.5654 34.1525 28.3997 32.9868L28.3406 32.9277C28.1591 32.7462 27.9553 32.5893 27.7355 32.4607L29.3819 30.8144C29.6439 30.5524 29.8152 30.2347 29.9004 29.8992C30.2357 29.8141 30.5535 29.6428 30.8155 29.3808L32.9681 27.2282C33.3381 26.8583 33.484 26.3141 33.3488 25.8082C33.2145 25.305 32.8193 24.9082 32.3173 24.7726C32.1417 24.7254 31.9867 24.6354 31.8567 24.5054L31.7976 24.4463C31.3933 24.0421 31.3933 23.3844 31.7976 22.9802C32.2017 22.576 32.8594 22.5758 33.2637 22.9802L33.3228 23.0392C33.4529 23.1692 33.5428 23.3242 33.5902 23.5C33.7257 24.0018 34.1223 24.3971 34.6257 24.5313C35.1317 24.6667 35.6758 24.5205 36.0457 24.1507L37.9033 22.2931C37.912 22.3003 37.9203 22.308 37.9292 22.3151C38.5334 22.8055 39.2609 23.0474 39.9856 23.0474C40.8218 23.0474 41.6542 22.7253 42.2885 22.0911C42.368 22.0114 42.4448 21.9263 42.5163 21.8382C42.6007 21.7344 44.5951 19.2548 45.7139 15.8963C45.784 15.6861 45.8497 15.4751 45.9095 15.2693C46.6342 12.7749 47.9497 10.5239 49.7138 8.75975C50.0954 8.37821 50.0954 7.75985 49.714 7.3785ZM17.7299 37.4489C17.6689 37.4977 11.5929 42.2868 7.7656 38.4595C6.5446 37.2385 6.47927 35.3171 7.6199 34.1765C8.17966 33.6169 8.94353 33.3288 9.76277 33.3646C11.0167 33.4211 12.1371 32.7567 12.7274 31.7401L13.4483 32.461C13.2256 32.5905 13.019 32.749 12.8348 32.9331L12.7764 32.9917C12.2117 33.5563 11.9006 34.3072 11.9006 35.1057C11.9006 35.9045 12.2117 36.6553 12.7763 37.2199C13.9422 38.3855 15.8386 38.3855 17.0052 37.2193L17.0636 37.1608C17.2474 36.977 17.4058 36.7708 17.5353 36.5479L18.1479 37.1606C18.0034 37.2445 17.8636 37.3404 17.7299 37.4489ZM28.001 29.4331L25.8483 31.5857C25.4783 31.9557 25.3324 32.5 25.4677 33.006C25.602 33.5093 25.9973 33.9059 26.4991 34.0413C26.6747 34.0886 26.8297 34.1786 26.9597 34.3087L27.0188 34.3678C27.423 34.772 27.423 35.4297 27.0189 35.8339C26.6145 36.2379 25.9569 36.2381 25.5527 35.8339L25.4934 35.7747C25.3635 35.6447 25.2735 35.4898 25.2262 35.3142C25.0909 34.8124 24.6943 34.4171 24.191 34.2827C23.6846 34.1473 23.1407 34.2933 22.7707 34.6634L20.618 36.816C20.6115 36.8225 20.6028 36.8253 20.5942 36.8259C20.5896 36.8247 20.5851 36.8233 20.5805 36.8222C20.5754 36.8204 20.5697 36.8201 20.5656 36.816L18.4083 34.6588C18.1295 34.3799 17.7519 34.2282 17.3663 34.2282C17.2391 34.2282 17.1111 34.2447 16.9854 34.2786C16.4812 34.4143 16.0848 34.8114 15.9511 35.3151C15.9047 35.4898 15.812 35.6505 15.6821 35.7803L15.6237 35.8389C15.2194 36.2429 14.5617 36.2432 14.1574 35.8389C13.9616 35.6431 13.8538 35.3827 13.8538 35.1057C13.8538 34.8289 13.9616 34.5685 14.1581 34.3722L14.2164 34.3137C14.3476 34.1825 14.504 34.0921 14.6811 34.0452C15.1846 33.9116 15.5818 33.5154 15.7176 33.0113C15.8541 32.5045 15.7086 31.9592 15.3377 31.5881L13.1826 29.4331C13.1681 29.4186 13.1681 29.3951 13.1826 29.3806L15.3345 27.2287C15.3347 27.2284 15.3349 27.2282 15.3352 27.228C15.7052 26.8581 15.8511 26.314 15.7159 25.808C15.5816 25.3048 15.1864 24.908 14.6844 24.7724C14.5088 24.7252 14.3538 24.6352 14.2238 24.5052L14.1647 24.4461C13.9689 24.2503 13.8611 23.9899 13.8611 23.7131C13.8611 23.4361 13.9689 23.1758 14.1647 22.98C14.3605 22.7842 14.6209 22.6764 14.8977 22.6764C15.1747 22.6764 15.435 22.7842 15.6308 22.98L15.6899 23.039C15.82 23.169 15.9099 23.324 15.9572 23.4996C16.0926 24.0015 16.4891 24.3967 16.9925 24.5311C17.4984 24.6659 18.0427 24.5205 18.4128 24.1505L20.5654 21.9978C20.5799 21.9834 20.6034 21.9834 20.6178 21.9978L22.2414 23.6213C22.0643 23.7358 21.8989 23.869 21.7496 24.0183L21.6905 24.0774C20.5248 25.2432 20.5248 27.1398 21.6905 28.3057C22.2552 28.8704 23.006 29.1814 23.8046 29.1814C24.6033 29.1814 25.3541 28.8704 25.9187 28.3057L25.9778 28.2467C26.1291 28.0953 26.2619 27.9313 26.3757 27.7557L28.0008 29.3807C28.0154 29.3952 28.0154 29.4186 28.001 29.4331ZM36.8173 20.617L35.1711 22.2631C35.0426 22.0432 34.8856 21.8396 34.7042 21.6581L34.6451 21.599C33.4793 20.4332 31.5826 20.4333 30.4168 21.599C29.251 22.7648 29.251 24.6615 30.4168 25.8273L30.4759 25.8864C30.6574 26.0679 30.8611 26.2248 31.0808 26.3533L29.4345 27.9996C29.4201 28.014 29.3966 28.014 29.3821 27.9996L27.2769 25.8945C26.9139 25.5316 26.3989 25.3851 25.8986 25.5033C25.4014 25.6206 25.0084 25.9792 24.8468 26.4628C24.796 26.615 24.7119 26.7505 24.5969 26.8655L24.5378 26.9246C24.1336 27.3289 23.4759 27.3287 23.0717 26.9247C22.6675 26.5204 22.6675 25.8627 23.0717 25.4585L23.1307 25.3994C23.2459 25.2843 23.3813 25.2002 23.5336 25.1493C24.0171 24.9879 24.3758 24.5945 24.4929 24.0974C24.6108 23.5973 24.4644 23.082 24.1015 22.7192L21.999 20.6167C21.9845 20.6022 21.9845 20.5787 21.999 20.5642L24.1516 18.4116C24.5217 18.0416 24.6676 17.4974 24.5323 16.9913C24.3979 16.4881 24.0026 16.0914 23.5009 15.956C23.3254 15.9088 23.1703 15.8187 23.0402 15.6887L22.9811 15.6296C22.5769 15.2254 22.5769 14.5677 22.981 14.1635C23.3853 13.7594 24.0429 13.7592 24.4472 14.1635L24.5063 14.2225C24.6364 14.3526 24.7264 14.5076 24.7737 14.6831C24.9091 15.1849 25.3056 15.5802 25.8089 15.7145C26.3149 15.8498 26.8591 15.704 27.2293 15.334L29.3819 13.1813C29.3964 13.1669 29.4199 13.1669 29.4344 13.1813L31.5369 15.2839C31.9001 15.6469 32.4152 15.7932 32.9154 15.6752C33.4127 15.5579 33.8057 15.1992 33.9671 14.7158C34.0179 14.5636 34.102 14.4281 34.2166 14.3136L34.2762 14.2539C34.472 14.0581 34.7324 13.9503 35.0093 13.9503C35.2862 13.9503 35.5466 14.0581 35.7424 14.254C35.9382 14.4498 36.046 14.7101 36.046 14.9871C36.046 15.264 35.9382 15.5243 35.7424 15.7201L35.6834 15.7791C35.5681 15.8942 35.4326 15.9783 35.2803 16.0292C34.7969 16.1906 34.4383 16.5839 34.321 17.081C34.203 17.581 34.3493 18.0963 34.7123 18.4595L36.8173 20.5644C36.8212 20.5683 36.8214 20.5737 36.8231 20.5786C36.8244 20.5836 36.8258 20.5885 36.827 20.5934C36.8263 20.6019 36.8238 20.6104 36.8173 20.617ZM37.4522 17.7276C37.3432 17.8619 37.2469 18.0024 37.1628 18.1475L36.5724 17.5572C36.7495 17.4428 36.9149 17.3096 37.0643 17.1602L37.1234 17.1012C38.2891 15.9353 38.2891 14.0387 37.1234 12.8729C36.5588 12.3082 35.8079 11.9971 35.0093 11.9971C34.2106 11.9971 33.4598 12.3082 32.8957 12.8723L32.836 12.9318C32.6867 13.0811 32.5534 13.2466 32.4389 13.4237L31.7422 12.7269C32.7577 12.1362 33.421 11.0158 33.3659 9.76307C33.3299 8.94081 33.6181 8.17977 34.1777 7.6203C34.7224 7.07557 35.4676 6.78915 36.2639 6.80751C37.0838 6.8286 37.8638 7.16893 38.4607 7.76581C42.2874 11.5926 37.4988 17.6694 37.4522 17.7276Z" fill="#AB0520"/>
<path d="M12.4669 11.087L8.82671 7.44677C8.44526 7.06551 7.8271 7.06551 7.44556 7.44677C7.06421 7.82811 7.06421 8.44647 7.44556 8.82792L11.0859 12.4682C11.2766 12.6588 11.5265 12.7542 11.7764 12.7542C12.0263 12.7542 12.2762 12.6588 12.4669 12.4682C12.8483 12.0868 12.8483 11.4685 12.4669 11.087Z" fill="#AB0520"/>
<path d="M14.9228 13.5426C14.7412 13.3609 14.4893 13.2565 14.2324 13.2565C13.9755 13.2565 13.7236 13.3608 13.542 13.5426C13.3604 13.7243 13.2559 13.9762 13.2559 14.233C13.2559 14.4908 13.3603 14.7418 13.542 14.9233C13.7237 15.106 13.9756 15.2096 14.2324 15.2096C14.4893 15.2096 14.7412 15.106 14.9228 14.9233C15.1044 14.7418 15.209 14.4899 15.209 14.233C15.209 13.9762 15.1045 13.7252 14.9228 13.5426Z" fill="#AB0520"/>
<path d="M9.28186 16.1058C9.28176 16.1058 9.28156 16.1058 9.28147 16.1058L6.35471 16.1071C5.81536 16.1073 5.37834 16.5447 5.37854 17.084C5.37874 17.6232 5.81594 18.0602 6.3551 18.0602C6.3552 18.0602 6.3554 18.0602 6.35549 18.0602L9.28225 18.0589C9.8216 18.0587 10.2586 17.6213 10.2584 17.082C10.2582 16.5428 9.82102 16.1058 9.28186 16.1058Z" fill="#AB0520"/>
<path d="M18.062 6.35587C18.0618 5.81671 17.6246 5.3797 17.0854 5.3797C17.0854 5.3797 17.0852 5.3797 17.0851 5.3797C16.5458 5.3799 16.1087 5.8173 16.1089 6.35665L16.1102 9.47082C16.1104 10.01 16.5476 10.447 17.0867 10.447C17.0868 10.447 17.087 10.447 17.0871 10.447C17.6264 10.4468 18.0635 10.0094 18.0633 9.47004L18.062 6.35587Z" fill="#AB0520"/>
<path d="M42.5542 41.17L38.9141 37.5298C38.5327 37.1486 37.9145 37.1486 37.533 37.5298C37.1516 37.9112 37.1516 38.5295 37.533 38.911L41.1732 42.5512C41.3639 42.7418 41.6138 42.8372 41.8637 42.8372C42.1136 42.8372 42.3635 42.7418 42.5542 42.5512C42.9356 42.1698 42.9356 41.5515 42.5542 41.17Z" fill="#AB0520"/>
<path d="M36.3359 34.9518C36.1543 34.7701 35.9023 34.6656 35.6455 34.6656C35.3887 34.6656 35.1367 34.7701 34.9551 34.9518C34.7735 35.1333 34.6689 35.3853 34.6689 35.6421C34.6689 35.899 34.7734 36.1509 34.9551 36.3325C35.1367 36.5142 35.3887 36.6187 35.6455 36.6187C35.9023 36.6187 36.1543 36.5143 36.3359 36.3325C36.5175 36.1509 36.6221 35.899 36.6221 35.6421C36.6221 35.3853 36.5176 35.1333 36.3359 34.9518Z" fill="#AB0520"/>
<path d="M43.645 31.9378C43.6449 31.9378 43.6447 31.9378 43.6446 31.9378L40.7179 31.9391C40.1785 31.9393 39.7415 32.3767 39.7417 32.9161C39.7419 33.4552 40.1791 33.8922 40.7183 33.8922C40.7184 33.8922 40.7186 33.8922 40.7187 33.8922L43.6454 33.891C44.1848 33.8908 44.6218 33.4534 44.6216 32.914C44.6214 32.3748 44.1843 31.9378 43.645 31.9378Z" fill="#AB0520"/>
<path d="M33.8899 40.5272C33.8898 39.988 33.4526 39.5511 32.9133 39.5511C32.9132 39.5511 32.913 39.5511 32.9129 39.5511C32.3737 39.5513 31.9366 39.9887 31.9368 40.528L31.938 43.6422C31.9382 44.1813 32.3754 44.6183 32.9146 44.6183C32.9147 44.6183 32.9149 44.6183 32.915 44.6183C33.4542 44.6181 33.8914 44.1807 33.8912 43.6414L33.8899 40.5272Z" fill="#AB0520"/>
</g>
<defs>
<clipPath id="clip0">
<rect width="50" height="50" fill="white"/>
</clipPath>
</defs>
</svg>
