<svg width="50" height="50" viewBox="0 0 50 50" fill="none" xmlns="http://www.w3.org/2000/svg">
<g clip-path="url(#clip0)">
<path d="M49.7112 34.7522L47.3275 32.388C46.9444 32.008 46.326 32.0106 45.9461 32.3936C45.5662 32.7766 45.5688 33.3951 45.9518 33.775L48.3354 36.1392C48.5258 36.3282 48.7746 36.4225 49.0232 36.4225C49.2745 36.4225 49.5257 36.3261 49.7167 36.1336C50.0967 35.7506 50.0942 35.1321 49.7112 34.7522Z" fill="#AB0520"/>
<path d="M44.8986 29.9689C44.5172 29.5875 43.8989 29.5875 43.5173 29.9689L43.5156 29.9706C43.1342 30.352 43.1351 30.9697 43.5165 31.3512C43.7069 31.5417 43.9568 31.6369 44.2066 31.6369C44.457 31.6369 44.7076 31.5413 44.8985 31.3504C45.28 30.9689 45.28 30.3505 44.8986 29.9689Z" fill="#AB0520"/>
<path d="M36.5716 34.4728L46.047 24.9975C47.4821 23.5623 47.4821 21.2272 46.0469 19.792C45.5409 19.286 44.9228 18.9592 44.2718 18.8101C44.4951 18.3302 44.6132 17.8035 44.6132 17.2585C44.6132 16.2753 44.2303 15.351 43.5352 14.6559C42.99 14.1106 42.3036 13.7584 41.5585 13.6316C41.978 12.3536 41.6815 10.8901 40.6671 9.8758C40.1094 9.31818 39.4158 8.97833 38.6918 8.85412C38.8131 8.48605 38.8771 8.09738 38.8771 7.69855C38.8771 6.71535 38.4942 5.79103 37.7991 5.09591C37.1039 4.40079 36.1795 4.01788 35.1964 4.01788C34.5721 4.01788 33.9718 4.17277 33.4385 4.46359L33.3443 4.36232C32.1195 3.04611 30.3858 2.29132 28.588 2.29132H20.9181C20.3788 2.29132 19.9414 2.72872 19.9414 3.26808V4.54894C19.9414 5.06154 20.0281 5.56056 20.1939 6.0298C19.7521 5.8463 19.2741 5.74992 18.7813 5.74992C17.7981 5.74992 16.8738 6.13283 16.1786 6.82794C15.1637 7.84279 14.8675 9.30744 15.2879 10.5858C14.5634 10.7097 13.8688 11.0497 13.3106 11.6078C12.6155 12.303 12.2326 13.2274 12.2326 14.2105C12.2326 14.6085 12.2963 14.9966 12.4171 15.3639C11.673 15.4911 10.9873 15.8431 10.4425 16.3879C9.32173 17.5087 9.07632 19.1786 9.7063 20.5399C9.03921 20.6923 8.42651 21.0282 7.93061 21.524C6.49556 22.9591 6.49556 25.2943 7.93061 26.7294L9.87925 28.6779L0.286084 38.2709C-0.0953613 38.6524 -0.0953613 39.2708 0.286084 39.6524C0.476807 39.843 0.726807 39.9385 0.976709 39.9385C1.22661 39.9385 1.47661 39.8431 1.66733 39.6524L11.3531 29.9666C11.9014 30.2795 12.5237 30.4469 13.1722 30.4469C14.1553 30.4469 15.0796 30.064 15.7749 29.3688C16.5301 28.6136 16.8874 27.609 16.8476 26.6176C16.8971 26.6196 16.9466 26.6211 16.9961 26.6211C17.9385 26.621 18.8814 26.2622 19.5988 25.5448C20.2939 24.8496 20.6768 23.9253 20.6768 22.9422C20.6768 22.8925 20.6751 22.8431 20.6732 22.7937C20.7221 22.7956 20.771 22.7972 20.8201 22.7972C21.7625 22.7972 22.7052 22.4384 23.4227 21.7209C24.1178 21.0257 24.5007 20.1014 24.5007 19.1183C24.5007 19.0686 24.4991 19.0192 24.4971 18.9697C24.546 18.9717 24.595 18.9733 24.644 18.9733C25.5866 18.9733 26.5291 18.6145 27.2466 17.897C28.5951 16.5486 28.6762 14.4057 27.4908 12.9612L33.9746 6.47746C34.3008 6.15109 34.7344 5.9715 35.1958 5.9715C35.6573 5.9715 36.091 6.15109 36.4172 6.47746C36.7435 6.80372 36.9231 7.23732 36.9231 7.69874C36.9231 8.16007 36.7435 8.59386 36.4171 8.92003L35.4612 9.87599L31.9926 13.3445C31.6112 13.726 31.6112 14.3444 31.9926 14.726C32.1833 14.9166 32.4333 15.0121 32.6832 15.0121C32.9332 15.0121 33.1831 14.9167 33.3739 14.726L36.8424 11.2574C37.5158 10.584 38.6116 10.5839 39.2851 11.2573C39.9585 11.9309 39.9585 13.0266 39.2851 13.7001L38.329 14.6562L35.8165 17.1687C35.4351 17.5501 35.4351 18.1686 35.8165 18.5501C36.0073 18.7407 36.2573 18.8362 36.5072 18.8362C36.7571 18.8362 37.0071 18.7408 37.1978 18.5501L39.7103 16.0376C40.0366 15.7112 40.4703 15.5317 40.9316 15.5317C41.393 15.5317 41.8267 15.7112 42.153 16.0376C42.4792 16.3639 42.6588 16.7975 42.6588 17.2589C42.6588 17.7202 42.4792 18.154 42.1529 18.4802L40.8407 19.7924L39.6404 20.9927C39.2589 21.3741 39.2589 21.9926 39.6404 22.3741C39.8311 22.5648 40.0811 22.6603 40.331 22.6603C40.5809 22.6603 40.8309 22.5649 41.0216 22.3741L42.2228 21.173C42.8963 20.5006 43.9915 20.5007 44.6646 21.1738C45.3381 21.8473 45.3381 22.9431 44.6646 23.6166L35.1892 33.0919C32.8099 35.4713 29.6477 36.8487 26.2851 36.9708C26.0379 36.9798 25.8032 37.0822 25.6286 37.2576L16.8754 46.0432C16.4947 46.4253 16.4958 47.0438 16.878 47.4245C17.0685 47.6144 17.3179 47.7094 17.5673 47.7094C17.8178 47.7094 18.0685 47.6136 18.2592 47.422L24.6974 40.9601C26.3328 42.0092 28.256 42.508 30.2116 42.3787L35.2504 47.4177C35.4412 47.6083 35.6912 47.7038 35.9411 47.7038C36.1911 47.7038 36.441 47.6084 36.6317 47.4177C37.0131 47.0363 37.0131 46.4178 36.6317 46.0363L31.2743 40.6782C31.0714 40.4755 30.7896 40.3719 30.5038 40.3953L30.1941 40.4207C28.7647 40.5379 27.3518 40.2248 26.1182 39.5335L26.7459 38.9035C30.4584 38.6745 33.9342 37.1103 36.5716 34.4728ZM14.3936 27.9875C14.0673 28.3139 13.6335 28.4935 13.1723 28.4935C12.7109 28.4935 12.2772 28.3139 11.951 27.9875L9.31177 25.3484C8.63833 24.6749 8.63833 23.5791 9.31177 22.9056C9.63804 22.5792 10.0718 22.3996 10.5332 22.3996C10.9945 22.3996 11.4283 22.5792 11.7544 22.9056L14.3937 25.5447C15.067 26.2182 15.067 27.314 14.3936 27.9875ZM18.2177 24.1634C17.5442 24.8368 16.4482 24.8368 15.775 24.1634L13.1357 21.5241L11.8234 20.2118C11.15 19.5384 11.15 18.4426 11.8234 17.7692C12.1497 17.4428 12.5834 17.2632 13.0447 17.2632C13.5061 17.2632 13.9398 17.4428 14.266 17.7692L18.2174 21.7206C18.2174 21.7206 18.2174 21.7206 18.2175 21.7206C18.5439 22.047 18.7235 22.4807 18.7235 22.942C18.7235 23.4033 18.5439 23.8371 18.2177 24.1634ZM22.0416 20.3394C21.3681 21.0127 20.2722 21.0128 19.5989 20.3394L14.6914 15.4319C14.3651 15.1056 14.1855 14.672 14.1855 14.2106C14.1855 13.7492 14.3651 13.3154 14.6915 12.9893C15.0282 12.6526 15.4706 12.4842 15.9127 12.4842C16.3547 12.4842 16.7966 12.6524 17.1333 12.9885L19.37 15.2252L22.0415 17.8967H22.0416C22.3677 18.223 22.5473 18.6566 22.5473 19.118C22.5475 19.5794 22.3679 20.0132 22.0416 20.3394ZM25.8657 16.5153C25.1922 17.1888 24.0964 17.1888 23.423 16.5153L18.5155 11.6078C18.515 11.6073 18.5144 11.6069 18.5138 11.6063L17.5594 10.6519C16.886 9.97833 16.886 8.88263 17.5594 8.2091C17.8961 7.87228 18.3385 7.70392 18.7808 7.70392C19.2231 7.70392 19.6655 7.87228 20.0021 8.2091L25.8655 14.0725C26.1918 14.3987 26.3714 14.8324 26.3714 15.2938C26.3715 15.7553 26.192 16.1892 25.8657 16.5153ZM26.1225 11.5669L23.4397 8.8841C23.7439 8.94904 24.0567 8.98351 24.375 8.98341C24.3822 8.98341 24.3894 8.98341 24.3966 8.98341L27.0771 8.97081C27.6165 8.96828 28.0518 8.52892 28.0493 7.98947C28.0467 7.45158 27.6099 7.0173 27.0726 7.0173C27.071 7.0173 27.0695 7.0173 27.0679 7.0173L24.3874 7.0299C24.3833 7.0299 24.3794 7.0299 24.3753 7.0299C23.7149 7.0299 23.0937 6.77355 22.6253 6.30744C22.1541 5.83829 21.8946 5.21388 21.8946 4.54884V4.24474H28.5877C29.8451 4.24474 31.0575 4.77257 31.9141 5.69308L31.9539 5.73576L26.1225 11.5669Z" fill="#AB0520"/>
</g>
<defs>
<clipPath id="clip0">
<rect width="50" height="50" fill="white"/>
</clipPath>
</defs>
</svg>
