<svg width="50" height="42" viewBox="0 0 50 42" fill="none" xmlns="http://www.w3.org/2000/svg">
<g clip-path="url(#clip0)">
<path fill-rule="evenodd" clip-rule="evenodd" d="M35.0953 38.7966H3.04037C1.82907 38.7966 0.847473 37.8348 0.847473 36.6479V3.65715C0.847473 2.47026 1.82907 1.50845 3.04037 1.50845H35.0953C36.3061 1.50845 37.2882 2.47026 37.2882 3.65715V36.6479C37.2882 37.8348 36.3061 38.7966 35.0953 38.7966Z" stroke="#AB0520" stroke-width="1.5"/>
<path d="M6.03674 8.06212H32.0987" stroke="#AB0520" stroke-width="1.5"/>
<path d="M6.03674 12.5819H32.0987" stroke="#AB0520" stroke-width="1.5"/>
<path d="M6.03674 17.1017H32.0987" stroke="#AB0520" stroke-width="1.5"/>
<path d="M6.03674 21.6214H16.0118" stroke="#AB0520" stroke-width="1.5"/>
<path d="M36.4344 36.9149C36.728 37.2267 36.728 37.7308 36.4344 38.0426C36.1408 38.3545 35.6654 38.3553 35.3726 38.0426L25.3904 27.4404V33.4909C25.3904 33.9311 25.054 34.2884 24.6395 34.2884C24.225 34.2884 23.8885 33.9311 23.8885 33.4909V25.5151C23.8885 25.0764 24.2295 24.7175 24.6395 24.7175H32.1488C32.5633 24.7175 32.8998 25.0748 32.8998 25.5151C32.8998 25.9554 32.5633 26.3127 32.1488 26.3127H26.4522L36.4344 36.9149ZM49.8404 32.2381C49.8404 31.7978 49.504 31.4405 49.0895 31.4405C48.675 31.4405 48.3385 31.7978 48.3385 32.2381V38.2886L38.3562 27.6862C38.0625 27.3744 37.5879 27.3744 37.2943 27.6862C37.0007 27.9981 37.0007 28.5022 37.2943 28.814L47.2767 39.4165H41.58C41.1655 39.4165 40.829 39.7738 40.829 40.214C40.829 40.6543 41.1655 41.0116 41.58 41.0116H49.0895C49.5055 41.0116 49.8404 40.6463 49.8404 40.214V32.2381Z" fill="#AB0520"/>
</g>
<defs>
<clipPath id="clip0">
<rect width="50" height="40.678" fill="white" transform="translate(0 0.661011)"/>
</clipPath>
</defs>
</svg>
