<svg width="54" height="50" viewBox="0 0 54 50" fill="none" xmlns="http://www.w3.org/2000/svg">
<path d="M20.3199 37.253H2.90506C1.85315 37.253 1 36.3911 1 35.3274V2.92566C1 1.86197 1.85315 1 2.90506 1H30.7529C31.8048 1 32.6575 1.86197 32.6575 2.92566V23.4732" stroke="#AB0520" stroke-width="1.5"/>
<path d="M15.2101 7.88605H28.1496" stroke="#AB0520" stroke-width="1.5"/>
<path d="M15.2101 11.9367H28.1496" stroke="#AB0520" stroke-width="1.5"/>
<path d="M15.2101 15.9873H28.1496" stroke="#AB0520" stroke-width="1.5"/>
<path d="M15.2101 20.0379H20.1627" stroke="#AB0520" stroke-width="1.5"/>
<path d="M8.99951 18.2539V20.4712" stroke="#AB0520" stroke-width="1.5"/>
<path d="M8.99951 8.83599V6.61868" stroke="#AB0520" stroke-width="1.5"/>
<path d="M11.185 11.1406C11.185 11.1406 10.9658 9.0116 8.9994 9.0116C7.13482 9.0116 6.86993 10.6541 6.86993 11.1406C6.86993 13.7071 11.185 13.1218 11.185 15.7028C11.185 17.5981 9.83372 18.1117 8.9994 18.1117C8.25605 18.1117 6.86993 17.4527 6.86993 15.7028" stroke="#AB0520" stroke-width="1.5"/>
<path d="M21.3378 37.934V44.3048C27.531 50.5651 37.5717 50.5651 43.7645 44.3048V37.934" stroke="#AB0520" stroke-width="1.5"/>
<path fill-rule="evenodd" clip-rule="evenodd" d="M32.3203 23.5302L14.0458 33.0726C13.6824 33.2622 13.6824 33.7872 14.0458 33.9767L32.3203 43.5192C32.4649 43.5949 32.6376 43.5949 32.7823 43.5192L51.0567 33.9767C51.4202 33.7872 51.4202 33.2622 51.0567 33.0726L32.7823 23.5302C32.6376 23.4544 32.4649 23.4544 32.3203 23.5302Z" stroke="#AB0520" stroke-width="1.5"/>
<path d="M51.3292 33.5246V40.9652" stroke="#AB0520" stroke-width="1.5"/>
<path fill-rule="evenodd" clip-rule="evenodd" d="M53 42.9909C53 42.0585 52.2518 41.3022 51.3294 41.3022C50.4065 41.3022 49.6583 42.0585 49.6583 42.9909C49.6583 43.9238 50.4065 44.6796 51.3294 44.6796C52.2518 44.6796 53 43.9238 53 42.9909Z" stroke="#AB0520" stroke-width="1.5"/>
</svg>
