<svg width="56" height="57" viewBox="0 0 56 57" fill="none" xmlns="http://www.w3.org/2000/svg">
<path d="M55 25C55 11.7452 42.9117 1 28 1C13.0883 1 1 11.7452 1 25" stroke="#AB0520" stroke-width="2" stroke-linecap="round"/>
<path d="M19 25C19 21.6863 14.9706 19 10 19C5.02944 19 1 21.6863 1 25" stroke="#AB0520" stroke-width="2" stroke-linecap="round"/>
<path d="M37 25C37 21.6863 32.9706 19 28 19C23.0294 19 19 21.6863 19 25" stroke="#AB0520" stroke-width="2" stroke-linecap="round"/>
<path d="M55 25C55 21.6863 50.9706 19 46 19C41.0294 19 37 21.6863 37 25" stroke="#AB0520" stroke-width="2" stroke-linecap="round"/>
<path d="M1 25L22.5 44M55 25L33 44M37 25L30.25 42.25" stroke="#AB0520" stroke-width="2" stroke-linecap="round" stroke-linejoin="round"/>
<path d="M19 25L26 42.5" stroke="#AB0520" stroke-width="2" stroke-linecap="round" stroke-linejoin="round"/>
<path d="M28 38L30.7038 43.9646L37.5106 44.5643L32.3749 48.8504L33.8779 55.1857L28 51.87L22.1221 55.1857L23.6251 48.8504L18.4894 44.5643L25.2962 43.9646L28 38Z" stroke="#AB0520" stroke-width="2" stroke-linejoin="round"/>
</svg>
