<svg width="100" height="74" viewBox="0 0 100 74" fill="none" xmlns="http://www.w3.org/2000/svg">
<path d="M23.6708 65.6115H4.78506C3.20418 65.6115 1.9231 64.2828 1.9231 62.6431V4.89146C1.9231 3.2518 3.20418 1.92308 4.78506 1.92308H60.4663C62.0472 1.92308 63.3283 3.2518 63.3283 4.89146V24.4014" stroke="#AB0520" stroke-width="1.5" stroke-linecap="round"/>
<path d="M2.39917 16.4193H63.8043" stroke="#AB0520" stroke-width="1.5"/>
<g opacity="0.3">
<path opacity="0.3" d="M33.4532 61.9291H67.6894" stroke="#AB0520" stroke-width="1.5"/>
<path opacity="0.3" d="M33.4532 65.3708H46.5569" stroke="#AB0520" stroke-width="1.5"/>
<path opacity="0.3" d="M81.5492 67.7814L82.5276 65.7823M85.3358 67.7814L84.3574 65.7823M85.8472 63.3569C85.8472 61.9989 84.7706 60.898 83.4425 60.898C82.1144 60.898 81.0378 61.9989 81.0378 63.3569C81.0378 64.7149 82.1144 65.8158 83.4425 65.8158C84.7706 65.8158 85.8472 64.7149 85.8472 63.3569Z" stroke="#AB0520" stroke-width="1.5"/>
<path opacity="0.3" d="M89.6627 56.5811H30.3298C29.1003 56.5811 28.1036 57.5762 28.1036 58.8038V68.6169C28.1036 69.8445 29.1003 70.8397 30.3298 70.8397H89.6627C90.8922 70.8397 91.8889 69.8445 91.8889 68.6169V58.8038C91.8889 57.5762 90.8922 56.5811 89.6627 56.5811Z" stroke="#AB0520" stroke-width="1.5"/>
</g>
<path d="M27.4885 47.6648H70.5832" stroke="#AB0520" stroke-width="1.5"/>
<path d="M27.4885 51.9231H43.9827" stroke="#AB0520" stroke-width="1.5"/>
<path d="M90.3311 46.2821C88.6451 45.1133 86.332 45.3744 84.927 46.9794C83.3894 48.7358 83.5217 51.4364 85.2224 53.0115C86.9231 54.5865 89.5482 54.4396 91.0857 52.6832C91.5598 52.1417 91.8751 51.5104 92.0346 50.8501" stroke="#AB0520" stroke-width="1.5" stroke-linecap="round"/>
<path d="M94.8988 42.3225H24.6176C23.3882 42.3225 22.3915 43.3176 22.3915 44.5452V54.8336C22.3915 56.0612 23.3882 57.0564 24.6176 57.0564H94.8988C96.1282 57.0564 97.1249 56.0612 97.1249 54.8336V44.5452C97.1249 43.3176 96.1282 42.3225 94.8988 42.3225Z" stroke="#AB0520" stroke-width="1.5"/>
<path d="M86.5081 49.4898L88.411 51.447L92.9691 46.7587" stroke="#AB0520" stroke-width="1.5" stroke-linecap="round" stroke-linejoin="round"/>
<g opacity="0.3">
<path opacity="0.3" d="M33.4532 33.3633H67.6894" stroke="#AB0520" stroke-width="1.5"/>
<path opacity="0.3" d="M33.4532 36.5385H46.5569" stroke="#AB0520" stroke-width="1.5"/>
<path opacity="0.3" d="M81.5492 39.1668L82.5276 37.1844M85.3358 39.1668L84.3574 37.1844M85.8472 34.7792C85.8472 33.4325 84.7706 32.3408 83.4425 32.3408C82.1144 32.3408 81.0378 33.4325 81.0378 34.7792C81.0378 36.1259 82.1144 37.2176 83.4425 37.2176C84.7706 37.2176 85.8472 36.1259 85.8472 34.7792Z" stroke="#AB0520" stroke-width="1.5"/>
<path opacity="0.3" d="M89.6627 28.0639H30.3298C29.1003 28.0639 28.1036 29.059 28.1036 30.2866V40.0997C28.1036 41.3273 29.1003 42.3225 30.3298 42.3225H89.6627C90.8922 42.3225 91.8889 41.3273 91.8889 40.0997V30.2866C91.8889 29.059 90.8922 28.0639 89.6627 28.0639Z" stroke="#AB0520" stroke-width="1.5"/>
</g>
<path fill-rule="evenodd" clip-rule="evenodd" d="M9.61538 9.61538C9.61538 8.5532 8.75448 7.69231 7.6923 7.69231C6.63012 7.69231 5.76923 8.5532 5.76923 9.61538C5.76923 10.6776 6.63012 11.5385 7.6923 11.5385C8.75448 11.5385 9.61538 10.6776 9.61538 9.61538Z" stroke="#AB0520" stroke-width="1.5"/>
<path fill-rule="evenodd" clip-rule="evenodd" d="M17.3077 9.61538C17.3077 8.5532 16.4468 7.69231 15.3846 7.69231C14.3224 7.69231 13.4615 8.5532 13.4615 9.61538C13.4615 10.6776 14.3224 11.5385 15.3846 11.5385C16.4468 11.5385 17.3077 10.6776 17.3077 9.61538Z" stroke="#AB0520" stroke-width="1.5"/>
<path fill-rule="evenodd" clip-rule="evenodd" d="M25 9.61538C25 8.5532 24.1391 7.69231 23.0769 7.69231C22.0148 7.69231 21.1539 8.5532 21.1539 9.61538C21.1539 10.6776 22.0148 11.5385 23.0769 11.5385C24.1391 11.5385 25 10.6776 25 9.61538Z" stroke="#AB0520" stroke-width="1.5"/>
</svg>
