<svg width="56" height="57" viewBox="0 0 56 57" fill="none" xmlns="http://www.w3.org/2000/svg">
<path d="M32.5 17H1V56H47V41" stroke="#AB0520" stroke-width="2" stroke-linejoin="round"/>
<path d="M12 16V12C12 9.79086 13.7909 8 16 8H34" stroke="#AB0520" stroke-width="2" stroke-linejoin="round"/>
<path d="M33 11H24H16C15.4477 11 15 11.4477 15 12V16" stroke="#AB0520" stroke-width="2" stroke-linejoin="round"/>
<rect x="22" y="35" width="5" height="8" stroke="#AB0520" stroke-width="2" stroke-linejoin="round"/>
<path d="M26.9005 39.0049L36 38" stroke="#AB0520" stroke-width="2"/>
<line y1="-1" x2="20.0998" y2="-1" transform="matrix(-0.995037 -0.0995037 -0.0995037 0.995037 21 40)" stroke="#AB0520" stroke-width="2"/>
<path d="M36 23V43L43 38.8457L50 43C50 43 50 30.8105 50 23" stroke="#AB0520" stroke-width="2" stroke-linecap="round" stroke-linejoin="round"/>
<path d="M41.8878 2.98664C42.6116 2.40942 43.6384 2.40942 44.3622 2.98664V2.98664C44.865 3.38757 45.5308 3.52002 46.1488 3.342V3.342C47.0384 3.08571 47.987 3.47865 48.4348 4.28893V4.28893C48.7459 4.85174 49.3104 5.22892 49.9494 5.30092V5.30092C50.8694 5.40458 51.5954 6.13063 51.6991 7.05061V7.05061C51.7711 7.68961 52.1483 8.25411 52.7111 8.56517V8.56517C53.5214 9.013 53.9143 9.96162 53.658 10.8512V10.8512C53.48 11.4692 53.6124 12.135 54.0134 12.6378V12.6378C54.5906 13.3616 54.5906 14.3884 54.0134 15.1122V15.1122C53.6124 15.615 53.48 16.2808 53.658 16.8988V16.8988C53.9143 17.7884 53.5214 18.737 52.7111 19.1848V19.1848C52.1483 19.4959 51.7711 20.0604 51.6991 20.6994V20.6994C51.5954 21.6194 50.8694 22.3454 49.9494 22.4491V22.4491C49.3104 22.5211 48.7459 22.8983 48.4348 23.4611V23.4611C47.987 24.2714 47.0384 24.6643 46.1488 24.408V24.408C45.5308 24.23 44.865 24.3624 44.3622 24.7634V24.7634C43.6384 25.3406 42.6116 25.3406 41.8878 24.7634V24.7634C41.385 24.3624 40.7192 24.23 40.1012 24.408V24.408C39.2116 24.6643 38.263 24.2714 37.8152 23.4611V23.4611C37.5041 22.8983 36.9396 22.5211 36.3006 22.4491V22.4491C35.3806 22.3454 34.6546 21.6194 34.5509 20.6994V20.6994C34.4789 20.0604 34.1017 19.4959 33.5389 19.1848V19.1848C32.7286 18.737 32.3357 17.7884 32.592 16.8988V16.8988C32.77 16.2808 32.6376 15.615 32.2366 15.1122V15.1122C31.6594 14.3884 31.6594 13.3616 32.2366 12.6378V12.6378C32.6376 12.135 32.77 11.4692 32.592 10.8512V10.8512C32.3357 9.96162 32.7286 9.013 33.5389 8.56517V8.56517C34.1017 8.25411 34.4789 7.68961 34.5509 7.05061V7.05061C34.6546 6.13063 35.3806 5.40458 36.3006 5.30092V5.30092C36.9396 5.22892 37.5041 4.85174 37.8152 4.28893V4.28893C38.263 3.47865 39.2116 3.08571 40.1012 3.342V3.342C40.7192 3.52002 41.385 3.38757 41.8878 2.98664V2.98664Z" stroke="#AB0520" stroke-width="2"/>
<path d="M37.5 14.25L41.5739 18.25L48.75 10.75" stroke="#AB0520" stroke-width="2" stroke-linecap="round" stroke-linejoin="round"/>
</svg>
