<svg width="1500" height="371" viewBox="0 0 1500 371" fill="none" xmlns="http://www.w3.org/2000/svg">
<mask id="mask0" mask-type="alpha" maskUnits="userSpaceOnUse" x="0" y="0" width="1500" height="371">
<rect width="1500" height="371" fill="#0C234B"/>
</mask>
<g mask="url(#mask0)">
<rect y="-180" width="1500" height="551" fill="#0C234B"/>
<g opacity="0.5">
<path opacity="0.74" d="M145.325 70.0439L142.807 65.8532L147.695 65.7679L145.325 70.0439Z" fill="#E49829"/>
<circle cx="278.4" cy="61.7203" r="5.09087" transform="rotate(27 278.4 61.7203)" fill="#E49829"/>
<circle opacity="0.91" cx="52.3577" cy="209.868" r="4.3348" transform="rotate(26 52.3577 209.868)" fill="white"/>
<path opacity="0.74" d="M184.968 113.553C188.023 109.781 184.171 105.968 184.171 105.968L177.382 114.351C177.382 114.351 181.913 117.326 184.968 113.553Z" fill="#E49829"/>
<rect opacity="0.78" x="282.223" y="192.982" width="6.7139" height="5.59492" transform="rotate(-70 282.223 192.982)" fill="#E49829"/>
<rect x="588.157" y="-14.2549" width="5.04047" height="36.2914" transform="rotate(-53.9442 588.157 -14.2549)" fill="#E49829"/>
<rect x="758.043" y="105.278" width="6.04856" height="5.04047" fill="white"/>
<rect x="720.745" y="267.581" width="6.04856" height="5.04047" fill="#E49829"/>
<rect x="690.501" y="204.071" width="10.0809" height="3.02428" fill="white"/>
<rect x="814.497" y="102.253" width="10.0809" height="3.02428" fill="#E49829"/>
<path d="M805.928 192.982L808.111 196.762H803.745L805.928 192.982Z" fill="white"/>
<path d="M836.171 157.699L838.354 161.479H833.989L836.171 157.699Z" fill="#E49829"/>
<path d="M806.433 179.877L808.179 187.438H804.687L806.433 179.877Z" fill="white"/>
<path d="M695.542 140.561L697.288 148.122H693.796L695.542 140.561Z" fill="#E49829"/>
<rect opacity="0.78" x="330.612" y="88.5435" width="11.089" height="3.32671" transform="rotate(31 330.612 88.5435)" fill="white"/>
<path opacity="0.78" d="M724.973 -0.886029C723.378 -2.65794 721.231 -1.08211 721.231 -1.08211L724.777 2.85547C724.777 2.85547 726.568 0.885882 724.973 -0.886029Z" fill="#E49829"/>
<path opacity="0.97" d="M205.862 133.901L207.975 129.155L211.028 133.358L205.862 133.901Z" fill="white"/>
<path opacity="0.75" d="M353.199 211.931L348.041 206.773L350.825 205.034L353.199 211.931Z" fill="#E49829"/>
<circle opacity="0.94" cx="508.913" cy="232.166" r="4.53088" transform="rotate(85 508.913 232.166)" fill="#E49829"/>
<circle opacity="0.74" cx="1044.43" cy="104.266" r="4.99006" transform="rotate(-169 1044.43 104.266)" fill="#E49829"/>
<rect opacity="0.93" x="1382.05" y="157.497" width="4.53642" height="32.6622" transform="rotate(-105 1382.05 157.497)" fill="#E49829"/>
<path opacity="0.85" d="M276.214 301.453L279.39 304.858L277.575 305.905L276.214 301.453Z" fill="#E49829"/>
<path opacity="0.99" d="M602.716 306.85L609.106 313.019L605.753 315.196L602.716 306.85Z" fill="white"/>
<rect opacity="0.87" x="1121.97" y="258.71" width="6.51249" height="5.42707" transform="rotate(47 1121.97 258.71)" fill="#E49829"/>
<path opacity="0.79" d="M1281.04 374.203L1281.28 369.614L1285.13 372.117L1281.04 374.203Z" fill="#E49829"/>
<path opacity="0.97" d="M317.012 0.192841L313.193 7.08305L310.559 4.71083L317.012 0.192841Z" fill="#E49829"/>
<path opacity="0.95" d="M717.315 3.4786C714.691 3.94125 714.914 6.90799 714.914 6.90799L720.745 5.87988C720.745 5.87988 719.939 3.01595 717.315 3.4786Z" fill="white"/>
<path opacity="0.78" d="M1065.7 6.09905L1064.17 3.22156L1065.59 2.84195L1065.7 6.09905Z" fill="#E49829"/>
<path opacity="0.88" d="M24.9186 89.7287L24.9799 93.2421L21.9065 91.5385L24.9186 89.7287Z" fill="#E49829"/>
<rect opacity="0.74" x="208.632" y="26.2435" width="6.95584" height="2.08675" transform="rotate(6 208.632 26.2435)" fill="white"/>
<path opacity="0.73" d="M425.723 67.4084L421.741 70.4096L421.133 65.4599L425.723 67.4084Z" fill="#E49829"/>
<path opacity="0.95" d="M449.164 52.0122L443.782 55.6427L442.735 52.9152L449.164 52.0122Z" fill="#E49829"/>
<path opacity="0.97" d="M692.702 78.1881C689.85 74.2615 685.17 76.995 685.17 76.995L691.509 85.7207C691.509 85.7207 695.555 82.1146 692.702 78.1881Z" fill="#E49829"/>
<path d="M878.957 66.302L878.666 68.3717L877.019 67.0849L878.957 66.302Z" fill="white"/>
<path opacity="0.7" d="M1016.41 77.5741C1014.24 74.229 1010.28 76.271 1010.28 76.271L1015.11 83.7045C1015.11 83.7045 1018.58 80.9191 1016.41 77.5741Z" fill="#E49829"/>
<circle opacity="0.73" cx="1187.21" cy="69.4154" r="4.58178" transform="rotate(20 1187.21 69.4154)" fill="#E49829"/>
<circle opacity="0.94" cx="1319.49" cy="82.6216" r="4.27633" transform="rotate(36 1319.49 82.6216)" fill="#E49829"/>
<path opacity="0.91" d="M1407.92 37.2034L1405.2 40.4491L1404.05 38.9264L1407.92 37.2034Z" fill="#E49829"/>
<path opacity="0.86" d="M88.3959 99.9643C87.333 97.3335 84.2918 98.2222 84.2918 98.2222L86.6538 104.068C86.6538 104.068 89.4588 102.595 88.3959 99.9643Z" fill="#E49829"/>
<path opacity="0.71" d="M261.442 151.843C260.433 149.578 257.804 150.447 257.804 150.447L260.045 155.481C260.045 155.481 262.45 154.109 261.442 151.843Z" fill="white"/>
<path opacity="0.9" d="M294.373 118.397L288.957 115.872L290.613 113.753L294.373 118.397Z" fill="white"/>
<path opacity="0.83" d="M532.591 109.51C531.572 111.798 534 113.183 534 113.183L536.263 108.101C536.263 108.101 533.609 107.223 532.591 109.51Z" fill="#E49829"/>
<path opacity="0.77" d="M642.226 95.8533C637.672 93.9206 635.019 98.765 635.019 98.765L645.137 103.06C645.137 103.06 646.779 97.7861 642.226 95.8533Z" fill="white"/>
<path opacity="0.89" d="M826.235 166.465L834.748 167.06L833.625 170.733L826.235 166.465Z" fill="#E49829"/>
<circle opacity="0.85" cx="1015.9" cy="109.314" r="3.81463" transform="rotate(122 1015.9 109.314)" fill="white"/>
<path opacity="0.83" d="M1145.2 140.676L1140.64 137.361L1145.79 135.067L1145.2 140.676Z" fill="#E49829"/>
<circle opacity="0.79" cx="1248.98" cy="153.518" r="4.49106" transform="rotate(-63 1248.98 153.518)" fill="#E49829"/>
<circle opacity="0.5" cx="1496.23" cy="127.228" r="3.42752" transform="rotate(174 1496.23 127.228)" fill="#0C234B"/>
<rect opacity="0.77" x="48.3462" y="192.982" width="7.74986" height="6.45821" transform="rotate(98 48.3462 192.982)" fill="#E49829"/>
<path opacity="0.91" d="M243.516 190.444C243.554 192.657 246.018 192.86 246.018 192.86L245.932 187.941C245.932 187.941 243.477 188.23 243.516 190.444Z" fill="white"/>
<rect opacity="0.98" x="370.936" y="197.014" width="11.5931" height="3.47792" transform="rotate(-159 370.936 197.014)" fill="#E49829"/>
<path opacity="0.88" d="M497.068 216.133C497.56 219.239 501.065 219.038 501.065 219.038L499.972 212.136C499.972 212.136 496.576 213.027 497.068 216.133Z" fill="white"/>
<path opacity="0.7" d="M663.504 202.704L663.127 197.315L667.983 199.683L663.504 202.704Z" fill="white"/>
<circle opacity="0.82" cx="860.427" cy="178.685" r="4.05304" transform="rotate(-57 860.427 178.685)" fill="white"/>
<circle opacity="0.91" cx="1035.79" cy="220.384" r="3.84235" transform="rotate(61 1035.79 220.384)" fill="#E49829"/>
<path opacity="0.9" d="M1133.51 181.773L1137.26 178.735L1138.22 180.687L1133.51 181.773Z" fill="white"/>
<rect opacity="0.74" x="1254.03" y="233.306" width="4.58178" height="32.9888" transform="rotate(13 1254.03 233.306)" fill="#E49829"/>
<rect opacity="0.75" x="1403.22" y="207.095" width="9.75834" height="2.9275" transform="rotate(-104 1403.22 207.095)" fill="white"/>
<path opacity="0.5" d="M1.1392 324.324C2.16447 326.1 4.25152 325.158 4.25152 325.158L1.97314 321.211C1.97314 321.211 0.113935 322.548 1.1392 324.324Z" fill="#E49829"/>
<path opacity="0.89" d="M225.016 268.205C228.041 270.095 230.478 266.943 230.478 266.943L223.754 262.742C223.754 262.742 221.99 266.314 225.016 268.205Z" fill="#E49829"/>
<path opacity="0.87" d="M396.116 262.313C393.644 260.768 391.654 263.343 391.654 263.343L397.146 266.774C397.146 266.774 398.587 263.857 396.116 262.313Z" fill="#E49829"/>
<path opacity="0.98" d="M581.21 281.022C580.629 283.539 583.361 284.465 583.361 284.465L584.652 278.872C584.652 278.872 581.791 278.506 581.21 281.022Z" fill="#E49829"/>
<path opacity="0.89" d="M698.453 259.942L694.608 264.366L693.057 262.232L698.453 259.942Z" fill="white"/>
<path opacity="0.72" d="M874.31 260.618C876.227 259.511 875.21 257.258 875.21 257.258L870.95 259.718C870.95 259.718 872.393 261.725 874.31 260.618Z" fill="white"/>
<path opacity="0.81" d="M947.333 275.615C950.754 275.615 951.134 271.815 951.134 271.815H943.533C943.533 271.815 943.913 275.615 947.333 275.615Z" fill="white"/>
<path d="M1154.65 287.749L1154 281.609L1156.76 281.948L1154.65 287.749Z" fill="white"/>
<path opacity="0.88" d="M1219.29 302.841L1224.39 303.832L1223.44 305.967L1219.29 302.841Z" fill="white"/>
<circle opacity="0.99" cx="1427.92" cy="319.351" r="3.91997" transform="rotate(100 1427.92 319.351)" fill="#E49829"/>
<rect opacity="0.94" x="31.2085" y="338.551" width="11.4923" height="3.44768" transform="rotate(-160 31.2085 338.551)" fill="#E49829"/>
<rect opacity="0.84" x="433.438" y="329.478" width="4.3348" height="31.2106" transform="rotate(-38 433.438 329.478)" fill="#E49829"/>
<path opacity="0.98" d="M835.269 346.103C833.045 344.237 830.724 346.501 830.724 346.501L835.666 350.648C835.666 350.648 837.493 347.969 835.269 346.103Z" fill="white"/>
</g>
</g>
</svg>