<svg width="32" height="32" viewBox="0 0 32 32" fill="none" xmlns="http://www.w3.org/2000/svg"><path d="M27.001 9.00006H5.00098C4.44869 9.00006 4.00098 9.44778 4.00098 10.0001V26.0001C4.00098 26.5523 4.44869 27.0001 5.00098 27.0001H27.001C27.5533 27.0001 28.001 26.5523 28.001 26.0001V10.0001C28.001 9.44778 27.5533 9.00006 27.001 9.00006Z" stroke="black" stroke-width="2" stroke-linecap="round" stroke-linejoin="round"/><path d="M21 9.00006V7.00006C21 6.46963 20.7893 5.96092 20.4142 5.58585C20.0391 5.21077 19.5304 5.00006 19 5.00006H13C12.4696 5.00006 11.9609 5.21077 11.5858 5.58585C11.2107 5.96092 11 6.46963 11 7.00006V9.00006" stroke="black" stroke-width="2" stroke-linecap="round" stroke-linejoin="round"/><path d="M28.0012 15.7886C24.354 17.8987 20.2137 19.0066 16.0002 19C11.7873 19.0066 7.64768 17.8991 4.00098 15.7897" stroke="black" stroke-width="2" stroke-linecap="round" stroke-linejoin="round"/><path d="M14.5 15.0001H17.5" stroke="black" stroke-width="2" stroke-linecap="round" stroke-linejoin="round"/></svg>