<svg width="32" height="32" viewBox="0 0 32 32" fill="none" xmlns="http://www.w3.org/2000/svg"><path d="M15.999 22.0001C21.5219 22.0001 25.999 17.5229 25.999 12.0001C25.999 6.47721 21.5219 2.00006 15.999 2.00006C10.4762 2.00006 5.99902 6.47721 5.99902 12.0001C5.99902 17.5229 10.4762 22.0001 15.999 22.0001Z" stroke="black" stroke-width="2" stroke-linecap="round" stroke-linejoin="round"/><path d="M15.999 18.0001C19.3127 18.0001 21.999 15.3138 21.999 12.0001C21.999 8.68635 19.3127 6.00006 15.999 6.00006C12.6853 6.00006 9.99902 8.68635 9.99902 12.0001C9.99902 15.3138 12.6853 18.0001 15.999 18.0001Z" stroke="black" stroke-width="2" stroke-linecap="round" stroke-linejoin="round"/><path d="M22 19.9994V30.0001L15.9991 27.0001L10 30.0001V20.0003" stroke="black" stroke-width="2" stroke-linecap="round" stroke-linejoin="round"/></svg>