<svg width="32" height="32" viewBox="0 0 32 32" fill="none" xmlns="http://www.w3.org/2000/svg"><path d="M26.2812 4.48488L2.99026 11.0541C2.79432 11.1094 2.61991 11.2231 2.49035 11.3802C2.36079 11.5372 2.28225 11.7301 2.26522 11.9329C2.2482 12.1358 2.2935 12.3391 2.39507 12.5155C2.49664 12.6919 2.64965 12.8332 2.83363 12.9203L13.535 17.9894C13.7437 18.0882 13.9118 18.2563 14.0106 18.465L19.0797 29.1664C19.1669 29.3504 19.3081 29.5034 19.4845 29.6049C19.661 29.7065 19.8642 29.7518 20.0671 29.7348C20.2699 29.7178 20.4628 29.6392 20.6198 29.5097C20.7769 29.3801 20.8906 29.2057 20.9459 29.0098L27.5151 5.71879C27.5634 5.5477 27.5652 5.36685 27.5203 5.19484C27.4754 5.02284 27.3855 4.86592 27.2598 4.74022C27.1341 4.61452 26.9772 4.52461 26.8052 4.47973C26.6332 4.43484 26.4523 4.43662 26.2812 4.48488Z" stroke="black" stroke-width="2" stroke-linecap="round" stroke-linejoin="round"/><path d="M13.8574 18.1423L19.5143 12.4854" stroke="black" stroke-width="2" stroke-linecap="round" stroke-linejoin="round"/></svg>