<svg width="42" height="42" viewBox="0 0 42 42" fill="none" xmlns="http://www.w3.org/2000/svg">
<path d="M32.8248 40.2857L39.5151 29.4181C40.4855 27.8417 40.9994 26.0269 40.9994 24.1757V11.503C40.9994 10.2875 40.014 9.30212 38.7985 9.30212V9.30212C37.583 9.30212 36.5977 10.2875 36.5977 11.503V23.0472C36.5977 24.3684 36.0747 25.636 35.143 26.5728L30.3096 31.4333" stroke="white" stroke-width="2" stroke-linecap="round"/>
<path d="M23.3926 40.2857L25.742 30.6289C26.1535 28.9374 27.1806 27.4598 28.6228 26.4847L32.5994 23.7961C33.5509 23.1527 34.8514 23.4951 35.3628 24.5236V24.5236C35.725 25.2522 35.5827 26.1306 35.009 26.7076L30.3095 31.4333" stroke="white" stroke-width="2" stroke-linecap="round"/>
<path d="M9.88808 40.2857L3.19782 29.4181C2.22737 27.8417 1.71353 26.0269 1.71353 24.1757V11.503C1.71353 10.2875 2.69888 9.30212 3.91437 9.30212V9.30212C5.12986 9.30212 6.11521 10.2875 6.11521 11.503V23.0472C6.11521 24.3684 6.63818 25.636 7.56986 26.5728L12.4033 31.4333" stroke="white" stroke-width="2" stroke-linecap="round"/>
<path d="M19.3203 40.2857L16.9709 30.6289C16.5594 28.9374 15.5323 27.4598 14.0901 26.4847L10.1135 23.7961C9.16196 23.1527 7.86153 23.4951 7.35013 24.5236V24.5236C6.98785 25.2522 7.13015 26.1306 7.70392 26.7076L12.4034 31.4333" stroke="white" stroke-width="2" stroke-linecap="round"/>
<ellipse cx="21.061" cy="11.8314" rx="10.061" ry="10.1171" stroke="white" stroke-width="2" stroke-linecap="round"/>
<path d="M24.5706 9.02199V9.02199C24.5706 7.74748 23.5374 6.71429 22.2629 6.71429H19.6538C18.4244 6.71429 17.4277 7.71092 17.4277 8.94031V8.94031C17.4277 9.90605 18.0504 10.7616 18.9694 11.0585L23.0289 12.3701C23.9479 12.667 24.5706 13.5225 24.5706 14.4883V14.4883C24.5706 15.7177 23.574 16.7143 22.3446 16.7143H19.7354C18.4609 16.7143 17.4277 15.6811 17.4277 14.4066V14.4066" stroke="white" stroke-width="2" stroke-linecap="round"/>
<line x1="21.2852" y1="17" x2="21.2852" y2="17.8571" stroke="white" stroke-width="2" stroke-linecap="round"/>
<line x1="21.2852" y1="5.57141" x2="21.2852" y2="6.42855" stroke="white" stroke-width="2" stroke-linecap="round"/>
</svg>
