<svg width="42" height="40" viewBox="0 0 42 40" fill="none" xmlns="http://www.w3.org/2000/svg">
<path d="M8.71387 20.5791V27.0755C15.0292 33.4591 25.2678 33.4591 31.5827 27.0755V20.5791" stroke="white" stroke-width="2"/>
<path fill-rule="evenodd" clip-rule="evenodd" d="M19.9126 5.89118L1.27797 15.6217C0.907344 15.815 0.907344 16.3503 1.27797 16.5436L19.9126 26.2742C20.0601 26.3514 20.2362 26.3514 20.3837 26.2742L39.0183 16.5436C39.389 16.3503 39.389 15.815 39.0183 15.6217L20.3837 5.89118C20.2362 5.81394 20.0601 5.81394 19.9126 5.89118Z" stroke="white" stroke-width="2"/>
<path d="M39.2959 16.0828V23.67" stroke="white" stroke-width="2"/>
<path fill-rule="evenodd" clip-rule="evenodd" d="M41.0003 25.7357C41.0003 24.7848 40.2374 24.0137 39.2967 24.0137C38.3557 24.0137 37.5928 24.7848 37.5928 25.7357C37.5928 26.6869 38.3557 27.4576 39.2967 27.4576C40.2374 27.4576 41.0003 26.6869 41.0003 25.7357Z" fill="white" stroke="white" stroke-width="2"/>
</svg>
