<svg width="32" height="33" viewBox="0 0 32 33" fill="none" xmlns="http://www.w3.org/2000/svg">
<rect y="0.599609" width="32" height="32" rx="16" fill="#0C234B"/>
<g clip-path="url(#clip0)">
<path d="M24 16.5996C24 12.1813 20.4183 8.59961 16 8.59961C11.5817 8.59961 8 12.1813 8 16.5996C8 20.5926 10.9255 23.9023 14.75 24.5024V18.9121H12.7188V16.5996H14.75V14.8371C14.75 12.8321 15.9444 11.7246 17.7717 11.7246C18.6467 11.7246 19.5625 11.8809 19.5625 11.8809V13.8496H18.5538C17.56 13.8496 17.25 14.4663 17.25 15.0996V16.5996H19.4688L19.1141 18.9121H17.25V24.5024C21.0745 23.9023 24 20.5926 24 16.5996Z" fill="#F1F1F0"/>
</g>
<defs>
<clipPath id="clip0">
<rect width="16" height="16" fill="white" transform="translate(8 8.59961)"/>
</clipPath>
</defs>
</svg>
