<svg width="16" height="16" viewBox="0 0 16 16" fill="none" xmlns="http://www.w3.org/2000/svg">
<path d="M15.0446 7.61343L13.4998 8.38586L11.4998 4.55573L13.0603 3.77544C13.1776 3.71682 13.3132 3.70659 13.4379 3.74694C13.5626 3.7873 13.6665 3.87502 13.7272 3.99122L15.2642 6.93478C15.295 6.99364 15.3137 7.05804 15.3192 7.1242C15.3248 7.19037 15.3172 7.25698 15.2967 7.32016C15.2763 7.38333 15.2435 7.4418 15.2002 7.49216C15.1569 7.54251 15.104 7.58374 15.0446 7.61343V7.61343Z" stroke="white" stroke-linecap="round" stroke-linejoin="round"/>
<path d="M2.49971 8.31555L0.95486 7.54312C0.895469 7.51343 0.842588 7.4722 0.799303 7.42185C0.756018 7.37149 0.723197 7.31302 0.702753 7.24985C0.68231 7.18667 0.674655 7.12006 0.680235 7.05389C0.685816 6.98773 0.704519 6.92333 0.735254 6.86447L2.27231 3.92091C2.33299 3.80471 2.43687 3.71699 2.56159 3.67663C2.68631 3.63627 2.82188 3.64651 2.93913 3.70513L4.49971 4.48542L2.49971 8.31555Z" stroke="white" stroke-linecap="round" stroke-linejoin="round"/>
<path d="M13.4998 8.38388L12.4998 9.55376L10.1999 11.8536C10.1389 11.9146 10.0631 11.9588 9.97985 11.9819C9.89664 12.0049 9.80888 12.006 9.72511 11.9851L6.10281 11.0795C6.03486 11.0625 5.97125 11.0315 5.91608 10.9883L2.49976 8.31689" stroke="white" stroke-linecap="round" stroke-linejoin="round"/>
<path d="M12.4998 9.55383L9.74978 7.55383L8.94978 8.15383C8.60359 8.41348 8.18252 8.55383 7.74978 8.55383C7.31704 8.55383 6.89598 8.41348 6.54978 8.15383L6.21099 7.89974C6.15368 7.85675 6.10627 7.80196 6.07198 7.73906C6.0377 7.67617 6.01732 7.60664 6.01224 7.53518C6.00717 7.46372 6.0175 7.39201 6.04255 7.3249C6.0676 7.25778 6.10678 7.19684 6.15743 7.14618L8.60334 4.70028C8.64976 4.65385 8.70488 4.61702 8.76555 4.59189C8.82621 4.56677 8.89123 4.55383 8.95689 4.55383H11.4998" stroke="white" stroke-linecap="round" stroke-linejoin="round"/>
<path d="M4.53552 4.48682L7.74302 3.55172C7.8576 3.51832 7.98035 3.527 8.08908 3.5762L10.2496 4.5538" stroke="white" stroke-linecap="round" stroke-linejoin="round"/>
<path d="M6.99976 13.3038L5.11604 12.8329C5.0396 12.8138 4.96876 12.7769 4.90929 12.7252L3.49976 11.5" stroke="white" stroke-linecap="round" stroke-linejoin="round"/>
</svg>
