<svg width="40" height="40" viewBox="0 0 40 40" fill="none" xmlns="http://www.w3.org/2000/svg">
<path d="M10.2501 9.16678C10.2501 11.0308 8.73901 12.5418 6.87503 12.5418C5.01105 12.5418 3.5 11.0308 3.5 9.16678C3.5 7.3028 5.01105 5.79175 6.87503 5.79175C8.73901 5.79175 10.2501 7.3028 10.2501 9.16678Z" stroke="white" stroke-width="2" stroke-linecap="round" stroke-linejoin="round"/>
<path d="M36.5001 9.16678C36.5001 11.0308 34.989 12.5418 33.125 12.5418C31.2611 12.5418 29.75 11.0308 29.75 9.16678C29.75 7.3028 31.2611 5.79175 33.125 5.79175C34.989 5.79175 36.5001 7.3028 36.5001 9.16678Z" stroke="white" stroke-width="2" stroke-linecap="round" stroke-linejoin="round"/>
<path d="M36.5001 31.0421C36.5001 32.9061 34.989 34.4172 33.125 34.4172C31.2611 34.4172 29.75 32.9061 29.75 31.0421C29.75 29.1782 31.2611 27.6671 33.125 27.6671C34.989 27.6671 36.5001 29.1782 36.5001 31.0421Z" stroke="white" stroke-width="2" stroke-linecap="round" stroke-linejoin="round"/>
<path d="M10.2501 31.0421C10.2501 32.9061 8.73901 34.4172 6.87503 34.4172C5.01105 34.4172 3.5 32.9061 3.5 31.0421C3.5 29.1782 5.01105 27.6671 6.87503 27.6671C8.73901 27.6671 10.2501 29.1782 10.2501 31.0421Z" stroke="white" stroke-width="2" stroke-linecap="round" stroke-linejoin="round"/>
<path d="M34.9762 12.5558C36.0717 14.7294 36.6904 17.1339 36.7637 19.6076C36.847 22.4189 36.2219 25.1828 34.9746 27.6562" stroke="white" stroke-width="2" stroke-linecap="round"/>
<path d="M4.94532 12.7139C4.1939 14.2446 3.67414 15.8933 3.41606 17.6077M4.98683 27.7125C4.213 26.1583 3.67883 24.4805 3.41602 22.7347M9.95065 6.67774C13.1214 4.30442 17.0368 3.12557 21.004 3.36347C24.3219 3.56244 27.4855 4.74095 30.1078 6.72146M10.2353 33.7394C13.6405 36.1781 17.835 37.2543 21.9936 36.7564C24.9418 36.4035 27.7207 35.2775 30.0625 33.5213" stroke="white" stroke-width="2" stroke-linecap="round"/>
<path d="M23.4865 14.2602C23.4865 16.1023 21.9931 17.5957 20.1509 17.5957C18.3088 17.5957 16.8154 16.1023 16.8154 14.2602C16.8154 12.418 18.3088 10.9247 20.1509 10.9247C21.9931 10.9247 23.4865 12.418 23.4865 14.2602Z" stroke="white" stroke-width="2" stroke-linecap="round" stroke-linejoin="round"/>
<path d="M25.8337 27.1468V26.4176C25.8337 23.1959 23.222 20.5842 20.0004 20.5842V20.5842C16.7787 20.5842 14.167 23.1959 14.167 26.4176V27.1468" stroke="white" stroke-width="2" stroke-linecap="round"/>
</svg>
