<svg width="32" height="28" viewBox="0 0 80 69" fill="none" xmlns="http://www.w3.org/2000/svg">
    <path fill-rule="evenodd" clip-rule="evenodd" d="M63.34 68.44C72.544 68.44 79.624 61.124 79.624 52.156C79.624 43.188 73.016 36.816 64.992 36.108C65.464 24.544 71.836 14.16 78.444 7.552L70.42 0C50.832 10.856 46.112 33.04 46.112 44.368C46.112 56.404 50.832 68.44 63.34 68.44ZM17.32 68.44C26.288 68.44 33.604 61.124 33.604 52.156C33.604 43.188 26.996 36.816 18.736 36.108C19.444 24.544 25.58 14.16 32.424 7.552L24.4 0C4.57598 10.856 0.09198 33.04 0.09198 44.368C0.09198 56.404 4.81198 68.44 17.32 68.44Z" fill="#666"/>
</svg>