<svg width="32" height="33" viewBox="0 0 32 33" fill="none" xmlns="http://www.w3.org/2000/svg">
<rect y="0.599609" width="32" height="32" rx="16" fill="#0C234B"/>
<g clip-path="url(#clip0)">
<path d="M13.0334 23.1001C19.0697 23.1001 22.3722 18.0979 22.3722 13.7613C22.3722 13.6207 22.3691 13.477 22.3628 13.3363C23.0052 12.8717 23.5597 12.2963 24 11.637C23.4017 11.9032 22.7664 12.077 22.1159 12.1526C22.8009 11.742 23.3137 11.0971 23.5594 10.3373C22.915 10.7191 22.2104 10.9885 21.4756 11.1338C20.9806 10.6078 20.326 10.2595 19.6131 10.1428C18.9003 10.0261 18.1688 10.1475 17.5318 10.4882C16.8949 10.8289 16.3879 11.3699 16.0892 12.0276C15.7906 12.6854 15.717 13.4232 15.8797 14.127C14.575 14.0615 13.2986 13.7226 12.1333 13.1322C10.968 12.5418 9.9398 11.7131 9.11531 10.6998C8.69627 11.4223 8.56804 12.2772 8.75669 13.0908C8.94534 13.9045 9.43671 14.6157 10.1309 15.0801C9.60975 15.0635 9.09998 14.9232 8.64375 14.6707V14.7113C8.64328 15.4695 8.9054 16.2045 9.38554 16.7913C9.86568 17.3781 10.5342 17.7805 11.2775 17.9301C10.7947 18.0622 10.288 18.0814 9.79656 17.9863C10.0063 18.6384 10.4144 19.2087 10.9638 19.6177C11.5133 20.0266 12.1767 20.2538 12.8616 20.2676C11.6989 21.1808 10.2628 21.6762 8.78438 21.6738C8.52219 21.6734 8.26027 21.6574 8 21.6257C9.5019 22.5893 11.249 23.101 13.0334 23.1001Z" fill="#F1F1F0"/>
</g>
<defs>
<clipPath id="clip0">
<rect width="16" height="16" fill="white" transform="translate(8 8.59961)"/>
</clipPath>
</defs>
</svg>
