<svg width="181" height="32" viewBox="0 0 181 32" fill="none" xmlns="http://www.w3.org/2000/svg">
<path fill-rule="evenodd" clip-rule="evenodd" d="M176.815 27.2242C179.074 27.2242 180.862 26.1888 180.862 23.9693C180.862 21.798 179.496 21.1898 178.18 20.7627C177.085 20.4173 176.41 20.2852 176.41 19.7588C176.41 19.3645 176.747 19.1506 177.592 19.1506C178.586 19.1506 179.58 19.4631 180.154 19.726V17.1778C179.462 16.9304 178.552 16.7172 177.338 16.7172C175.045 16.7172 173.342 17.6875 173.342 19.8909C173.342 21.6009 174.302 22.439 175.332 22.8676C176.984 23.5575 177.641 23.4758 177.641 24.1C177.641 24.4782 177.287 24.7739 176.241 24.7739C175.147 24.7739 174.235 24.3957 173.393 24.0182V26.5992C174.302 26.9942 175.366 27.2242 176.815 27.2242ZM166.817 27.2242C169.699 27.2242 171.352 26.0896 171.352 23.0976V16.8486H168.436V23.0808C168.436 24.0832 167.947 24.7411 166.817 24.7411C165.688 24.7411 165.199 24.0832 165.199 23.0808V16.8486H162.097V23.0976C162.097 26.0896 163.933 27.2242 166.817 27.2242ZM155.1 21.7008V19.2324H155.976C156.852 19.2324 157.224 19.677 157.224 20.4502C157.224 21.2555 156.836 21.7008 155.976 21.7008H155.1ZM151.997 27.0934H155.1V23.919H156.262C158.842 23.919 160.343 22.4887 160.343 20.4502C160.343 18.2957 158.842 16.8486 156.381 16.8486H151.997V27.0934ZM136.418 27.0934H139.166L139.638 22.6537C139.688 22.0937 139.756 21.1395 139.772 20.7291H139.806C139.874 21.1569 140.026 21.9637 140.178 22.5544L141.341 27.0934H144.68L145.877 22.4887C146.029 21.9126 146.146 21.222 146.214 20.7291H146.247C146.281 21.2387 146.332 21.9791 146.399 22.5712L146.904 27.0934H149.906L148.507 16.8486H144.813L143.516 22.3244C143.381 22.8836 143.263 23.5743 143.179 24.1175H143.144C143.06 23.5575 142.942 22.8997 142.808 22.3412L141.493 16.8486H137.784L136.418 27.0934ZM128.812 23.1465L129.521 20.9759C129.657 20.5655 129.757 20.1866 129.876 19.7756H129.909C130.011 20.1866 130.112 20.5481 130.264 20.9759L130.972 23.1465H128.812ZM124.312 27.0934H127.497L128.021 25.5478H131.764L132.27 27.0934H135.626L131.663 16.8486H128.291L124.312 27.0934ZM120.585 27.2242C122.119 27.2242 122.709 26.9774 123.351 26.6985V24.0504C122.742 24.4293 122.035 24.7082 120.889 24.7082C119.473 24.7082 118.546 23.87 118.546 22.0937C118.546 20.0552 119.473 19.2324 120.922 19.2324C121.952 19.2324 122.794 19.4631 123.316 19.7588V17.2107C122.676 16.98 121.933 16.7172 120.534 16.7172C116.893 16.7172 115.257 19.1835 115.257 22.0937C115.257 24.9221 116.977 27.2242 120.585 27.2242ZM102.831 27.0934H109.575V24.6754H105.933V16.8486H102.831V27.0934ZM94.6208 23.1465L95.3283 20.9759C95.4631 20.5655 95.5642 20.1866 95.6824 19.7756H95.7154C95.8179 20.1866 95.9183 20.5481 96.0695 20.9759L96.7785 23.1465H94.6208ZM90.1191 27.0934H93.3054L93.8273 25.5478H97.5699L98.076 27.0934H101.433L97.4702 16.8486H94.0975L90.1191 27.0934ZM83.8131 24.7907V22.8347H84.8747C85.5829 22.8347 86.0044 23.1633 86.0044 23.8036C86.0044 24.4454 85.5829 24.7907 84.8747 24.7907H83.8131ZM83.8131 20.8445V19.1667H84.8403C85.5829 19.1667 85.9034 19.4631 85.9034 19.9895C85.9034 20.5327 85.6001 20.8445 84.8245 20.8445H83.8131ZM80.7106 27.0934H85.3464C87.7413 27.0934 89.3599 26.0735 89.3599 24.0665C89.3599 22.8172 88.5678 22.0937 87.4539 21.8155V21.7819C88.2811 21.5526 89.0216 20.8445 89.0216 19.4799C89.0216 17.9175 87.6739 16.8486 85.2969 16.8486H80.7106V27.0934ZM73.5623 24.7411C72.3989 24.7411 71.5888 23.9357 71.5888 21.9791C71.5888 20.0224 72.3989 19.2003 73.5623 19.2003C74.7594 19.2003 75.568 20.0056 75.568 21.9637C75.568 23.919 74.7415 24.7411 73.5623 24.7411ZM73.5623 27.2242C76.9171 27.2242 78.8217 24.8564 78.8217 21.9637C78.8217 19.0681 76.9171 16.7172 73.5623 16.7172C70.2233 16.7172 68.3344 19.0849 68.3344 21.9791C68.3344 24.8739 70.2233 27.2242 73.5623 27.2242ZM60.6299 27.0934H67.3724V24.6754H63.7323V16.8486H60.6299V27.0934ZM54.2894 27.2242C55.8579 27.2242 57.1561 26.9285 58.2184 26.5831V21.2066H53.7676V23.4415H55.2005V24.7411C54.9647 24.8075 54.6944 24.8396 54.3568 24.8396C52.7396 24.8396 51.9289 23.9022 51.9289 22.0937C51.9289 20.0377 52.8909 19.2003 54.4758 19.2003C55.7224 19.2003 56.65 19.3967 57.6794 19.8091V17.2429C56.8191 16.9143 55.7568 16.7172 54.3403 16.7172C50.2601 16.7172 48.6752 19.3156 48.6752 22.0937C48.6752 24.9382 50.4959 27.2242 54.2894 27.2242Z" fill="#0C234B"/>
<path fill-rule="evenodd" clip-rule="evenodd" d="M166.694 11.8638H167.594L168.136 10.358H170.78L171.3 11.8638H172.272L170.059 5.80996H169.007L166.694 11.8638ZM168.386 9.64802L169.047 7.81164C169.208 7.37364 169.397 6.83033 169.477 6.52973H169.497C169.557 6.80103 169.728 7.28716 169.868 7.70423L170.539 9.64802H168.386ZM160.717 11.8638H161.528V7.86046C161.528 7.53893 161.507 7.30668 161.507 7.04375H161.528C161.678 7.33528 161.858 7.66587 162.048 7.96717L164.562 11.8638H165.513V5.80996H164.702V9.81331C164.702 10.1348 164.711 10.3964 164.723 10.6684H164.693C164.552 10.3671 164.342 9.98837 164.162 9.71637L161.649 5.80996H160.717V11.8638ZM156.391 11.2229C155.121 11.2229 154.559 10.2506 154.559 8.84177C154.559 7.43292 155.121 6.45092 156.391 6.45092C157.664 6.45092 158.234 7.42246 158.234 8.83131C158.234 10.2408 157.664 11.2229 156.391 11.2229ZM156.391 11.9412C158.314 11.9412 159.186 10.4738 159.186 8.83131C159.186 7.10233 158.314 5.73254 156.391 5.73254C154.469 5.73254 153.598 7.19928 153.598 8.84177C153.598 10.5714 154.469 11.9412 156.391 11.9412ZM148.593 11.8638H152.737V11.144H149.634L152.657 6.54786V5.80996H148.713V6.52973H151.656L148.593 11.1643V11.8638ZM146.259 11.8638H147.151V5.80996H146.259V11.8638ZM141.322 8.56V6.48997H142.304C143.106 6.48997 143.475 6.84009 143.475 7.52987C143.475 8.15129 143.085 8.56 142.304 8.56H141.322ZM144.657 11.9217C144.787 11.9217 144.898 11.9126 145.017 11.8833V11.2033C144.937 11.2131 144.866 11.2229 144.796 11.2229C144.597 11.2229 144.426 11.1545 144.256 10.9013L143.005 9.10401C143.956 8.87106 144.386 8.19035 144.386 7.5201C144.386 6.44115 143.655 5.80996 142.503 5.80996H140.432V11.8638H141.322V9.19189H142.104L143.505 11.271C143.826 11.7564 144.186 11.9217 144.657 11.9217ZM133.693 11.8638H134.594L135.135 10.358H137.779L138.299 11.8638H139.271L137.058 5.80996H136.006L133.693 11.8638ZM135.385 9.64802L136.047 7.81164C136.206 7.37364 136.397 6.83033 136.477 6.52973H136.497C136.557 6.80103 136.728 7.28716 136.867 7.70423L137.539 9.64802H135.385ZM127.086 11.8638H127.976V8.98753H130.32V8.30752H127.976V6.52973H130.579V5.80996H127.086V11.8638ZM122.78 11.2229C121.508 11.2229 120.949 10.2506 120.949 8.84177C120.949 7.43292 121.508 6.45092 122.78 6.45092C124.051 6.45092 124.622 7.42246 124.622 8.83131C124.622 10.2408 124.051 11.2229 122.78 11.2229ZM122.78 11.9412C124.702 11.9412 125.573 10.4738 125.573 8.83131C125.573 7.10233 124.702 5.73254 122.78 5.73254C120.858 5.73254 119.986 7.19928 119.986 8.84177C119.986 10.5714 120.858 11.9412 122.78 11.9412ZM113.928 11.8638H114.82V9.49249L116.873 5.81903H115.941L114.43 8.71553L112.877 5.81903H111.907L113.928 9.49249V11.8638ZM108.923 11.8638H109.814V6.52973H111.616V5.80996H107.2V6.52973H108.923V11.8638ZM105.178 11.8638H106.07V5.80996H105.178V11.8638ZM101.634 11.9412C102.846 11.9412 103.677 11.271 103.677 10.2213C103.677 9.06495 102.806 8.696 102.025 8.36541C101.254 8.03482 100.853 7.87999 100.853 7.31575C100.853 6.76128 101.244 6.44115 101.974 6.44115C102.536 6.44115 103.086 6.60645 103.386 6.75221V5.99478C103.156 5.91737 102.555 5.73254 101.935 5.73254C100.774 5.73254 99.9623 6.26609 99.9623 7.32551C99.9623 8.33612 100.612 8.70576 101.273 8.9966C102.185 9.4053 102.735 9.56084 102.735 10.2604C102.735 10.9216 102.255 11.2319 101.484 11.2319C100.924 11.2319 100.301 11.0283 99.9206 10.8623V11.6309C100.332 11.8052 100.943 11.9412 101.634 11.9412ZM95.3653 8.56V6.48997H96.347C97.1482 6.48997 97.5183 6.84009 97.5183 7.52987C97.5183 8.15129 97.1281 8.56 96.347 8.56H95.3653ZM98.7004 11.9217C98.8305 11.9217 98.9411 11.9126 99.0611 11.8833V11.2033C98.9807 11.2131 98.911 11.2229 98.8405 11.2229C98.6408 11.2229 98.4705 11.1545 98.2994 10.9013L97.0483 9.10401C97.999 8.87106 98.4302 8.19035 98.4302 7.5201C98.4302 6.44115 97.6987 5.80996 96.5475 5.80996H94.475V11.8638H95.3653V9.19189H96.1472L97.5485 11.271C97.8697 11.7564 98.2304 11.9217 98.7004 11.9217ZM89.5094 11.8638H92.9235V11.144H90.399V8.97707H92.5527V8.28799H90.399V6.52973H92.9235V5.80996H89.5094V11.8638ZM85.2135 11.8638H86.1743L88.397 5.80996H87.4965L86.1642 9.61872C86.0047 10.0665 85.8143 10.7165 85.7352 11.0185H85.7151C85.6432 10.7165 85.4528 10.0756 85.3033 9.61872L84.0127 5.80996H83.0304L85.2135 11.8638ZM80.9881 11.8638H81.8799V5.80996H80.9881V11.8638ZM74.2705 11.8638H75.0811V7.86046C75.0811 7.53893 75.061 7.30668 75.061 7.04375H75.0811C75.2313 7.33528 75.4117 7.66587 75.6007 7.96717L78.1151 11.8638H79.0665V5.80996H78.2552V9.81331C78.2552 10.1348 78.2653 10.3964 78.2746 10.6684H78.2444C78.105 10.3671 77.8952 9.98837 77.7148 9.71637L75.2018 5.80996H74.2705V11.8638ZM70.1054 11.9412C71.437 11.9412 72.4273 11.2319 72.4273 9.76519V5.80996H71.5865V9.65778C71.5865 10.6391 71.1058 11.2229 70.1054 11.2229C69.103 11.2229 68.6431 10.6391 68.6431 9.65778V5.80996H67.752V9.76519C67.752 11.2319 68.7825 11.9412 70.1054 11.9412ZM60.4042 11.8638H63.8176V11.144H61.2938V8.97707H63.4461V8.28799H61.2938V6.52973H63.8176V5.80996H60.4042V11.8638ZM53.7053 11.8638H54.5957V9.05588H57.6498V11.8638H58.5401V5.80996H57.6498V8.36541H54.5957V5.80996H53.7053V11.8638ZM49.9197 11.8638H50.81V6.52973H52.613V5.80996H48.1979V6.52973H49.9197V11.8638Z" fill="#0C234B"/>
<path fill-rule="evenodd" clip-rule="evenodd" d="M6.48744 0L6.48388 9.91858L7.51962 9.91646L3.44153 20.6504L0 20.6469V30.5662H33.4045V20.6327L29.9395 20.6278L25.897 9.92424L26.9107 9.92918V0.00353276L6.48744 0Z" fill="white"/>
<path fill-rule="evenodd" clip-rule="evenodd" d="M16.6962 3.82214L23.8432 22.1301C23.8432 22.1301 24.7596 24.3577 26.2464 24.3577H21.0426C21.0426 24.3577 21.3039 24.395 21.5646 23.9673C21.7134 23.7219 21.5881 23.3547 21.5881 23.3547L19.9795 19.2673H16.6962H13.4278L11.8157 23.3547C11.8157 23.3547 11.6925 23.7219 11.8413 23.9673C12.1012 24.395 12.3626 24.3577 12.3626 24.3577H7.15808C8.64416 24.3577 9.56058 22.1301 9.56058 22.1301L16.6962 3.82214Z" fill="#AB0520"/>
<path fill-rule="evenodd" clip-rule="evenodd" d="M16.9409 3.92059H23.395V6.47964H20.7135L27.7639 24.4863H29.8485V27.1351H21.1115V24.5577H18.6582V29.6122H32.4501V22.0757L29.3528 22.082L24.3885 8.9659H25.9482V1.43433H16.9409H7.93429V8.9659H9.49399L4.52821 22.0651L1.43164 22.0757V29.6122H15.2243V24.5577H12.7703V27.1351H4.03185V24.4863H6.11786L13.1675 6.47964H10.4867V3.92059H16.9409Z" fill="#0C234B"/>
<path fill-rule="evenodd" clip-rule="evenodd" d="M36.3989 27.5712C36.6298 27.8023 36.7449 28.0848 36.7449 28.4193C36.7449 28.7532 36.6305 29.035 36.3996 29.2667C36.168 29.4971 35.8868 29.612 35.5519 29.612C35.2164 29.612 34.9351 29.4971 34.7036 29.2667C34.474 29.035 34.3589 28.7532 34.3589 28.4193C34.3589 28.0848 34.474 27.8023 34.7049 27.5712C34.9358 27.3402 35.217 27.224 35.5519 27.224C35.8855 27.224 36.1674 27.3402 36.3989 27.5712ZM36.2308 27.7148C36.0464 27.5225 35.8188 27.427 35.5519 27.427C35.2844 27.427 35.0581 27.5225 34.8736 27.7148C34.6885 27.9065 34.597 28.1415 34.597 28.4193C34.597 28.6971 34.6885 28.9322 34.8736 29.1238C35.0581 29.3141 35.2844 29.4103 35.5519 29.4103C35.8181 29.4103 36.0451 29.3141 36.2308 29.1238C36.4146 28.9322 36.5075 28.6971 36.5075 28.4193C36.5075 28.1415 36.4146 27.9065 36.2308 27.7148ZM35.0339 27.7282H35.1412H35.5755C35.722 27.7282 35.8364 27.7622 35.9195 27.8277C36.0026 27.8931 36.0444 27.9859 36.0444 28.1021C36.0444 28.229 36.0026 28.3312 35.9195 28.4033C35.8567 28.4574 35.7769 28.4914 35.6788 28.5041L36.068 29.1091H35.9457H35.822L35.4721 28.5128H35.2458V29.1091H35.1405H35.0339V27.7282ZM35.2458 28.3298H35.5342C35.6343 28.3298 35.7069 28.3105 35.7534 28.2751C35.8005 28.239 35.8227 28.1816 35.8227 28.1035C35.8227 28.0347 35.8005 27.9853 35.7534 27.9519C35.7069 27.9198 35.6343 27.9038 35.5342 27.9038H35.2458V28.3298Z" fill="white"/>
<path fill-rule="evenodd" clip-rule="evenodd" d="M16.9345 17.6724H19.5654L16.9866 10.9861L14.3162 17.6724H16.9345Z" fill="white"/>
<path fill-rule="evenodd" clip-rule="evenodd" d="M41.1172 31.9999H41.917V0.00134277H41.1172V31.9999Z" fill="#0C234B"/>
</svg>
