<svg width="32" height="32" viewBox="0 0 32 32" fill="none" xmlns="http://www.w3.org/2000/svg">
<rect width="32" height="32" rx="16" fill="#0C234B"/>
<path d="M23.8406 12.7992C23.8406 12.7992 23.6844 11.6961 23.2031 11.2117C22.5938 10.5742 21.9125 10.5711 21.6 10.5336C19.3625 10.3711 16.0031 10.3711 16.0031 10.3711H15.9969C15.9969 10.3711 12.6375 10.3711 10.4 10.5336C10.0875 10.5711 9.40625 10.5742 8.79688 11.2117C8.31563 11.6961 8.1625 12.7992 8.1625 12.7992C8.1625 12.7992 8 14.0961 8 15.3898V16.6023C8 17.8961 8.15937 19.193 8.15937 19.193C8.15937 19.193 8.31562 20.2961 8.79375 20.7805C9.40313 21.418 10.2031 21.3961 10.5594 21.4648C11.8406 21.5867 16 21.6242 16 21.6242C16 21.6242 19.3625 21.618 21.6 21.4586C21.9125 21.4211 22.5938 21.418 23.2031 20.7805C23.6844 20.2961 23.8406 19.193 23.8406 19.193C23.8406 19.193 24 17.8992 24 16.6023V15.3898C24 14.0961 23.8406 12.7992 23.8406 12.7992ZM14.3469 18.0742V13.5773L18.6687 15.8336L14.3469 18.0742Z" fill="white"/>
</svg>
