<svg width="931" height="95" viewBox="0 0 931 95" fill="none" xmlns="http://www.w3.org/2000/svg">
<path d="M817 17H931L911.321 56L931 95H817V17Z" fill="#AB0520"/>
<path d="M817 17H931L911.321 56L931 95H817V17Z" fill="url(#paint0_linear)"/>
<path d="M116 17H0L20.0238 56L0 95H116V17Z" fill="#AB0520"/>
<path d="M116 17H0L20.0238 56L0 95H116V17Z" fill="url(#paint1_linear)"/>
<rect x="85.1567" width="760.685" height="78" fill="#AB0520"/>
<path d="M170.512 53.564C167.598 53.564 165.186 52.389 163.274 50.039C161.363 47.6577 160.407 44.5557 160.407 40.733C160.407 36.9103 161.065 33.4323 162.381 30.299C163.697 27.1343 165.577 24.565 168.021 22.591C170.465 20.617 173.066 19.63 175.823 19.63C178.612 19.63 180.852 20.2567 182.544 21.51C184.268 22.7633 185.129 24.2673 185.129 26.022C185.129 27.7453 184.612 29.218 183.578 30.44C182.576 30.44 181.448 30.2207 180.194 29.782C178.941 29.3433 178.001 28.8107 177.374 28.184L178.267 23.437C177.515 22.967 176.528 22.732 175.306 22.732C173.395 22.732 171.703 24.377 170.23 27.667C168.758 30.9257 168.021 34.952 168.021 39.746C168.021 42.9107 168.538 45.2137 169.572 46.655C170.638 48.065 171.922 48.77 173.426 48.77C175.902 48.77 178.283 47.6107 180.57 45.292L182.497 47.031C182.153 47.5323 181.526 48.2217 180.617 49.099C179.709 49.9763 178.816 50.7127 177.938 51.308C177.061 51.872 175.949 52.389 174.601 52.859C173.254 53.329 171.891 53.564 170.512 53.564ZM191.474 53.564C189.312 53.564 187.62 52.812 186.398 51.308C185.176 49.7727 184.565 47.642 184.565 44.916C184.565 41.438 185.489 38.4457 187.338 35.939C189.218 33.4323 191.803 32.179 195.093 32.179L196.785 32.273C197.318 31.991 197.913 31.85 198.571 31.85C201.046 31.85 202.284 34.1843 202.284 38.853C203.569 38.7903 204.869 38.618 206.185 38.336L206.937 38.148L207.219 39.981C206.185 40.4197 204.791 40.8113 203.036 41.156L202.096 41.344C201.501 44.634 200.294 47.501 198.477 49.945C196.66 52.3577 194.325 53.564 191.474 53.564ZM194.012 49.522C195.328 49.522 196.503 48.676 197.537 46.984C198.602 45.292 199.339 43.506 199.746 41.626C196.393 41.626 194.717 40.3727 194.717 37.866C194.717 36.8633 194.921 35.9233 195.328 35.046L195.563 34.576C195.438 34.5133 195.281 34.482 195.093 34.482C194.905 34.482 194.764 34.5133 194.67 34.576C193.887 35.0773 193.15 36.2523 192.461 38.101C191.772 39.9497 191.427 42.0647 191.427 44.446C191.427 47.83 192.289 49.522 194.012 49.522ZM204.706 53.141H203.813C203.813 51.6683 204.252 48.8483 205.129 44.681C206.038 40.5137 206.492 38.148 206.492 37.584C206.492 36.55 206.053 35.4533 205.176 34.294L204.753 33.73L204.8 33.119C206.492 32.649 209.202 32.414 212.931 32.414C213.338 32.9467 213.558 33.918 213.589 35.328C216.315 33.2287 218.618 32.179 220.498 32.179C221.626 32.179 222.519 32.5707 223.177 33.354C223.866 34.1373 224.211 35.1243 224.211 36.315C224.211 37.4743 223.851 39.4953 223.13 42.378C222.409 45.2607 222.049 47.2033 222.049 48.206C222.049 49.1773 222.174 49.663 222.425 49.663C222.613 49.663 223.271 49.3653 224.399 48.77L224.963 48.488L225.809 50.133C225.527 50.3837 225.151 50.697 224.681 51.073C224.211 51.449 223.334 51.966 222.049 52.624C220.796 53.2507 219.668 53.564 218.665 53.564C216.378 53.564 215.234 52.2637 215.234 49.663C215.234 48.5663 215.579 46.5453 216.268 43.6C216.989 40.6547 217.349 38.759 217.349 37.913C217.349 37.067 217.083 36.644 216.55 36.644C215.641 36.644 214.529 37.0357 213.213 37.819C213.119 38.3517 212.806 39.7617 212.273 42.049C211.176 46.9683 210.628 50.4463 210.628 52.483C209.531 52.9217 207.557 53.141 204.706 53.141ZM233.226 58.076C232.192 58.7027 231.675 59.3137 231.675 59.909C231.675 60.5043 232.004 60.802 232.662 60.802C233.351 60.802 234.119 60.473 234.965 59.815C235.811 59.1883 236.516 58.1543 237.08 56.713C235.576 56.995 234.291 57.4493 233.226 58.076ZM247.185 32.508C247.31 32.6333 247.373 32.9153 247.373 33.354C247.373 33.7613 247.342 34.2157 247.279 34.717C247.216 35.187 247.107 36.268 246.95 37.96C246.793 39.652 246.637 41.1247 246.48 42.378C244.882 56.478 240.589 63.528 233.602 63.528C232.474 63.528 231.44 63.2303 230.5 62.635C229.591 62.0397 229.137 61.272 229.137 60.332C229.137 59.0787 229.905 57.935 231.44 56.901C232.975 55.867 235.043 55.068 237.644 54.504C237.644 54.4727 237.738 54.034 237.926 53.188C238.114 52.342 238.239 51.6527 238.302 51.12C236.422 52.4987 234.652 53.188 232.991 53.188C231.362 53.188 230.014 52.5457 228.949 51.261C227.915 49.9763 227.398 47.924 227.398 45.104C227.398 41.4067 228.228 38.336 229.889 35.892C231.55 33.4167 233.743 32.179 236.469 32.179C238.004 32.179 239.524 32.555 241.028 33.307C242.626 32.743 244.349 32.461 246.198 32.461L247.185 32.508ZM238.584 34.952C237.237 34.952 236.171 36.0487 235.388 38.242C234.605 40.404 234.213 42.8167 234.213 45.48C234.213 48.112 234.808 49.428 235.999 49.428C236.782 49.428 237.707 49.1303 238.772 48.535C239.649 43.271 240.276 38.9313 240.652 35.516C239.775 35.14 239.085 34.952 238.584 34.952ZM250 53.141H249.671C249.608 52.8903 249.577 52.3263 249.577 51.449C249.577 50.5403 250 48.1277 250.846 44.211C251.692 40.2943 252.115 38.054 252.115 37.49C252.115 36.5187 251.676 35.4533 250.799 34.294L250.376 33.73L250.423 33.119C252.115 32.649 254.825 32.414 258.554 32.414C258.93 33.2287 259.118 34.3723 259.118 35.845C259.463 35.281 260.183 34.529 261.28 33.589C262.377 32.649 263.505 32.179 264.664 32.179C266.356 32.179 267.202 33.6517 267.202 36.597C267.045 36.785 266.826 37.0357 266.544 37.349C266.293 37.631 265.761 38.0383 264.946 38.571C264.163 39.1037 263.395 39.4327 262.643 39.558C262.612 39.558 262.345 39.135 261.844 38.289C261.343 37.443 260.967 37.02 260.716 37.02C259.933 37.302 259.243 37.772 258.648 38.43C257.207 44.916 256.486 49.1147 256.486 51.026C256.486 51.7153 256.502 52.201 256.533 52.483C255.436 52.9217 253.259 53.141 250 53.141ZM280.186 33.542C280.249 33.4793 280.421 33.072 280.703 32.32C282.176 32.32 284.15 32.7587 286.625 33.636C285.842 36.2367 285.215 38.9627 284.745 41.814C284.275 44.634 284.04 46.655 284.04 47.877C284.04 49.0677 284.165 49.663 284.416 49.663C284.604 49.663 285.293 49.3653 286.484 48.77L287.048 48.488L287.894 50.133C287.612 50.3837 287.236 50.697 286.766 51.073C286.327 51.449 285.481 51.966 284.228 52.624C282.975 53.2507 281.847 53.564 280.844 53.564C278.901 53.564 277.773 52.6867 277.46 50.932C275.455 52.6867 273.637 53.564 272.008 53.564C270.41 53.564 269.047 52.9373 267.919 51.684C266.822 50.4307 266.274 48.4567 266.274 45.762C266.274 41.5633 267.136 38.2577 268.859 35.845C270.582 33.401 272.666 32.179 275.11 32.179C276.865 32.179 278.557 32.6333 280.186 33.542ZM274.828 49.569C275.58 49.569 276.426 49.2713 277.366 48.676C277.585 44.258 278.322 39.887 279.575 35.563C278.635 35.1557 277.836 34.952 277.178 34.952C276.05 34.952 275.079 36.0643 274.264 38.289C273.481 40.4823 273.089 42.9107 273.089 45.574C273.089 48.2373 273.669 49.569 274.828 49.569ZM303.473 32.743C303.41 33.5263 303.144 34.435 302.674 35.469C301.483 35.3437 300.355 35.281 299.29 35.281H298.444C297.003 42.2683 296.282 46.6237 296.282 48.347C296.282 49.2557 296.47 49.71 296.846 49.71C297.253 49.71 298.303 49.3183 299.995 48.535L300.841 50.086C298.052 52.4047 295.467 53.564 293.086 53.564C291.989 53.564 291.081 53.2193 290.36 52.53C289.671 51.8407 289.326 50.932 289.326 49.804C289.326 48.6447 289.451 47.3443 289.702 45.903C289.984 44.4617 290.36 42.707 290.83 40.639C291.3 38.5397 291.645 36.8477 291.864 35.563C290.705 35.657 289.843 35.751 289.279 35.845C289.216 35.469 289.185 34.9677 289.185 34.341C289.185 33.683 289.232 33.1503 289.326 32.743H292.287C292.538 31.051 292.663 29.453 292.663 27.949L292.616 26.492V26.351C295.06 25.505 297.363 25.082 299.525 25.082C299.65 25.7087 299.713 26.492 299.713 27.432C299.713 28.372 299.447 30.1423 298.914 32.743H303.473ZM303.367 49.475C303.367 48.1277 303.774 45.8403 304.589 42.613C305.403 39.3543 305.811 37.3647 305.811 36.644C305.811 35.892 305.247 34.905 304.119 33.683L304.166 33.072C306.296 32.6333 309.101 32.414 312.579 32.414C312.735 32.8213 312.814 33.5577 312.814 34.623C312.814 35.6883 312.375 37.96 311.498 41.438C310.62 44.916 310.182 47.078 310.182 47.924C310.182 48.77 310.495 49.193 311.122 49.193C312.03 49.193 313.08 48.864 314.271 48.206C314.396 47.454 314.709 46.0127 315.211 43.882C316.339 38.8687 316.903 35.281 316.903 33.119C317.999 32.6803 319.973 32.461 322.825 32.461H323.718C323.718 33.9337 323.279 36.8163 322.402 41.109C321.524 45.3703 321.086 47.877 321.086 48.629C321.086 49.3497 321.242 49.71 321.556 49.71C321.744 49.71 322.637 49.334 324.235 48.582L325.128 50.086C322.339 52.4047 319.895 53.564 317.796 53.564C316.793 53.564 315.931 53.282 315.211 52.718C314.521 52.154 314.13 51.4177 314.036 50.509C311.498 52.577 309.195 53.611 307.127 53.611C306.03 53.611 305.121 53.2507 304.401 52.53C303.711 51.8093 303.367 50.791 303.367 49.475ZM330.064 53.564C328.998 53.564 328.105 53.2037 327.385 52.483C326.695 51.7623 326.351 50.7597 326.351 49.475C326.351 48.159 327.118 44.0073 328.654 37.02C330.22 30.0013 331.004 24.941 331.004 21.839L330.722 19.771C333.166 18.925 335.453 18.502 337.584 18.502C337.897 18.9407 338.054 19.7083 338.054 20.805C338.054 23.3117 337.255 28.1683 335.657 35.375C334.09 42.5503 333.307 46.7333 333.307 47.924C333.307 49.0833 333.448 49.663 333.73 49.663L337.02 48.488L337.866 50.133C336.8 50.979 335.5 51.7623 333.965 52.483C332.461 53.2037 331.16 53.564 330.064 53.564ZM352.935 33.542C352.998 33.4793 353.17 33.072 353.452 32.32C354.925 32.32 356.899 32.7587 359.374 33.636C358.591 36.2367 357.964 38.9627 357.494 41.814C357.024 44.634 356.789 46.655 356.789 47.877C356.789 49.0677 356.914 49.663 357.165 49.663C357.353 49.663 358.042 49.3653 359.233 48.77L359.797 48.488L360.643 50.133C360.361 50.3837 359.985 50.697 359.515 51.073C359.076 51.449 358.23 51.966 356.977 52.624C355.724 53.2507 354.596 53.564 353.593 53.564C351.65 53.564 350.522 52.6867 350.209 50.932C348.204 52.6867 346.386 53.564 344.757 53.564C343.159 53.564 341.796 52.9373 340.668 51.684C339.571 50.4307 339.023 48.4567 339.023 45.762C339.023 41.5633 339.885 38.2577 341.608 35.845C343.331 33.401 345.415 32.179 347.859 32.179C349.614 32.179 351.306 32.6333 352.935 33.542ZM347.577 49.569C348.329 49.569 349.175 49.2713 350.115 48.676C350.334 44.258 351.071 39.887 352.324 35.563C351.384 35.1557 350.585 34.952 349.927 34.952C348.799 34.952 347.828 36.0643 347.013 38.289C346.23 40.4823 345.838 42.9107 345.838 45.574C345.838 48.2373 346.418 49.569 347.577 49.569ZM376.222 32.743C376.159 33.5263 375.893 34.435 375.423 35.469C374.232 35.3437 373.104 35.281 372.039 35.281H371.193C369.752 42.2683 369.031 46.6237 369.031 48.347C369.031 49.2557 369.219 49.71 369.595 49.71C370.002 49.71 371.052 49.3183 372.744 48.535L373.59 50.086C370.801 52.4047 368.216 53.564 365.835 53.564C364.738 53.564 363.83 53.2193 363.109 52.53C362.42 51.8407 362.075 50.932 362.075 49.804C362.075 48.6447 362.2 47.3443 362.451 45.903C362.733 44.4617 363.109 42.707 363.579 40.639C364.049 38.5397 364.394 36.8477 364.613 35.563C363.454 35.657 362.592 35.751 362.028 35.845C361.965 35.469 361.934 34.9677 361.934 34.341C361.934 33.683 361.981 33.1503 362.075 32.743H365.036C365.287 31.051 365.412 29.453 365.412 27.949L365.365 26.492V26.351C367.809 25.505 370.112 25.082 372.274 25.082C372.399 25.7087 372.462 26.492 372.462 27.432C372.462 28.372 372.196 30.1423 371.663 32.743H376.222ZM385.56 35.093C385.56 36.409 385.137 38.6807 384.291 41.908C383.445 45.104 383.022 47.2033 383.022 48.206C383.022 49.1773 383.163 49.663 383.445 49.663C383.633 49.663 384.354 49.3653 385.607 48.77L386.171 48.488L386.97 50.133C386.688 50.3837 386.312 50.697 385.842 51.073C385.372 51.449 384.495 51.966 383.21 52.624C381.926 53.2507 380.735 53.564 379.638 53.564C378.542 53.564 377.68 53.235 377.053 52.577C376.427 51.8877 376.113 50.979 376.113 49.851C376.113 48.6917 376.505 46.655 377.288 43.741C378.072 40.7957 378.463 38.8843 378.463 38.007C378.463 36.691 378.056 35.4533 377.241 34.294L376.818 33.73L376.865 33.119C378.526 32.649 381.221 32.414 384.949 32.414C385.357 32.884 385.56 33.777 385.56 35.093ZM380.202 27.291C379.576 26.6643 379.262 25.834 379.262 24.8C379.262 23.766 379.685 22.8573 380.531 22.074C381.409 21.2907 382.411 20.899 383.539 20.899C384.667 20.899 385.545 21.2123 386.171 21.839C386.798 22.4657 387.111 23.296 387.111 24.33C387.111 25.3327 386.657 26.2257 385.748 27.009C384.871 27.7923 383.884 28.184 382.787 28.184C381.691 28.184 380.829 27.8863 380.202 27.291ZM395.217 53.564C393.055 53.564 391.363 52.812 390.141 51.308C388.919 49.7727 388.308 47.642 388.308 44.916C388.308 41.438 389.232 38.4457 391.081 35.939C392.961 33.4323 395.546 32.179 398.836 32.179L400.528 32.273C401.061 31.991 401.656 31.85 402.314 31.85C404.789 31.85 406.027 34.1843 406.027 38.853C407.312 38.7903 408.612 38.618 409.928 38.336L410.68 38.148L410.962 39.981C409.928 40.4197 408.534 40.8113 406.779 41.156L405.839 41.344C405.244 44.634 404.037 47.501 402.22 49.945C400.403 52.3577 398.068 53.564 395.217 53.564ZM397.755 49.522C399.071 49.522 400.246 48.676 401.28 46.984C402.345 45.292 403.082 43.506 403.489 41.626C400.136 41.626 398.46 40.3727 398.46 37.866C398.46 36.8633 398.664 35.9233 399.071 35.046L399.306 34.576C399.181 34.5133 399.024 34.482 398.836 34.482C398.648 34.482 398.507 34.5133 398.413 34.576C397.63 35.0773 396.893 36.2523 396.204 38.101C395.515 39.9497 395.17 42.0647 395.17 44.446C395.17 47.83 396.032 49.522 397.755 49.522ZM408.449 53.141H407.556C407.556 51.6683 407.995 48.8483 408.872 44.681C409.781 40.5137 410.235 38.148 410.235 37.584C410.235 36.55 409.796 35.4533 408.919 34.294L408.496 33.73L408.543 33.119C410.235 32.649 412.945 32.414 416.674 32.414C417.081 32.9467 417.301 33.918 417.332 35.328C420.058 33.2287 422.361 32.179 424.241 32.179C425.369 32.179 426.262 32.5707 426.92 33.354C427.609 34.1373 427.954 35.1243 427.954 36.315C427.954 37.4743 427.594 39.4953 426.873 42.378C426.152 45.2607 425.792 47.2033 425.792 48.206C425.792 49.1773 425.917 49.663 426.168 49.663C426.356 49.663 427.014 49.3653 428.142 48.77L428.706 48.488L429.552 50.133C429.27 50.3837 428.894 50.697 428.424 51.073C427.954 51.449 427.077 51.966 425.792 52.624C424.539 53.2507 423.411 53.564 422.408 53.564C420.121 53.564 418.977 52.2637 418.977 49.663C418.977 48.5663 419.322 46.5453 420.011 43.6C420.732 40.6547 421.092 38.759 421.092 37.913C421.092 37.067 420.826 36.644 420.293 36.644C419.384 36.644 418.272 37.0357 416.956 37.819C416.862 38.3517 416.549 39.7617 416.016 42.049C414.919 46.9683 414.371 50.4463 414.371 52.483C413.274 52.9217 411.3 53.141 408.449 53.141ZM445.57 46.843C445.57 48.817 444.693 50.4307 442.938 51.684C441.215 52.9373 439.241 53.564 437.016 53.564C434.792 53.564 433.021 53.094 431.705 52.154C430.421 51.214 429.778 50.3837 429.778 49.663C429.778 49.2243 430.327 48.5193 431.423 47.548C432.52 46.5453 433.444 45.9343 434.196 45.715C435.763 46.8743 437.048 48.7073 438.05 51.214C439.21 51.12 439.789 50.5717 439.789 49.569C439.789 48.1277 438.52 46.091 435.982 43.459C433.444 40.7957 432.175 38.6807 432.175 37.114C432.175 35.5473 432.88 34.341 434.29 33.495C435.7 32.6177 437.392 32.179 439.366 32.179C441.372 32.179 442.876 32.5393 443.878 33.26C444.881 33.9493 445.382 34.905 445.382 36.127C445.382 37.3177 444.427 38.9783 442.515 41.109C442.735 41.3283 443.017 41.626 443.361 42.002C443.706 42.3467 444.16 43.0203 444.724 44.023C445.288 45.0257 445.57 45.9657 445.57 46.843ZM441.058 39.464C442.374 38.336 443.032 37.2237 443.032 36.127C443.032 35.0303 442.28 34.482 440.776 34.482C440.056 34.482 439.46 34.6387 438.99 34.952C438.52 35.234 438.285 35.563 438.285 35.939C438.285 36.6283 438.975 37.5997 440.353 38.853L441.058 39.464ZM447.472 52.248C447.472 49.992 448.35 47.877 450.104 45.903C451.734 45.903 453.081 46.3887 454.146 47.36C455.212 48.3 455.744 49.4123 455.744 50.697C455.744 53.893 453.833 57.6687 450.01 62.024L448.036 60.755C449.979 57.8097 451.029 55.726 451.185 54.504L447.472 52.248ZM484.299 53.846C483.202 53.846 481.557 53.2193 479.364 51.966C477.171 50.6813 475.353 49.8353 473.912 49.428C472.847 50.556 471.813 51.4803 470.81 52.201C469.839 52.8903 469.181 53.235 468.836 53.235C468.491 53.235 467.865 52.6867 466.956 51.59C466.079 50.462 465.64 49.616 465.64 49.052C465.64 48.4567 466.157 47.6263 467.191 46.561C468.256 45.4643 469.478 44.916 470.857 44.916C471.703 44.916 472.533 45.01 473.348 45.198C475.541 43.4433 477.625 40.9053 479.599 37.584C481.573 34.2313 482.56 31.3017 482.56 28.795C482.56 27.385 482.137 26.2883 481.291 25.505C480.445 24.6903 479.411 24.283 478.189 24.283C476.998 24.283 475.823 24.6747 474.664 25.458C473.536 26.2413 472.565 27.3223 471.75 28.701L469.588 27.761C470.215 25.787 471.625 23.9383 473.818 22.215C476.043 20.4917 478.502 19.63 481.197 19.63C483.923 19.63 486.038 20.3663 487.542 21.839C489.077 23.3117 489.845 25.1603 489.845 27.385C489.845 28.983 489.375 30.7377 488.435 32.649C487.526 34.529 486.351 36.3307 484.91 38.054C482.215 41.2187 479.521 43.882 476.826 46.044C480.743 47.1093 483.766 47.642 485.897 47.642C486.492 47.642 486.931 47.4853 487.213 47.172C487.495 46.8273 487.934 46.0597 488.529 44.869L490.08 45.198C489.767 50.9633 487.84 53.846 484.299 53.846ZM516.64 31.756C516.64 37.02 515.465 41.8453 513.115 46.232C511.956 48.4253 510.374 50.1957 508.368 51.543C506.394 52.8903 504.154 53.564 501.647 53.564C498.608 53.564 496.321 52.4517 494.785 50.227C493.25 47.971 492.482 44.9943 492.482 41.297C492.482 34.905 493.877 29.7037 496.665 25.693C499.454 21.651 503.042 19.63 507.428 19.63C510.562 19.63 512.88 20.7737 514.384 23.061C515.888 25.317 516.64 28.2153 516.64 31.756ZM502.07 50.415C503.48 50.415 504.702 49.5063 505.736 47.689C506.802 45.8403 507.569 43.6 508.039 40.968C508.948 35.8293 509.402 31.9753 509.402 29.406C509.402 26.8053 509.183 25.0663 508.744 24.189C508.337 23.2803 507.585 22.826 506.488 22.826C505.423 22.826 504.42 23.5623 503.48 25.035C502.572 26.5077 501.851 28.4033 501.318 30.722C500.253 35.2967 499.72 39.934 499.72 44.634C499.72 46.89 499.924 48.4253 500.331 49.24C500.739 50.0233 501.318 50.415 502.07 50.415ZM534.374 53.846C533.278 53.846 531.633 53.2193 529.439 51.966C527.246 50.6813 525.429 49.8353 523.987 49.428C522.922 50.556 521.888 51.4803 520.885 52.201C519.914 52.8903 519.256 53.235 518.911 53.235C518.567 53.235 517.94 52.6867 517.031 51.59C516.154 50.462 515.715 49.616 515.715 49.052C515.715 48.4567 516.232 47.6263 517.266 46.561C518.332 45.4643 519.554 44.916 520.932 44.916C521.778 44.916 522.609 45.01 523.423 45.198C525.617 43.4433 527.7 40.9053 529.674 37.584C531.648 34.2313 532.635 31.3017 532.635 28.795C532.635 27.385 532.212 26.2883 531.366 25.505C530.52 24.6903 529.486 24.283 528.264 24.283C527.074 24.283 525.899 24.6747 524.739 25.458C523.611 26.2413 522.64 27.3223 521.825 28.701L519.663 27.761C520.29 25.787 521.7 23.9383 523.893 22.215C526.118 20.4917 528.578 19.63 531.272 19.63C533.998 19.63 536.113 20.3663 537.617 21.839C539.153 23.3117 539.92 25.1603 539.92 27.385C539.92 28.983 539.45 30.7377 538.51 32.649C537.602 34.529 536.427 36.3307 534.985 38.054C532.291 41.2187 529.596 43.882 526.901 46.044C530.818 47.1093 533.842 47.642 535.972 47.642C536.568 47.642 537.006 47.4853 537.288 47.172C537.57 46.8273 538.009 46.0597 538.604 44.869L540.155 45.198C539.842 50.9633 537.915 53.846 534.374 53.846ZM544.861 53.141H544.391C544.453 50.8537 545.346 45.9657 547.07 38.477C548.793 30.957 549.655 26.4607 549.655 24.988C549.655 24.2673 549.639 23.8287 549.608 23.672C547.884 24.612 546.004 26.1003 543.968 28.137C543.592 27.949 543.2 27.62 542.793 27.15C542.417 26.6487 542.135 26.21 541.947 25.834L541.665 25.27L549.514 20.241C551.832 19.8337 554.214 19.63 556.658 19.63C557.034 20.2567 557.222 21.2593 557.222 22.638C557.222 23.9853 556.83 26.3667 556.047 29.782C555.263 33.166 554.449 36.9573 553.603 41.156C552.757 45.3233 552.287 49.005 552.193 52.201C551.065 52.8277 548.621 53.141 544.861 53.141ZM577.537 63.528C575.97 63.528 574.67 63.1363 573.636 62.353C572.602 61.601 572.085 60.5513 572.085 59.204C572.085 55.6007 575.767 53.235 583.13 52.107C583.412 51.073 583.631 50.0703 583.788 49.099C582.347 49.9763 580.827 50.415 579.229 50.415C576.315 50.415 573.965 49.3653 572.179 47.266C570.393 45.1353 569.5 42.378 569.5 38.994C569.5 35.61 570.158 32.4767 571.474 29.594C572.79 26.7113 574.67 24.33 577.114 22.45C579.589 20.57 582.206 19.63 584.963 19.63C587.752 19.63 590.023 20.3193 591.778 21.698C593.564 23.0453 594.457 24.7687 594.457 26.868C594.457 28.1213 594.238 29.1397 593.799 29.923C593.548 29.9543 593.204 29.97 592.765 29.97C590.352 29.97 588.535 29.5783 587.313 28.795L587.36 23.719C586.608 23.061 585.621 22.732 584.399 22.732C582.488 22.732 580.796 24.2047 579.323 27.15C577.85 30.064 577.114 33.6203 577.114 37.819C577.114 40.6077 577.568 42.66 578.477 43.976C579.386 45.292 580.467 45.95 581.72 45.95C583.6 45.95 585.292 45.01 586.796 43.13C588.3 41.25 589.381 39.0097 590.039 36.409L592.577 36.832C591.386 45.7933 589.585 52.483 587.172 56.901C584.759 61.319 581.548 63.528 577.537 63.528ZM575.14 59.063C575.14 59.9403 575.876 60.379 577.349 60.379C578.101 60.379 578.994 59.909 580.028 58.969C581.062 58.0603 581.845 56.8697 582.378 55.397C580.561 55.5537 578.9 55.961 577.396 56.619C575.892 57.3083 575.14 58.123 575.14 59.063ZM596.12 53.141H595.791C595.728 52.8903 595.697 52.3263 595.697 51.449C595.697 50.5403 596.12 48.1277 596.966 44.211C597.812 40.2943 598.235 38.054 598.235 37.49C598.235 36.5187 597.796 35.4533 596.919 34.294L596.496 33.73L596.543 33.119C598.235 32.649 600.945 32.414 604.674 32.414C605.05 33.2287 605.238 34.3723 605.238 35.845C605.583 35.281 606.303 34.529 607.4 33.589C608.497 32.649 609.625 32.179 610.784 32.179C612.476 32.179 613.322 33.6517 613.322 36.597C613.165 36.785 612.946 37.0357 612.664 37.349C612.413 37.631 611.881 38.0383 611.066 38.571C610.283 39.1037 609.515 39.4327 608.763 39.558C608.732 39.558 608.465 39.135 607.964 38.289C607.463 37.443 607.087 37.02 606.836 37.02C606.053 37.302 605.363 37.772 604.768 38.43C603.327 44.916 602.606 49.1147 602.606 51.026C602.606 51.7153 602.622 52.201 602.653 52.483C601.556 52.9217 599.379 53.141 596.12 53.141ZM626.306 33.542C626.369 33.4793 626.541 33.072 626.823 32.32C628.296 32.32 630.27 32.7587 632.745 33.636C631.962 36.2367 631.335 38.9627 630.865 41.814C630.395 44.634 630.16 46.655 630.16 47.877C630.16 49.0677 630.286 49.663 630.536 49.663C630.724 49.663 631.414 49.3653 632.604 48.77L633.168 48.488L634.014 50.133C633.732 50.3837 633.356 50.697 632.886 51.073C632.448 51.449 631.602 51.966 630.348 52.624C629.095 53.2507 627.967 53.564 626.964 53.564C625.022 53.564 623.894 52.6867 623.58 50.932C621.575 52.6867 619.758 53.564 618.128 53.564C616.53 53.564 615.167 52.9373 614.039 51.684C612.943 50.4307 612.394 48.4567 612.394 45.762C612.394 41.5633 613.256 38.2577 614.979 35.845C616.703 33.401 618.786 32.179 621.23 32.179C622.985 32.179 624.677 32.6333 626.306 33.542ZM620.948 49.569C621.7 49.569 622.546 49.2713 623.486 48.676C623.706 44.258 624.442 39.887 625.695 35.563C624.755 35.1557 623.956 34.952 623.298 34.952C622.17 34.952 621.199 36.0643 620.384 38.289C619.601 40.4823 619.209 42.9107 619.209 45.574C619.209 48.2373 619.789 49.569 620.948 49.569ZM657.16 50.133C654.497 52.4203 652.147 53.564 650.11 53.564C648.105 53.564 646.946 52.5613 646.632 50.556C645.692 51.496 644.643 52.2323 643.483 52.765C642.324 53.2977 641.306 53.564 640.428 53.564C638.924 53.564 637.64 52.906 636.574 51.59C635.509 50.274 634.976 48.2373 634.976 45.48C634.976 41.344 635.854 38.101 637.608 35.751C639.363 33.3697 641.337 32.179 643.53 32.179C645.755 32.179 647.619 32.6803 649.123 33.683C650.095 28.607 650.58 24.612 650.58 21.698L650.345 19.724C652.695 18.9093 654.998 18.502 657.254 18.502C657.505 19.0347 657.63 19.6457 657.63 20.335C657.63 22.6223 656.941 27.2753 655.562 34.294C654.184 41.2813 653.494 46.0283 653.494 48.535C653.494 49.287 653.667 49.663 654.011 49.663C654.199 49.663 654.795 49.3653 655.797 48.77L656.267 48.488L657.16 50.133ZM645.833 34.952C644.737 34.952 643.781 36.033 642.966 38.195C642.183 40.357 641.791 42.5033 641.791 44.634C641.791 46.7333 641.932 48.0807 642.214 48.676C642.528 49.2713 642.982 49.569 643.577 49.569C644.611 49.569 645.63 49.146 646.632 48.3C646.726 47.0467 647.431 42.8793 648.747 35.798C647.682 35.234 646.711 34.952 645.833 34.952ZM658.85 49.475C658.85 48.1277 659.257 45.8403 660.072 42.613C660.887 39.3543 661.294 37.3647 661.294 36.644C661.294 35.892 660.73 34.905 659.602 33.683L659.649 33.072C661.78 32.6333 664.584 32.414 668.062 32.414C668.219 32.8213 668.297 33.5577 668.297 34.623C668.297 35.6883 667.858 37.96 666.981 41.438C666.104 44.916 665.665 47.078 665.665 47.924C665.665 48.77 665.978 49.193 666.605 49.193C667.514 49.193 668.563 48.864 669.754 48.206C669.879 47.454 670.193 46.0127 670.694 43.882C671.822 38.8687 672.386 35.281 672.386 33.119C673.483 32.6803 675.457 32.461 678.308 32.461H679.201C679.201 33.9337 678.762 36.8163 677.885 41.109C677.008 45.3703 676.569 47.877 676.569 48.629C676.569 49.3497 676.726 49.71 677.039 49.71C677.227 49.71 678.12 49.334 679.718 48.582L680.611 50.086C677.822 52.4047 675.378 53.564 673.279 53.564C672.276 53.564 671.415 53.282 670.694 52.718C670.005 52.154 669.613 51.4177 669.519 50.509C666.981 52.577 664.678 53.611 662.61 53.611C661.513 53.611 660.605 53.2507 659.884 52.53C659.195 51.8093 658.85 50.791 658.85 49.475ZM695.934 33.542C695.997 33.4793 696.169 33.072 696.451 32.32C697.924 32.32 699.898 32.7587 702.373 33.636C701.59 36.2367 700.963 38.9627 700.493 41.814C700.023 44.634 699.788 46.655 699.788 47.877C699.788 49.0677 699.913 49.663 700.164 49.663C700.352 49.663 701.041 49.3653 702.232 48.77L702.796 48.488L703.642 50.133C703.36 50.3837 702.984 50.697 702.514 51.073C702.075 51.449 701.229 51.966 699.976 52.624C698.723 53.2507 697.595 53.564 696.592 53.564C694.649 53.564 693.521 52.6867 693.208 50.932C691.203 52.6867 689.385 53.564 687.756 53.564C686.158 53.564 684.795 52.9373 683.667 51.684C682.57 50.4307 682.022 48.4567 682.022 45.762C682.022 41.5633 682.884 38.2577 684.607 35.845C686.33 33.401 688.414 32.179 690.858 32.179C692.613 32.179 694.305 32.6333 695.934 33.542ZM690.576 49.569C691.328 49.569 692.174 49.2713 693.114 48.676C693.333 44.258 694.07 39.887 695.323 35.563C694.383 35.1557 693.584 34.952 692.926 34.952C691.798 34.952 690.827 36.0643 690.012 38.289C689.229 40.4823 688.837 42.9107 688.837 45.574C688.837 48.2373 689.417 49.569 690.576 49.569ZM719.221 32.743C719.158 33.5263 718.892 34.435 718.422 35.469C717.231 35.3437 716.103 35.281 715.038 35.281H714.192C712.751 42.2683 712.03 46.6237 712.03 48.347C712.03 49.2557 712.218 49.71 712.594 49.71C713.001 49.71 714.051 49.3183 715.743 48.535L716.589 50.086C713.8 52.4047 711.215 53.564 708.834 53.564C707.737 53.564 706.829 53.2193 706.108 52.53C705.419 51.8407 705.074 50.932 705.074 49.804C705.074 48.6447 705.199 47.3443 705.45 45.903C705.732 44.4617 706.108 42.707 706.578 40.639C707.048 38.5397 707.393 36.8477 707.612 35.563C706.453 35.657 705.591 35.751 705.027 35.845C704.964 35.469 704.933 34.9677 704.933 34.341C704.933 33.683 704.98 33.1503 705.074 32.743H708.035C708.286 31.051 708.411 29.453 708.411 27.949L708.364 26.492V26.351C710.808 25.505 713.111 25.082 715.273 25.082C715.398 25.7087 715.461 26.492 715.461 27.432C715.461 28.372 715.195 30.1423 714.662 32.743H719.221ZM718.183 44.869C718.183 40.9523 719.358 37.866 721.708 35.61C724.09 33.3227 726.784 32.179 729.792 32.179C731.641 32.179 733.161 32.6333 734.351 33.542C735.542 34.4507 736.137 35.6727 736.137 37.208C736.137 38.712 735.746 39.981 734.962 41.015C734.21 42.049 733.286 42.848 732.189 43.412C729.965 44.5087 727.928 45.198 726.079 45.48L724.951 45.621C725.171 48.5663 726.377 50.039 728.57 50.039C729.322 50.039 730.121 49.851 730.967 49.475C731.813 49.099 732.471 48.723 732.941 48.347L733.646 47.783L734.774 49.287C734.524 49.6317 734.022 50.086 733.27 50.65C732.518 51.214 731.813 51.684 731.155 52.06C729.338 53.0627 727.348 53.564 725.186 53.564C723.024 53.564 721.317 52.7963 720.063 51.261C718.81 49.7257 718.183 47.595 718.183 44.869ZM724.904 43.318C726.502 43.036 727.771 42.3623 728.711 41.297C729.651 40.2317 730.121 38.853 730.121 37.161C730.121 35.469 729.62 34.623 728.617 34.623C727.427 34.623 726.502 35.6413 725.844 37.678C725.218 39.6833 724.904 41.5633 724.904 43.318ZM752.126 46.843C752.126 48.817 751.249 50.4307 749.494 51.684C747.771 52.9373 745.797 53.564 743.572 53.564C741.347 53.564 739.577 53.094 738.261 52.154C736.976 51.214 736.334 50.3837 736.334 49.663C736.334 49.2243 736.882 48.5193 737.979 47.548C739.076 46.5453 740 45.9343 740.752 45.715C742.319 46.8743 743.603 48.7073 744.606 51.214C745.765 51.12 746.345 50.5717 746.345 49.569C746.345 48.1277 745.076 46.091 742.538 43.459C740 40.7957 738.731 38.6807 738.731 37.114C738.731 35.5473 739.436 34.341 740.846 33.495C742.256 32.6177 743.948 32.179 745.922 32.179C747.927 32.179 749.431 32.5393 750.434 33.26C751.437 33.9493 751.938 34.905 751.938 36.127C751.938 37.3177 750.982 38.9783 749.071 41.109C749.29 41.3283 749.572 41.626 749.917 42.002C750.262 42.3467 750.716 43.0203 751.28 44.023C751.844 45.0257 752.126 45.9657 752.126 46.843ZM747.614 39.464C748.93 38.336 749.588 37.2237 749.588 36.127C749.588 35.0303 748.836 34.482 747.332 34.482C746.611 34.482 746.016 34.6387 745.546 34.952C745.076 35.234 744.841 35.563 744.841 35.939C744.841 36.6283 745.53 37.5997 746.909 38.853L747.614 39.464ZM766.436 21.792C766.436 24.894 765.418 29.7663 763.381 36.409C763.224 36.9417 762.927 37.913 762.488 39.323C762.081 40.7017 761.767 41.767 761.548 42.519C760.702 42.801 759.95 42.942 759.292 42.942C758.665 42.942 758.101 42.9107 757.6 42.848C758.728 36.0487 759.292 30.0483 759.292 24.847L759.01 20.899C761.673 20.053 764.055 19.63 766.154 19.63C766.342 19.912 766.436 20.6327 766.436 21.792ZM755.297 52.671C754.67 52.0443 754.357 51.214 754.357 50.18C754.357 49.146 754.78 48.2373 755.626 47.454C756.503 46.6707 757.506 46.279 758.634 46.279C759.762 46.279 760.639 46.5923 761.266 47.219C761.893 47.8457 762.206 48.676 762.206 49.71C762.206 50.7127 761.752 51.6057 760.843 52.389C759.966 53.1723 758.979 53.564 757.882 53.564C756.785 53.564 755.924 53.2663 755.297 52.671Z" fill="white"/>
<path d="M86.1338 77.5L115.466 94.5V63.5L86.1338 23V77.5Z" fill="#AB0520"/>
<path d="M845.843 77.5L816.51 94.5V63.5L845.843 23V77.5Z" fill="#AB0520"/>
<defs>
<linearGradient id="paint0_linear" x1="997.161" y1="56" x2="817" y2="56" gradientUnits="userSpaceOnUse">
<stop stop-color="#AB0520"/>
<stop offset="1" stop-color="white" stop-opacity="0"/>
</linearGradient>
<linearGradient id="paint1_linear" x1="-67.3214" y1="56" x2="116" y2="56" gradientUnits="userSpaceOnUse">
<stop stop-color="#AB0520"/>
<stop offset="1" stop-color="white" stop-opacity="0"/>
</linearGradient>
</defs>
</svg>
