<svg width="345" height="101" viewBox="0 0 345 101" fill="none" xmlns="http://www.w3.org/2000/svg">
<path d="M289 14.7896H345L335.333 57.8948L345 101H289V14.7896Z" fill="#AB0520"/>
<path d="M289 14.7896H345L335.333 57.8948L345 101H289V14.7896Z" fill="url(#paint0_linear)"/>
<path d="M56 14.7896H0L9.66666 57.8948L0 101H56V14.7896Z" fill="#AB0520"/>
<path d="M56 14.7896H0L9.66666 57.8948L0 101H56V14.7896Z" fill="url(#paint1_linear)"/>
<rect x="36" width="273" height="82" fill="#AB0520"/>
<path d="M36 81.2168L56 100V65.7483L36 21V81.2168Z" fill="#AB0520"/>
<path d="M309 81.2168L289 100V65.7483L309 21V81.2168Z" fill="#AB0520"/>
<path d="M82.9253 28.36C81.0653 28.36 79.5253 27.61 78.3053 26.11C77.0853 24.59 76.4753 22.61 76.4753 20.17C76.4753 17.73 76.8953 15.51 77.7353 13.51C78.5753 11.49 79.7753 9.85 81.3353 8.59C82.8953 7.33 84.5553 6.7 86.3153 6.7C88.0953 6.7 89.5253 7.1 90.6053 7.9C91.7053 8.7 92.2553 9.66 92.2553 10.78C92.2553 11.88 91.9253 12.82 91.2653 13.6C90.6253 13.6 89.9053 13.46 89.1053 13.18C88.3053 12.9 87.7053 12.56 87.3053 12.16L87.8753 9.13C87.3953 8.83 86.7653 8.68 85.9853 8.68C84.7653 8.68 83.6853 9.73 82.7453 11.83C81.8053 13.91 81.3353 16.48 81.3353 19.54C81.3353 21.56 81.6653 23.03 82.3253 23.95C83.0053 24.85 83.8253 25.3 84.7853 25.3C86.3653 25.3 87.8853 24.56 89.3453 23.08L90.5753 24.19C90.3553 24.51 89.9553 24.95 89.3753 25.51C88.7953 26.07 88.2253 26.54 87.6653 26.92C87.1053 27.28 86.3953 27.61 85.5353 27.91C84.6753 28.21 83.8053 28.36 82.9253 28.36ZM96.3051 28.36C94.9251 28.36 93.8451 27.88 93.0651 26.92C92.2851 25.94 91.8951 24.58 91.8951 22.84C91.8951 20.62 92.4851 18.71 93.6651 17.11C94.8651 15.51 96.5151 14.71 98.6151 14.71L99.6951 14.77C100.035 14.59 100.415 14.5 100.835 14.5C102.415 14.5 103.205 15.99 103.205 18.97C104.025 18.93 104.855 18.82 105.695 18.64L106.175 18.52L106.355 19.69C105.695 19.97 104.805 20.22 103.685 20.44L103.085 20.56C102.705 22.66 101.935 24.49 100.775 26.05C99.6151 27.59 98.1251 28.36 96.3051 28.36ZM97.9251 25.78C98.7651 25.78 99.5151 25.24 100.175 24.16C100.855 23.08 101.325 21.94 101.585 20.74C99.4451 20.74 98.3751 19.94 98.3751 18.34C98.3751 17.7 98.5051 17.1 98.7651 16.54L98.9151 16.24C98.8351 16.2 98.7351 16.18 98.6151 16.18C98.4951 16.18 98.4051 16.2 98.3451 16.24C97.8451 16.56 97.3751 17.31 96.9351 18.49C96.4951 19.67 96.2751 21.02 96.2751 22.54C96.2751 24.7 96.8251 25.78 97.9251 25.78ZM104.751 28.09H104.181C104.181 27.15 104.461 25.35 105.021 22.69C105.601 20.03 105.891 18.52 105.891 18.16C105.891 17.5 105.611 16.8 105.051 16.06L104.781 15.7L104.811 15.31C105.891 15.01 107.621 14.86 110.001 14.86C110.261 15.2 110.401 15.82 110.421 16.72C112.161 15.38 113.631 14.71 114.831 14.71C115.551 14.71 116.121 14.96 116.541 15.46C116.981 15.96 117.201 16.59 117.201 17.35C117.201 18.09 116.971 19.38 116.511 21.22C116.051 23.06 115.821 24.3 115.821 24.94C115.821 25.56 115.901 25.87 116.061 25.87C116.181 25.87 116.601 25.68 117.321 25.3L117.681 25.12L118.221 26.17C118.041 26.33 117.801 26.53 117.501 26.77C117.201 27.01 116.641 27.34 115.821 27.76C115.021 28.16 114.301 28.36 113.661 28.36C112.201 28.36 111.471 27.53 111.471 25.87C111.471 25.17 111.691 23.88 112.131 22C112.591 20.12 112.821 18.91 112.821 18.37C112.821 17.83 112.651 17.56 112.311 17.56C111.731 17.56 111.021 17.81 110.181 18.31C110.121 18.65 109.921 19.55 109.581 21.01C108.881 24.15 108.531 26.37 108.531 27.67C107.831 27.95 106.571 28.09 104.751 28.09ZM122.955 31.24C122.295 31.64 121.965 32.03 121.965 32.41C121.965 32.79 122.175 32.98 122.595 32.98C123.035 32.98 123.525 32.77 124.065 32.35C124.605 31.95 125.055 31.29 125.415 30.37C124.455 30.55 123.635 30.84 122.955 31.24ZM131.865 14.92C131.945 15 131.985 15.18 131.985 15.46C131.985 15.72 131.965 16.01 131.925 16.33C131.885 16.63 131.815 17.32 131.715 18.4C131.615 19.48 131.515 20.42 131.415 21.22C130.395 30.22 127.655 34.72 123.195 34.72C122.475 34.72 121.815 34.53 121.215 34.15C120.635 33.77 120.345 33.28 120.345 32.68C120.345 31.88 120.835 31.15 121.815 30.49C122.795 29.83 124.115 29.32 125.775 28.96C125.775 28.94 125.835 28.66 125.955 28.12C126.075 27.58 126.155 27.14 126.195 26.8C124.995 27.68 123.865 28.12 122.805 28.12C121.765 28.12 120.905 27.71 120.225 26.89C119.565 26.07 119.235 24.76 119.235 22.96C119.235 20.6 119.765 18.64 120.825 17.08C121.885 15.5 123.285 14.71 125.025 14.71C126.005 14.71 126.975 14.95 127.935 15.43C128.955 15.07 130.055 14.89 131.235 14.89L131.865 14.92ZM126.375 16.48C125.515 16.48 124.835 17.18 124.335 18.58C123.835 19.96 123.585 21.5 123.585 23.2C123.585 24.88 123.965 25.72 124.725 25.72C125.225 25.72 125.815 25.53 126.495 25.15C127.055 21.79 127.455 19.02 127.695 16.84C127.135 16.6 126.695 16.48 126.375 16.48ZM133.662 28.09H133.452C133.412 27.93 133.392 27.57 133.392 27.01C133.392 26.43 133.662 24.89 134.202 22.39C134.742 19.89 135.012 18.46 135.012 18.1C135.012 17.48 134.732 16.8 134.172 16.06L133.902 15.7L133.932 15.31C135.012 15.01 136.742 14.86 139.122 14.86C139.362 15.38 139.482 16.11 139.482 17.05C139.702 16.69 140.162 16.21 140.862 15.61C141.562 15.01 142.282 14.71 143.022 14.71C144.102 14.71 144.642 15.65 144.642 17.53C144.542 17.65 144.402 17.81 144.222 18.01C144.062 18.19 143.722 18.45 143.202 18.79C142.702 19.13 142.212 19.34 141.732 19.42C141.712 19.42 141.542 19.15 141.222 18.61C140.902 18.07 140.662 17.8 140.502 17.8C140.002 17.98 139.562 18.28 139.182 18.7C138.262 22.84 137.802 25.52 137.802 26.74C137.802 27.18 137.812 27.49 137.832 27.67C137.132 27.95 135.742 28.09 133.662 28.09ZM152.93 15.58C152.97 15.54 153.08 15.28 153.26 14.8C154.2 14.8 155.46 15.08 157.04 15.64C156.54 17.3 156.14 19.04 155.84 20.86C155.54 22.66 155.39 23.95 155.39 24.73C155.39 25.49 155.47 25.87 155.63 25.87C155.75 25.87 156.19 25.68 156.95 25.3L157.31 25.12L157.85 26.17C157.67 26.33 157.43 26.53 157.13 26.77C156.85 27.01 156.31 27.34 155.51 27.76C154.71 28.16 153.99 28.36 153.35 28.36C152.11 28.36 151.39 27.8 151.19 26.68C149.91 27.8 148.75 28.36 147.71 28.36C146.69 28.36 145.82 27.96 145.1 27.16C144.4 26.36 144.05 25.1 144.05 23.38C144.05 20.7 144.6 18.59 145.7 17.05C146.8 15.49 148.13 14.71 149.69 14.71C150.81 14.71 151.89 15 152.93 15.58ZM149.51 25.81C149.99 25.81 150.53 25.62 151.13 25.24C151.27 22.42 151.74 19.63 152.54 16.87C151.94 16.61 151.43 16.48 151.01 16.48C150.29 16.48 149.67 17.19 149.15 18.61C148.65 20.01 148.4 21.56 148.4 23.26C148.4 24.96 148.77 25.81 149.51 25.81ZM167.794 15.07C167.754 15.57 167.584 16.15 167.284 16.81C166.524 16.73 165.804 16.69 165.124 16.69H164.584C163.664 21.15 163.204 23.93 163.204 25.03C163.204 25.61 163.324 25.9 163.564 25.9C163.824 25.9 164.494 25.65 165.574 25.15L166.114 26.14C164.334 27.62 162.684 28.36 161.164 28.36C160.464 28.36 159.884 28.14 159.424 27.7C158.984 27.26 158.764 26.68 158.764 25.96C158.764 25.22 158.844 24.39 159.004 23.47C159.184 22.55 159.424 21.43 159.724 20.11C160.024 18.77 160.244 17.69 160.384 16.87C159.644 16.93 159.094 16.99 158.734 17.05C158.694 16.81 158.674 16.49 158.674 16.09C158.674 15.67 158.704 15.33 158.764 15.07H160.654C160.814 13.99 160.894 12.97 160.894 12.01L160.864 11.08V10.99C162.424 10.45 163.894 10.18 165.274 10.18C165.354 10.58 165.394 11.08 165.394 11.68C165.394 12.28 165.224 13.41 164.884 15.07H167.794ZM167.726 25.75C167.726 24.89 167.986 23.43 168.506 21.37C169.026 19.29 169.286 18.02 169.286 17.56C169.286 17.08 168.926 16.45 168.206 15.67L168.236 15.28C169.596 15 171.386 14.86 173.606 14.86C173.706 15.12 173.756 15.59 173.756 16.27C173.756 16.95 173.476 18.4 172.916 20.62C172.356 22.84 172.076 24.22 172.076 24.76C172.076 25.3 172.276 25.57 172.676 25.57C173.256 25.57 173.926 25.36 174.686 24.94C174.766 24.46 174.966 23.54 175.286 22.18C176.006 18.98 176.366 16.69 176.366 15.31C177.066 15.03 178.326 14.89 180.146 14.89H180.716C180.716 15.83 180.436 17.67 179.876 20.41C179.316 23.13 179.036 24.73 179.036 25.21C179.036 25.67 179.136 25.9 179.336 25.9C179.456 25.9 180.026 25.66 181.046 25.18L181.616 26.14C179.836 27.62 178.276 28.36 176.936 28.36C176.296 28.36 175.746 28.18 175.286 27.82C174.846 27.46 174.596 26.99 174.536 26.41C172.916 27.73 171.446 28.39 170.126 28.39C169.426 28.39 168.846 28.16 168.386 27.7C167.946 27.24 167.726 26.59 167.726 25.75ZM184.767 28.36C184.087 28.36 183.517 28.13 183.057 27.67C182.617 27.21 182.397 26.57 182.397 25.75C182.397 24.91 182.887 22.26 183.867 17.8C184.867 13.32 185.367 10.09 185.367 8.11L185.187 6.79C186.747 6.25 188.207 5.98 189.567 5.98C189.767 6.26 189.867 6.75 189.867 7.45C189.867 9.05 189.357 12.15 188.337 16.75C187.337 21.33 186.837 24 186.837 24.76C186.837 25.5 186.927 25.87 187.107 25.87L189.207 25.12L189.747 26.17C189.067 26.71 188.237 27.21 187.257 27.67C186.297 28.13 185.467 28.36 184.767 28.36ZM199.365 15.58C199.405 15.54 199.515 15.28 199.695 14.8C200.635 14.8 201.895 15.08 203.475 15.64C202.975 17.3 202.575 19.04 202.275 20.86C201.975 22.66 201.825 23.95 201.825 24.73C201.825 25.49 201.905 25.87 202.065 25.87C202.185 25.87 202.625 25.68 203.385 25.3L203.745 25.12L204.285 26.17C204.105 26.33 203.865 26.53 203.565 26.77C203.285 27.01 202.745 27.34 201.945 27.76C201.145 28.16 200.425 28.36 199.785 28.36C198.545 28.36 197.825 27.8 197.625 26.68C196.345 27.8 195.185 28.36 194.145 28.36C193.125 28.36 192.255 27.96 191.535 27.16C190.835 26.36 190.485 25.1 190.485 23.38C190.485 20.7 191.035 18.59 192.135 17.05C193.235 15.49 194.565 14.71 196.125 14.71C197.245 14.71 198.325 15 199.365 15.58ZM195.945 25.81C196.425 25.81 196.965 25.62 197.565 25.24C197.705 22.42 198.175 19.63 198.975 16.87C198.375 16.61 197.865 16.48 197.445 16.48C196.725 16.48 196.105 17.19 195.585 18.61C195.085 20.01 194.835 21.56 194.835 23.26C194.835 24.96 195.205 25.81 195.945 25.81ZM214.229 15.07C214.189 15.57 214.019 16.15 213.719 16.81C212.959 16.73 212.239 16.69 211.559 16.69H211.019C210.099 21.15 209.639 23.93 209.639 25.03C209.639 25.61 209.759 25.9 209.999 25.9C210.259 25.9 210.929 25.65 212.009 25.15L212.549 26.14C210.769 27.62 209.119 28.36 207.599 28.36C206.899 28.36 206.319 28.14 205.859 27.7C205.419 27.26 205.199 26.68 205.199 25.96C205.199 25.22 205.279 24.39 205.439 23.47C205.619 22.55 205.859 21.43 206.159 20.11C206.459 18.77 206.679 17.69 206.819 16.87C206.079 16.93 205.529 16.99 205.169 17.05C205.129 16.81 205.109 16.49 205.109 16.09C205.109 15.67 205.139 15.33 205.199 15.07H207.089C207.249 13.99 207.329 12.97 207.329 12.01L207.299 11.08V10.99C208.859 10.45 210.329 10.18 211.709 10.18C211.789 10.58 211.829 11.08 211.829 11.68C211.829 12.28 211.659 13.41 211.319 15.07H214.229ZM220.19 16.57C220.19 17.41 219.92 18.86 219.38 20.92C218.84 22.96 218.57 24.3 218.57 24.94C218.57 25.56 218.66 25.87 218.84 25.87C218.96 25.87 219.42 25.68 220.22 25.3L220.58 25.12L221.09 26.17C220.91 26.33 220.67 26.53 220.37 26.77C220.07 27.01 219.51 27.34 218.69 27.76C217.87 28.16 217.11 28.36 216.41 28.36C215.71 28.36 215.16 28.15 214.76 27.73C214.36 27.29 214.16 26.71 214.16 25.99C214.16 25.25 214.41 23.95 214.91 22.09C215.41 20.21 215.66 18.99 215.66 18.43C215.66 17.59 215.4 16.8 214.88 16.06L214.61 15.7L214.64 15.31C215.7 15.01 217.42 14.86 219.8 14.86C220.06 15.16 220.19 15.73 220.19 16.57ZM216.77 11.59C216.37 11.19 216.17 10.66 216.17 10C216.17 9.34 216.44 8.76 216.98 8.26C217.54 7.76 218.18 7.51 218.9 7.51C219.62 7.51 220.18 7.71 220.58 8.11C220.98 8.51 221.18 9.04 221.18 9.7C221.18 10.34 220.89 10.91 220.31 11.41C219.75 11.91 219.12 12.16 218.42 12.16C217.72 12.16 217.17 11.97 216.77 11.59ZM226.354 28.36C224.974 28.36 223.894 27.88 223.114 26.92C222.334 25.94 221.944 24.58 221.944 22.84C221.944 20.62 222.534 18.71 223.714 17.11C224.914 15.51 226.564 14.71 228.664 14.71L229.744 14.77C230.084 14.59 230.464 14.5 230.884 14.5C232.464 14.5 233.254 15.99 233.254 18.97C234.074 18.93 234.904 18.82 235.744 18.64L236.224 18.52L236.404 19.69C235.744 19.97 234.854 20.22 233.734 20.44L233.134 20.56C232.754 22.66 231.984 24.49 230.824 26.05C229.664 27.59 228.174 28.36 226.354 28.36ZM227.974 25.78C228.814 25.78 229.564 25.24 230.224 24.16C230.904 23.08 231.374 21.94 231.634 20.74C229.494 20.74 228.424 19.94 228.424 18.34C228.424 17.7 228.554 17.1 228.814 16.54L228.964 16.24C228.884 16.2 228.784 16.18 228.664 16.18C228.544 16.18 228.454 16.2 228.394 16.24C227.894 16.56 227.424 17.31 226.984 18.49C226.544 19.67 226.324 21.02 226.324 22.54C226.324 24.7 226.874 25.78 227.974 25.78ZM234.8 28.09H234.23C234.23 27.15 234.51 25.35 235.07 22.69C235.65 20.03 235.94 18.52 235.94 18.16C235.94 17.5 235.66 16.8 235.1 16.06L234.83 15.7L234.86 15.31C235.94 15.01 237.67 14.86 240.05 14.86C240.31 15.2 240.45 15.82 240.47 16.72C242.21 15.38 243.68 14.71 244.88 14.71C245.6 14.71 246.17 14.96 246.59 15.46C247.03 15.96 247.25 16.59 247.25 17.35C247.25 18.09 247.02 19.38 246.56 21.22C246.1 23.06 245.87 24.3 245.87 24.94C245.87 25.56 245.95 25.87 246.11 25.87C246.23 25.87 246.65 25.68 247.37 25.3L247.73 25.12L248.27 26.17C248.09 26.33 247.85 26.53 247.55 26.77C247.25 27.01 246.69 27.34 245.87 27.76C245.07 28.16 244.35 28.36 243.71 28.36C242.25 28.36 241.52 27.53 241.52 25.87C241.52 25.17 241.74 23.88 242.18 22C242.64 20.12 242.87 18.91 242.87 18.37C242.87 17.83 242.7 17.56 242.36 17.56C241.78 17.56 241.07 17.81 240.23 18.31C240.17 18.65 239.97 19.55 239.63 21.01C238.93 24.15 238.58 26.37 238.58 27.67C237.88 27.95 236.62 28.09 234.8 28.09ZM258.494 24.07C258.494 25.33 257.934 26.36 256.814 27.16C255.714 27.96 254.454 28.36 253.034 28.36C251.614 28.36 250.484 28.06 249.644 27.46C248.824 26.86 248.414 26.33 248.414 25.87C248.414 25.59 248.764 25.14 249.464 24.52C250.164 23.88 250.754 23.49 251.234 23.35C252.234 24.09 253.054 25.26 253.694 26.86C254.434 26.8 254.804 26.45 254.804 25.81C254.804 24.89 253.994 23.59 252.374 21.91C250.754 20.21 249.944 18.86 249.944 17.86C249.944 16.86 250.394 16.09 251.294 15.55C252.194 14.99 253.274 14.71 254.534 14.71C255.814 14.71 256.774 14.94 257.414 15.4C258.054 15.84 258.374 16.45 258.374 17.23C258.374 17.99 257.764 19.05 256.544 20.41C256.684 20.55 256.864 20.74 257.084 20.98C257.304 21.2 257.594 21.63 257.954 22.27C258.314 22.91 258.494 23.51 258.494 24.07ZM255.614 19.36C256.454 18.64 256.874 17.93 256.874 17.23C256.874 16.53 256.394 16.18 255.434 16.18C254.974 16.18 254.594 16.28 254.294 16.48C253.994 16.66 253.844 16.87 253.844 17.11C253.844 17.55 254.284 18.17 255.164 18.97L255.614 19.36ZM259.708 27.52C259.708 26.08 260.268 24.73 261.388 23.47C262.428 23.47 263.288 23.78 263.968 24.4C264.648 25 264.988 25.71 264.988 26.53C264.988 28.57 263.768 30.98 261.328 33.76L260.068 32.95C261.308 31.07 261.978 29.74 262.078 28.96L259.708 27.52ZM88.8885 66.54C88.1885 66.54 87.1385 66.14 85.7385 65.34C84.3385 64.52 83.1785 63.98 82.2585 63.72C81.5785 64.44 80.9185 65.03 80.2785 65.49C79.6585 65.93 79.2385 66.15 79.0185 66.15C78.7985 66.15 78.3985 65.8 77.8185 65.1C77.2585 64.38 76.9785 63.84 76.9785 63.48C76.9785 63.1 77.3085 62.57 77.9685 61.89C78.6485 61.19 79.4285 60.84 80.3085 60.84C80.8485 60.84 81.3785 60.9 81.8985 61.02C83.2985 59.9 84.6285 58.28 85.8885 56.16C87.1485 54.02 87.7785 52.15 87.7785 50.55C87.7785 49.65 87.5085 48.95 86.9685 48.45C86.4285 47.93 85.7685 47.67 84.9885 47.67C84.2285 47.67 83.4785 47.92 82.7385 48.42C82.0185 48.92 81.3985 49.61 80.8785 50.49L79.4985 49.89C79.8985 48.63 80.7985 47.45 82.1985 46.35C83.6185 45.25 85.1885 44.7 86.9085 44.7C88.6485 44.7 89.9985 45.17 90.9585 46.11C91.9385 47.05 92.4285 48.23 92.4285 49.65C92.4285 50.67 92.1285 51.79 91.5285 53.01C90.9485 54.21 90.1985 55.36 89.2785 56.46C87.5585 58.48 85.8385 60.18 84.1185 61.56C86.6185 62.24 88.5485 62.58 89.9085 62.58C90.2885 62.58 90.5685 62.48 90.7485 62.28C90.9285 62.06 91.2085 61.57 91.5885 60.81L92.5785 61.02C92.3785 64.7 91.1485 66.54 88.8885 66.54ZM109.532 52.44C109.532 55.8 108.782 58.88 107.282 61.68C106.542 63.08 105.532 64.21 104.252 65.07C102.992 65.93 101.562 66.36 99.962 66.36C98.022 66.36 96.562 65.65 95.582 64.23C94.602 62.79 94.112 60.89 94.112 58.53C94.112 54.45 95.002 51.13 96.782 48.57C98.562 45.99 100.852 44.7 103.652 44.7C105.652 44.7 107.132 45.43 108.092 46.89C109.052 48.33 109.532 50.18 109.532 52.44ZM100.232 64.35C101.132 64.35 101.912 63.77 102.572 62.61C103.252 61.43 103.742 60 104.042 58.32C104.622 55.04 104.912 52.58 104.912 50.94C104.912 49.28 104.772 48.17 104.492 47.61C104.232 47.03 103.752 46.74 103.052 46.74C102.372 46.74 101.732 47.21 101.132 48.15C100.552 49.09 100.092 50.3 99.752 51.78C99.072 54.7 98.732 57.66 98.732 60.66C98.732 62.1 98.862 63.08 99.122 63.6C99.382 64.1 99.752 64.35 100.232 64.35ZM120.851 66.54C120.151 66.54 119.101 66.14 117.701 65.34C116.301 64.52 115.141 63.98 114.221 63.72C113.541 64.44 112.881 65.03 112.241 65.49C111.621 65.93 111.201 66.15 110.981 66.15C110.761 66.15 110.361 65.8 109.781 65.1C109.221 64.38 108.941 63.84 108.941 63.48C108.941 63.1 109.271 62.57 109.931 61.89C110.611 61.19 111.391 60.84 112.271 60.84C112.811 60.84 113.341 60.9 113.861 61.02C115.261 59.9 116.591 58.28 117.851 56.16C119.111 54.02 119.741 52.15 119.741 50.55C119.741 49.65 119.471 48.95 118.931 48.45C118.391 47.93 117.731 47.67 116.951 47.67C116.191 47.67 115.441 47.92 114.701 48.42C113.981 48.92 113.361 49.61 112.841 50.49L111.461 49.89C111.861 48.63 112.761 47.45 114.161 46.35C115.581 45.25 117.151 44.7 118.871 44.7C120.611 44.7 121.961 45.17 122.921 46.11C123.901 47.05 124.391 48.23 124.391 49.65C124.391 50.67 124.091 51.79 123.491 53.01C122.911 54.21 122.161 55.36 121.241 56.46C119.521 58.48 117.801 60.18 116.081 61.56C118.581 62.24 120.511 62.58 121.871 62.58C122.251 62.58 122.531 62.48 122.711 62.28C122.891 62.06 123.171 61.57 123.551 60.81L124.541 61.02C124.341 64.7 123.111 66.54 120.851 66.54ZM127.545 66.09H127.245C127.285 64.63 127.855 61.51 128.955 56.73C130.055 51.93 130.605 49.06 130.605 48.12C130.605 47.66 130.595 47.38 130.575 47.28C129.475 47.88 128.275 48.83 126.975 50.13C126.735 50.01 126.485 49.8 126.225 49.5C125.985 49.18 125.805 48.9 125.685 48.66L125.505 48.3L130.515 45.09C131.995 44.83 133.515 44.7 135.075 44.7C135.315 45.1 135.435 45.74 135.435 46.62C135.435 47.48 135.185 49 134.685 51.18C134.185 53.34 133.665 55.76 133.125 58.44C132.585 61.1 132.285 63.45 132.225 65.49C131.505 65.89 129.945 66.09 127.545 66.09ZM148.402 72.72C147.402 72.72 146.572 72.47 145.912 71.97C145.252 71.49 144.922 70.82 144.922 69.96C144.922 67.66 147.272 66.15 151.972 65.43C152.152 64.77 152.292 64.13 152.392 63.51C151.472 64.07 150.502 64.35 149.482 64.35C147.622 64.35 146.122 63.68 144.982 62.34C143.842 60.98 143.272 59.22 143.272 57.06C143.272 54.9 143.692 52.9 144.532 51.06C145.372 49.22 146.572 47.7 148.132 46.5C149.712 45.3 151.382 44.7 153.142 44.7C154.922 44.7 156.372 45.14 157.492 46.02C158.632 46.88 159.202 47.98 159.202 49.32C159.202 50.12 159.062 50.77 158.782 51.27C158.622 51.29 158.402 51.3 158.122 51.3C156.582 51.3 155.422 51.05 154.642 50.55L154.672 47.31C154.192 46.89 153.562 46.68 152.782 46.68C151.562 46.68 150.482 47.62 149.542 49.5C148.602 51.36 148.132 53.63 148.132 56.31C148.132 58.09 148.422 59.4 149.002 60.24C149.582 61.08 150.272 61.5 151.072 61.5C152.272 61.5 153.352 60.9 154.312 59.7C155.272 58.5 155.962 57.07 156.382 55.41L158.002 55.68C157.242 61.4 156.092 65.67 154.552 68.49C153.012 71.31 150.962 72.72 148.402 72.72ZM146.872 69.87C146.872 70.43 147.342 70.71 148.282 70.71C148.762 70.71 149.332 70.41 149.992 69.81C150.652 69.23 151.152 68.47 151.492 67.53C150.332 67.63 149.272 67.89 148.312 68.31C147.352 68.75 146.872 69.27 146.872 69.87ZM160.264 66.09H160.054C160.014 65.93 159.994 65.57 159.994 65.01C159.994 64.43 160.264 62.89 160.804 60.39C161.344 57.89 161.614 56.46 161.614 56.1C161.614 55.48 161.334 54.8 160.774 54.06L160.504 53.7L160.534 53.31C161.614 53.01 163.344 52.86 165.724 52.86C165.964 53.38 166.084 54.11 166.084 55.05C166.304 54.69 166.764 54.21 167.464 53.61C168.164 53.01 168.884 52.71 169.624 52.71C170.704 52.71 171.244 53.65 171.244 55.53C171.144 55.65 171.004 55.81 170.824 56.01C170.664 56.19 170.324 56.45 169.804 56.79C169.304 57.13 168.814 57.34 168.334 57.42C168.314 57.42 168.144 57.15 167.824 56.61C167.504 56.07 167.264 55.8 167.104 55.8C166.604 55.98 166.164 56.28 165.784 56.7C164.864 60.84 164.404 63.52 164.404 64.74C164.404 65.18 164.414 65.49 164.434 65.67C163.734 65.95 162.344 66.09 160.264 66.09ZM179.531 53.58C179.571 53.54 179.681 53.28 179.861 52.8C180.801 52.8 182.061 53.08 183.641 53.64C183.141 55.3 182.741 57.04 182.441 58.86C182.141 60.66 181.991 61.95 181.991 62.73C181.991 63.49 182.071 63.87 182.231 63.87C182.351 63.87 182.791 63.68 183.551 63.3L183.911 63.12L184.451 64.17C184.271 64.33 184.031 64.53 183.731 64.77C183.451 65.01 182.911 65.34 182.111 65.76C181.311 66.16 180.591 66.36 179.951 66.36C178.711 66.36 177.991 65.8 177.791 64.68C176.511 65.8 175.351 66.36 174.311 66.36C173.291 66.36 172.421 65.96 171.701 65.16C171.001 64.36 170.651 63.1 170.651 61.38C170.651 58.7 171.201 56.59 172.301 55.05C173.401 53.49 174.731 52.71 176.291 52.71C177.411 52.71 178.491 53 179.531 53.58ZM176.111 63.81C176.591 63.81 177.131 63.62 177.731 63.24C177.871 60.42 178.341 57.63 179.141 54.87C178.541 54.61 178.031 54.48 177.611 54.48C176.891 54.48 176.271 55.19 175.751 56.61C175.251 58.01 175.001 59.56 175.001 61.26C175.001 62.96 175.371 63.81 176.111 63.81ZM199.225 64.17C197.525 65.63 196.025 66.36 194.725 66.36C193.445 66.36 192.705 65.72 192.505 64.44C191.905 65.04 191.235 65.51 190.495 65.85C189.755 66.19 189.105 66.36 188.545 66.36C187.585 66.36 186.765 65.94 186.085 65.1C185.405 64.26 185.065 62.96 185.065 61.2C185.065 58.56 185.625 56.49 186.745 54.99C187.865 53.47 189.125 52.71 190.525 52.71C191.945 52.71 193.135 53.03 194.095 53.67C194.715 50.43 195.025 47.88 195.025 46.02L194.875 44.76C196.375 44.24 197.845 43.98 199.285 43.98C199.445 44.32 199.525 44.71 199.525 45.15C199.525 46.61 199.085 49.58 198.205 54.06C197.325 58.52 196.885 61.55 196.885 63.15C196.885 63.63 196.995 63.87 197.215 63.87C197.335 63.87 197.715 63.68 198.355 63.3L198.655 63.12L199.225 64.17ZM191.995 54.48C191.295 54.48 190.685 55.17 190.165 56.55C189.665 57.93 189.415 59.3 189.415 60.66C189.415 62 189.505 62.86 189.685 63.24C189.885 63.62 190.175 63.81 190.555 63.81C191.215 63.81 191.865 63.54 192.505 63C192.565 62.2 193.015 59.54 193.855 55.02C193.175 54.66 192.555 54.48 191.995 54.48ZM200.304 63.75C200.304 62.89 200.564 61.43 201.084 59.37C201.604 57.29 201.864 56.02 201.864 55.56C201.864 55.08 201.504 54.45 200.784 53.67L200.814 53.28C202.174 53 203.964 52.86 206.184 52.86C206.284 53.12 206.334 53.59 206.334 54.27C206.334 54.95 206.054 56.4 205.494 58.62C204.934 60.84 204.654 62.22 204.654 62.76C204.654 63.3 204.854 63.57 205.254 63.57C205.834 63.57 206.504 63.36 207.264 62.94C207.344 62.46 207.544 61.54 207.864 60.18C208.584 56.98 208.944 54.69 208.944 53.31C209.644 53.03 210.904 52.89 212.724 52.89H213.294C213.294 53.83 213.014 55.67 212.454 58.41C211.894 61.13 211.614 62.73 211.614 63.21C211.614 63.67 211.714 63.9 211.914 63.9C212.034 63.9 212.604 63.66 213.624 63.18L214.194 64.14C212.414 65.62 210.854 66.36 209.514 66.36C208.874 66.36 208.324 66.18 207.864 65.82C207.424 65.46 207.174 64.99 207.114 64.41C205.494 65.73 204.024 66.39 202.704 66.39C202.004 66.39 201.424 66.16 200.964 65.7C200.524 65.24 200.304 64.59 200.304 63.75ZM223.975 53.58C224.015 53.54 224.125 53.28 224.305 52.8C225.245 52.8 226.505 53.08 228.085 53.64C227.585 55.3 227.185 57.04 226.885 58.86C226.585 60.66 226.435 61.95 226.435 62.73C226.435 63.49 226.515 63.87 226.675 63.87C226.795 63.87 227.235 63.68 227.995 63.3L228.355 63.12L228.895 64.17C228.715 64.33 228.475 64.53 228.175 64.77C227.895 65.01 227.355 65.34 226.555 65.76C225.755 66.16 225.035 66.36 224.395 66.36C223.155 66.36 222.435 65.8 222.235 64.68C220.955 65.8 219.795 66.36 218.755 66.36C217.735 66.36 216.865 65.96 216.145 65.16C215.445 64.36 215.095 63.1 215.095 61.38C215.095 58.7 215.645 56.59 216.745 55.05C217.845 53.49 219.175 52.71 220.735 52.71C221.855 52.71 222.935 53 223.975 53.58ZM220.555 63.81C221.035 63.81 221.575 63.62 222.175 63.24C222.315 60.42 222.785 57.63 223.585 54.87C222.985 54.61 222.475 54.48 222.055 54.48C221.335 54.48 220.715 55.19 220.195 56.61C219.695 58.01 219.445 59.56 219.445 61.26C219.445 62.96 219.815 63.81 220.555 63.81ZM238.839 53.07C238.799 53.57 238.629 54.15 238.329 54.81C237.569 54.73 236.849 54.69 236.169 54.69H235.629C234.709 59.15 234.249 61.93 234.249 63.03C234.249 63.61 234.369 63.9 234.609 63.9C234.869 63.9 235.539 63.65 236.619 63.15L237.159 64.14C235.379 65.62 233.729 66.36 232.209 66.36C231.509 66.36 230.929 66.14 230.469 65.7C230.029 65.26 229.809 64.68 229.809 63.96C229.809 63.22 229.889 62.39 230.049 61.47C230.229 60.55 230.469 59.43 230.769 58.11C231.069 56.77 231.289 55.69 231.429 54.87C230.689 54.93 230.139 54.99 229.779 55.05C229.739 54.81 229.719 54.49 229.719 54.09C229.719 53.67 229.749 53.33 229.809 53.07H231.699C231.859 51.99 231.939 50.97 231.939 50.01L231.909 49.08V48.99C233.469 48.45 234.939 48.18 236.319 48.18C236.399 48.58 236.439 49.08 236.439 49.68C236.439 50.28 236.269 51.41 235.929 53.07H238.839ZM238.176 60.81C238.176 58.31 238.926 56.34 240.426 54.9C241.946 53.44 243.666 52.71 245.586 52.71C246.766 52.71 247.736 53 248.496 53.58C249.256 54.16 249.636 54.94 249.636 55.92C249.636 56.88 249.386 57.69 248.886 58.35C248.406 59.01 247.816 59.52 247.116 59.88C245.696 60.58 244.396 61.02 243.216 61.2L242.496 61.29C242.636 63.17 243.406 64.11 244.806 64.11C245.286 64.11 245.796 63.99 246.336 63.75C246.876 63.51 247.296 63.27 247.596 63.03L248.046 62.67L248.766 63.63C248.606 63.85 248.286 64.14 247.806 64.5C247.326 64.86 246.876 65.16 246.456 65.4C245.296 66.04 244.026 66.36 242.646 66.36C241.266 66.36 240.176 65.87 239.376 64.89C238.576 63.91 238.176 62.55 238.176 60.81ZM242.466 59.82C243.486 59.64 244.296 59.21 244.896 58.53C245.496 57.85 245.796 56.97 245.796 55.89C245.796 54.81 245.476 54.27 244.836 54.27C244.076 54.27 243.486 54.92 243.066 56.22C242.666 57.5 242.466 58.7 242.466 59.82ZM259.842 62.07C259.842 63.33 259.282 64.36 258.162 65.16C257.062 65.96 255.802 66.36 254.382 66.36C252.962 66.36 251.832 66.06 250.992 65.46C250.172 64.86 249.762 64.33 249.762 63.87C249.762 63.59 250.112 63.14 250.812 62.52C251.512 61.88 252.102 61.49 252.582 61.35C253.582 62.09 254.402 63.26 255.042 64.86C255.782 64.8 256.152 64.45 256.152 63.81C256.152 62.89 255.342 61.59 253.722 59.91C252.102 58.21 251.292 56.86 251.292 55.86C251.292 54.86 251.742 54.09 252.642 53.55C253.542 52.99 254.622 52.71 255.882 52.71C257.162 52.71 258.122 52.94 258.762 53.4C259.402 53.84 259.722 54.45 259.722 55.23C259.722 55.99 259.112 57.05 257.892 58.41C258.032 58.55 258.212 58.74 258.432 58.98C258.652 59.2 258.942 59.63 259.302 60.27C259.662 60.91 259.842 61.51 259.842 62.07ZM256.962 57.36C257.802 56.64 258.222 55.93 258.222 55.23C258.222 54.53 257.742 54.18 256.782 54.18C256.322 54.18 255.942 54.28 255.642 54.48C255.342 54.66 255.192 54.87 255.192 55.11C255.192 55.55 255.632 56.17 256.512 56.97L256.962 57.36ZM268.976 46.08C268.976 48.06 268.326 51.17 267.026 55.41C266.926 55.75 266.736 56.37 266.456 57.27C266.196 58.15 265.996 58.83 265.856 59.31C265.316 59.49 264.836 59.58 264.416 59.58C264.016 59.58 263.656 59.56 263.336 59.52C264.056 55.18 264.416 51.35 264.416 48.03L264.236 45.51C265.936 44.97 267.456 44.7 268.796 44.7C268.916 44.88 268.976 45.34 268.976 46.08ZM261.866 65.79C261.466 65.39 261.266 64.86 261.266 64.2C261.266 63.54 261.536 62.96 262.076 62.46C262.636 61.96 263.276 61.71 263.996 61.71C264.716 61.71 265.276 61.91 265.676 62.31C266.076 62.71 266.276 63.24 266.276 63.9C266.276 64.54 265.986 65.11 265.406 65.61C264.846 66.11 264.216 66.36 263.516 66.36C262.816 66.36 262.266 66.17 261.866 65.79Z" fill="white"/>
<defs>
<linearGradient id="paint0_linear" x1="377.5" y1="57.8948" x2="289" y2="57.8948" gradientUnits="userSpaceOnUse">
<stop stop-color="#AB0520"/>
<stop offset="1" stop-color="white" stop-opacity="0"/>
</linearGradient>
<linearGradient id="paint1_linear" x1="-32.5" y1="57.8948" x2="56" y2="57.8948" gradientUnits="userSpaceOnUse">
<stop stop-color="#AB0520"/>
<stop offset="1" stop-color="white" stop-opacity="0"/>
</linearGradient>
</defs>
</svg>
