<svg width="113" height="112" viewBox="0 0 113 112" fill="none" xmlns="http://www.w3.org/2000/svg">
<rect width="112.8" height="112" fill="white"/>
<path d="M67.1572 16V27.1675L66.0066 27.1537L70.5674 39.193L74.4904 39.2068V50.3743H36.7847V39.2206H40.6661L45.2685 27.1537H44.0902L44.104 16H67.1572Z" fill="white"/>
<path d="M55.6376 20.1376H62.9154V23.016H59.8934L67.8504 43.2614H70.1932V46.2366H60.337V43.3444H57.5645V49.0181H73.132V40.5491L69.6387 40.5629L64.0382 25.8113H65.7988V17.3423H55.6376H45.4765V25.8113H47.237L41.6227 40.5352L38.1294 40.5491V49.0181H53.6969V43.3444H50.9244V46.2366H41.0682V43.2614H43.4248L51.368 23.016H48.346V20.1376H55.6376Z" fill="#0C234B"/>
<path d="M76.2094 47.4682H76.5698C76.6557 47.4939 76.7473 47.4939 76.8332 47.4682C76.8623 47.4424 76.885 47.4103 76.8994 47.3742C76.9139 47.3382 76.9197 47.2993 76.9164 47.2606C76.9175 47.2262 76.9105 47.1921 76.8961 47.1608C76.8817 47.1296 76.8601 47.1022 76.8332 47.0807C76.7464 47.062 76.6566 47.062 76.5698 47.0807H76.2094V47.4682ZM75.946 46.7486H76.6114C76.7645 46.7415 76.9156 46.7853 77.0412 46.8731C77.0909 46.9095 77.1308 46.9576 77.1574 47.0132C77.184 47.0687 77.1965 47.1299 77.1936 47.1914C77.1965 47.2589 77.1843 47.3262 77.1579 47.3884C77.1315 47.4506 77.0917 47.5062 77.0412 47.5512C76.9583 47.6201 76.8572 47.6634 76.75 47.6757L77.2214 48.3953H76.9164L76.4867 47.6896H76.2094V48.3953H75.946V46.7486ZM77.4154 46.7486C77.1946 46.5289 76.8955 46.4055 76.5837 46.4055C76.2719 46.4055 75.9728 46.5289 75.752 46.7486C75.531 46.9714 75.4071 47.2723 75.4071 47.5858C75.4071 47.8993 75.531 48.2002 75.752 48.423C75.9728 48.6427 76.2719 48.7661 76.5837 48.7661C76.8955 48.7661 77.1946 48.6427 77.4154 48.423C77.6364 48.2002 77.7603 47.8993 77.7603 47.5858C77.7603 47.2723 77.6364 46.9714 77.4154 46.7486ZM77.6234 46.5825C77.7597 46.7118 77.8682 46.8674 77.9424 47.0399C78.0166 47.2124 78.0548 47.3981 78.0548 47.5858C78.0548 47.7735 78.0166 47.9592 77.9424 48.1317C77.8682 48.3042 77.7597 48.4598 77.6234 48.5891C77.3427 48.8548 76.9705 49.0029 76.5837 49.0029C76.1968 49.0029 75.8247 48.8548 75.544 48.5891C75.4077 48.4598 75.2991 48.3042 75.225 48.1317C75.1508 47.9592 75.1125 47.7735 75.1125 47.5858C75.1125 47.3981 75.1508 47.2124 75.225 47.0399C75.2991 46.8674 75.4077 46.7118 75.544 46.5825C75.6813 46.4482 75.8438 46.3424 76.0223 46.2711C76.2007 46.1999 76.3915 46.1646 76.5837 46.1674C76.7764 46.1606 76.9684 46.194 77.1474 46.2655C77.3264 46.337 77.4885 46.4449 77.6234 46.5825Z" fill="#0C234B"/>
<path d="M55.6236 20.1514L63.7054 40.9088C63.7054 40.9088 64.7312 43.4274 66.4779 43.4274H60.5309C60.5309 43.4274 60.8359 43.4274 61.127 42.9845C61.2123 42.7618 61.2123 42.5154 61.127 42.2926L59.311 37.6153H51.9362L50.1064 42.2926C50.0211 42.5154 50.0211 42.7618 50.1064 42.9845C50.4114 43.4689 50.7025 43.4274 50.7025 43.4274H44.8525C46.5299 43.4274 47.5557 40.9088 47.5557 40.9088L55.6236 20.1514ZM55.6236 35.3735H58.4654L55.6098 28.1637L52.8373 35.415L55.6236 35.3735Z" fill="#AB0520"/>
<path d="M30.1584 54.7745H28.8137V54.0964H32.3764V54.7745H30.9624V59.009H30.1584V54.7745Z" fill="#0C234B"/>
<path d="M33.2083 54.0964H34.04V56.1307H36.3273V54.0964H37.1452V59.009H36.3273V56.7811H34.04V59.009H33.2083V54.0964Z" fill="#0C234B"/>
<path d="M38.573 54.0964H41.3593V54.7745H39.3909V56.0753H41.0682V56.7257H39.3909V58.331H41.3593V59.009H38.573V54.0964Z" fill="#0C234B"/>
<path d="M44.4505 57.2654V54.0964H45.2684V57.1962C45.2684 57.9435 45.615 58.3863 46.3635 58.3863C47.1121 58.3863 47.4725 57.9435 47.4725 57.1962V54.0964H48.2211V57.2654C48.2414 57.5128 48.2063 57.7616 48.1184 57.9938C48.0305 58.226 47.8919 58.4358 47.7128 58.608C47.5337 58.7802 47.3185 58.9104 47.0827 58.9894C46.847 59.0683 46.5966 59.0939 46.3497 59.0644C46.1006 59.0955 45.8476 59.0712 45.609 58.9935C45.3703 58.9157 45.1518 58.7862 44.969 58.6144C44.7863 58.4425 44.6438 58.2325 44.5518 57.9993C44.4597 57.7661 44.4204 57.5155 44.4367 57.2654" fill="#0C234B"/>
<path d="M49.6074 54.0964H50.4669L52.3799 57.0993C52.5185 57.3346 52.6849 57.639 52.7958 57.8743C52.7958 57.6529 52.7958 57.4176 52.7958 57.1824V54.0964H53.5443V59.009H52.6572L50.7996 55.9923C50.6452 55.7523 50.5063 55.5027 50.3837 55.245C50.3837 55.4664 50.3837 55.6602 50.3837 55.9231V59.009H49.6074V54.0964Z" fill="#0C234B"/>
<path d="M55.8316 54.0964H55.0137V59.009H55.8316V54.0964Z" fill="#0C234B"/>
<path d="M56.7048 54.0964H57.6059L58.5901 57.127C58.701 57.4868 58.8396 57.9712 58.8951 58.1926C58.8951 57.9712 59.0892 57.473 59.2001 57.127L60.1982 54.0964H61.0438L59.311 59.009H58.4238L56.7048 54.0964Z" fill="#0C234B"/>
<path d="M61.8894 54.0964H64.6896V54.7745H62.7073V56.0753H64.3846V56.7257H62.7073V58.331H64.6896V59.009H61.8894V54.0964Z" fill="#0C234B"/>
<path d="M68.2938 58.483L67.268 56.9055H66.6858V59.0089H65.8679V54.0963H67.6284C67.8218 54.0769 68.0171 54.0983 68.2016 54.1591C68.3861 54.2199 68.5558 54.3187 68.6996 54.4492C68.8434 54.5797 68.9581 54.7389 69.0362 54.9165C69.1144 55.0941 69.1543 55.2861 69.1533 55.4801C69.1427 55.776 69.0373 56.0606 68.8527 56.2922C68.6681 56.5239 68.4139 56.6903 68.1275 56.7671L69.0424 58.1509C69.0849 58.2272 69.1473 58.2907 69.2229 58.3345C69.2986 58.3784 69.3847 58.401 69.4721 58.4H69.6385V59.0366H69.3335C69.1291 59.0438 68.9269 58.9931 68.7502 58.8902C68.5735 58.7873 68.4297 58.6365 68.3354 58.4553L68.2938 58.483ZM67.4621 56.2966C67.5729 56.3134 67.686 56.3052 67.7932 56.2725C67.9004 56.2399 67.9988 56.1836 68.0813 56.1079C68.1638 56.0322 68.2282 55.939 68.2698 55.8351C68.3114 55.7313 68.3291 55.6194 68.3216 55.5078C68.3216 54.9958 68.0443 54.719 67.4621 54.719H66.7274V56.2966H67.4621Z" fill="#0C234B"/>
<path d="M70.2485 58.8155V58.0821C70.6327 58.2737 71.0531 58.3822 71.4822 58.4003C72.0783 58.4003 72.4249 58.1651 72.4249 57.6807C72.4249 57.1964 72.0229 57.058 71.2882 56.7259C70.9883 56.6422 70.7254 56.4602 70.5419 56.2091C70.3583 55.9581 70.2647 55.6527 70.2762 55.3421C70.2762 54.4564 70.9277 53.9583 71.8704 53.9583C72.2725 53.9684 72.6704 54.0431 73.0487 54.1797V54.8854C72.6873 54.7654 72.3056 54.7183 71.9258 54.747C71.3713 54.747 71.0802 54.9684 71.0802 55.3836C71.0802 55.7987 71.3713 55.9094 71.8981 56.1309C72.4249 56.3523 73.2844 56.6567 73.2844 57.6946C73.2844 58.7325 72.5912 59.0784 71.6209 59.0784C71.1472 59.0834 70.6768 58.9989 70.2346 58.8293" fill="#0C234B"/>
<path d="M75.2529 54.0964H74.4351V59.009H75.2529V54.0964Z" fill="#0C234B"/>
<path d="M77.4848 54.7745H76.1401V54.0964H79.7028V54.7745H78.3027V59.009H77.4848V54.7745Z" fill="#0C234B"/>
<path d="M81.5463 57.0853L79.9382 54.1101H80.8254L82.0037 56.3796L83.1404 54.1101H83.9861L82.3642 57.0853V59.0089H81.5463V57.0853Z" fill="#0C234B"/>
<path d="M34.5667 65.0706C34.5272 64.7538 34.556 64.4323 34.651 64.1275C34.746 63.8227 34.9052 63.5417 35.1178 63.3032C35.3304 63.0648 35.5916 62.8744 35.8838 62.7449C36.1761 62.6153 36.4927 62.5496 36.8124 62.552C37.1322 62.5452 37.4497 62.6076 37.7431 62.7348C38.0364 62.862 38.2988 63.0511 38.5121 63.289C38.7254 63.5269 38.8847 63.8081 38.9789 64.1132C39.0732 64.4183 39.1002 64.7402 39.0581 65.0567C39.0974 65.3742 39.0687 65.6963 38.9737 66.0018C38.8788 66.3073 38.7199 66.5891 38.5075 66.8286C38.2951 67.0681 38.0342 67.2598 37.7419 67.3909C37.4497 67.522 37.1328 67.5896 36.8124 67.5891C36.492 67.5939 36.1743 67.5296 35.8809 67.4009C35.5876 67.2721 35.3254 67.0817 35.1124 66.8427C34.8993 66.6038 34.7403 66.3218 34.6461 66.016C34.552 65.7102 34.5249 65.3878 34.5667 65.0706ZM38.1848 65.0706C38.1848 63.9635 37.7412 63.2439 36.7986 63.2439C35.8559 63.2439 35.4123 63.9774 35.4123 65.0844C35.4123 66.1915 35.842 66.9249 36.7986 66.9249C37.7551 66.9249 38.1848 66.1915 38.1848 65.0706Z" fill="#0C234B"/>
<path d="M40.1948 62.6072H43.0366V63.2853H41.0127V64.6414H42.8287V65.278H41.0127V67.5198H40.1948V62.6072Z" fill="#0C234B"/>
<path d="M47.3202 62.6072H48.2212L49.9956 67.5198H49.0945L48.7064 66.385H46.7241L46.3359 67.5198H45.4487L47.3202 62.6072ZM48.54 65.7069L48.0687 64.3231C47.9578 63.991 47.8192 63.5897 47.7638 63.3544C47.7638 63.5897 47.5697 63.991 47.4588 64.3231L46.9597 65.7069H48.54Z" fill="#0C234B"/>
<path d="M53.3363 67.0076L52.3798 65.4162H51.7976V67.5196H50.9797V62.607H52.6987C52.8931 62.5855 53.0899 62.6054 53.2761 62.6652C53.4623 62.7251 53.6337 62.8236 53.779 62.9543C53.9244 63.085 54.0404 63.245 54.1194 63.4236C54.1984 63.6023 54.2386 63.7956 54.2374 63.9909C54.2259 64.2885 54.1186 64.5745 53.9313 64.8064C53.7439 65.0382 53.4867 65.2036 53.1977 65.2778L54.1126 66.6616C54.152 66.7416 54.2133 66.8087 54.2893 66.8553C54.3654 66.9018 54.4532 66.9258 54.5424 66.9246H54.7087V67.5473H54.4038C54.2008 67.5559 53.9995 67.5072 53.823 67.4068C53.6465 67.3065 53.5018 67.1585 53.4057 66.9799L53.3363 67.0076ZM52.5323 64.8073C52.6431 64.8241 52.7562 64.8159 52.8634 64.7833C52.9706 64.7506 53.069 64.6944 53.1515 64.6187C53.234 64.543 53.2984 64.4497 53.34 64.3459C53.3816 64.242 53.3993 64.1301 53.3918 64.0185C53.3918 63.5065 53.1145 63.2298 52.5323 63.2298H51.7976V64.8073H52.5323Z" fill="#0C234B"/>
<path d="M56.3999 62.6072H55.582V67.5198H56.3999V62.6072Z" fill="#0C234B"/>
<path d="M57.5088 66.9109L59.8515 63.2853H57.6058V62.6072H60.808V63.2576L58.493 66.8417H60.8635V67.5198H57.5088V66.9109Z" fill="#0C234B"/>
<path d="M61.5289 65.0706C61.4894 64.7538 61.5181 64.4323 61.6131 64.1275C61.7082 63.8227 61.8673 63.5417 62.0799 63.3032C62.2925 63.0648 62.5537 62.8744 62.846 62.7449C63.1382 62.6153 63.4548 62.5496 63.7746 62.552C64.0944 62.5452 64.4118 62.6076 64.7052 62.7348C64.9986 62.862 65.2609 63.0511 65.4743 63.289C65.6876 63.5269 65.8468 63.8081 65.9411 64.1132C66.0353 64.4183 66.0623 64.7402 66.0203 65.0567C66.0596 65.3742 66.0308 65.6963 65.9359 66.0018C65.841 66.3073 65.6821 66.5891 65.4697 66.8286C65.2573 67.0681 64.9963 67.2598 64.7041 67.3909C64.4118 67.522 64.095 67.5896 63.7746 67.5891C63.4541 67.5939 63.1364 67.5296 62.8431 67.4009C62.5497 67.2721 62.2876 67.0817 62.0745 66.8427C61.8614 66.6038 61.7024 66.3218 61.6083 66.016C61.5141 65.7102 61.487 65.3878 61.5289 65.0706ZM65.147 65.0706C65.147 63.9635 64.7034 63.2439 63.7607 63.2439C62.8181 63.2439 62.3745 63.9774 62.3745 65.0844C62.3745 66.1915 62.8042 66.9249 63.7607 66.9249C64.7172 66.9249 65.147 66.1915 65.147 65.0706Z" fill="#0C234B"/>
<path d="M67.1711 62.6072H68.0306L69.9298 65.6239C70.082 65.8747 70.2208 66.1334 70.3456 66.3989C70.3456 66.1774 70.3456 65.9422 70.3456 65.6931V62.6072H71.0803V67.5198H70.207L68.3356 64.5169C68.1782 64.2738 68.0392 64.0194 67.9197 63.7558C67.9197 63.9772 67.9197 64.1847 67.9197 64.4338V67.5198H67.1711V62.6072Z" fill="#0C234B"/>
<path d="M73.7973 62.6072H74.7399L76.5143 67.5198H75.6132L75.2251 66.385H73.1735L72.7853 67.5198H71.9397L73.7973 62.6072ZM75.0172 65.7069L74.5458 64.3231C74.4349 63.991 74.2963 63.5897 74.2409 63.3544C74.2409 63.5897 74.0468 63.991 73.9359 64.3231L73.4368 65.7069H75.0172Z" fill="#0C234B"/>
<path d="M33.721 80.9567C33.6724 80.3993 33.7466 79.8381 33.9383 79.3123C34.1301 78.7866 34.4349 78.3091 34.8312 77.9135C35.2275 77.5179 35.7058 77.2136 36.2325 77.0222C36.7591 76.8307 37.3214 76.7567 37.8798 76.8052C38.7293 76.782 39.5757 76.9181 40.375 77.2066V79.1578C39.6213 78.8396 38.8088 78.6839 37.9907 78.7011C36.8124 78.7011 36.0915 79.3377 36.0915 80.9014C36.0915 82.4651 36.7015 82.991 37.8936 82.991C38.1091 82.9952 38.3241 82.9672 38.5313 82.9079V81.9254H37.5193V80.2787H40.8325V84.4301C39.8905 84.7497 38.9024 84.9134 37.9075 84.9145C37.3684 84.973 36.8229 84.9143 36.3087 84.7424C35.7944 84.5705 35.3236 84.2895 34.9284 83.9188C34.5333 83.548 34.2232 83.0962 34.0196 82.5944C33.816 82.0927 33.7236 81.5529 33.7488 81.0121" fill="#0C234B"/>
<path d="M42.6067 76.957H44.9217V82.9213H47.6249V84.7618H42.6067V76.957Z" fill="#0C234B"/>
<path d="M48.3459 80.8599C48.3145 80.3372 48.3932 79.8138 48.5767 79.3233C48.7602 78.8329 49.0446 78.3862 49.4116 78.0121C49.7785 77.6379 50.2199 77.3447 50.7072 77.1511C51.1946 76.9576 51.7171 76.868 52.2412 76.8883C53.3037 76.8883 54.3228 77.3097 55.0741 78.0597C55.8254 78.8097 56.2475 79.8269 56.2475 80.8876C56.2475 81.9482 55.8254 82.9655 55.0741 83.7155C54.3228 84.4655 53.3037 84.8868 52.2412 84.8868C51.7146 84.9074 51.1896 84.8172 50.7002 84.622C50.2108 84.4268 49.7681 84.131 49.4007 83.7538C49.0333 83.3767 48.7496 82.9265 48.5678 82.4327C48.3861 81.9389 48.3105 81.4125 48.3459 80.8876V80.8599ZM53.7384 80.8876C53.7384 79.393 53.1284 78.7841 52.2412 78.7841C51.354 78.7841 50.7718 79.4069 50.7718 80.8876C50.7718 82.3683 51.3679 82.991 52.2412 82.991C53.1146 82.991 53.7661 82.3406 53.7661 80.8599" fill="#0C234B"/>
<path d="M57.5645 76.957H60.9746C62.7351 76.957 63.7471 77.7735 63.7471 78.9636C63.784 79.3454 63.6885 79.7282 63.4765 80.0481C63.2646 80.368 62.949 80.6055 62.5826 80.721C62.9788 80.799 63.3348 81.0137 63.5883 81.3274C63.8418 81.6412 63.9765 82.034 63.9689 82.437C63.9689 83.973 62.7629 84.748 60.9746 84.748H57.5645V76.957ZM60.6142 80.0015C61.1964 80.0015 61.4182 79.7662 61.4182 79.3511C61.4182 78.9359 61.1825 78.7283 60.628 78.7283H59.8656V80.0015H60.6142ZM60.6142 83.0044C61.141 83.0044 61.4598 82.7414 61.4598 82.2571C61.4598 81.7728 61.141 81.5237 60.6142 81.5237H59.8656V83.0044H60.6142Z" fill="#0C234B"/>
<path d="M67.5176 76.957H70.0267L72.9794 84.7618H70.4841L70.096 83.5856H67.3235L66.9215 84.7618H64.551L67.5176 76.957ZM69.5138 81.7589L69.0147 80.0983C68.9078 79.7997 68.8198 79.4947 68.7513 79.185C68.6682 79.5033 68.585 79.7939 68.4879 80.0983L67.9612 81.7589H69.5138Z" fill="#0C234B"/>
<path d="M74.019 76.957H76.3202V82.9213H79.0372V84.7618H74.019V76.957Z" fill="#0C234B"/>
<path d="M32.0158 92.1103C31.9521 91.57 32.0078 91.0222 32.1789 90.5057C32.3501 89.9891 32.6327 89.5163 33.0067 89.1205C33.3807 88.7247 33.8371 88.4156 34.3437 88.2149C34.8503 88.0142 35.3948 87.9268 35.9389 87.9589C36.6453 87.9471 37.3471 88.0741 38.0044 88.3325V90.3114C37.4581 90.0253 36.8464 89.887 36.23 89.9101C35.1487 89.9101 34.4556 90.5328 34.4556 92.0827C34.4556 93.6325 35.1487 94.0754 36.2023 94.0754C36.8495 94.1048 37.4895 93.9306 38.0321 93.5772V95.5837C37.3936 95.8897 36.6874 96.0279 35.9805 95.9851C35.4551 96.0323 34.9257 95.9653 34.4289 95.7885C33.932 95.6116 33.4795 95.3293 33.1025 94.9609C32.7256 94.5925 32.4332 94.1469 32.2456 93.6548C32.058 93.1626 31.9796 92.6357 32.0158 92.1103Z" fill="#0C234B"/>
<path d="M41.7059 88.083H44.215L47.1677 95.8878H44.6724L44.2981 94.7115H41.5257L41.1375 95.8878H38.7532L41.7059 88.083ZM43.7021 92.8849L43.1753 91.2381C43.0644 90.906 42.9951 90.6292 42.9119 90.3248C42.8287 90.6292 42.7594 90.9199 42.6485 91.2381L42.1217 92.8849H43.7021Z" fill="#0C234B"/>
<path d="M48.7756 88.083H51.5481L52.5184 92.2345C52.6293 92.6496 52.7125 93.1617 52.7818 93.6183C52.8511 93.217 52.9343 92.6912 53.0313 92.2345L54.0017 88.083H56.7742L57.8139 95.8878H55.5543L55.1523 92.4421C55.1523 91.9992 55.0691 91.4319 55.0414 91.0582C54.9873 91.5243 54.904 91.9865 54.7919 92.4421L53.9047 95.9431H51.4233L50.55 92.4836C50.4391 92.0408 50.3282 91.4319 50.2727 91.0998C50.2727 91.418 50.2034 92.1376 50.1618 92.5666L49.8153 95.9431H47.7498L48.7756 88.083Z" fill="#0C234B"/>
<path d="M59.311 88.0831H62.5826C62.9642 88.0428 63.35 88.0853 63.7137 88.2078C64.0773 88.3303 64.4101 88.5298 64.6892 88.7927C64.9684 89.0555 65.1873 89.3756 65.3309 89.7308C65.4745 90.0861 65.5395 90.4681 65.5214 90.8508C65.5214 92.4007 64.4124 93.4801 62.4855 93.4801H61.6261V95.9018H59.311V88.0831ZM62.2776 91.7779C62.4046 91.7941 62.5337 91.7808 62.6548 91.7391C62.7758 91.6973 62.8856 91.6282 62.9755 91.5371C63.0653 91.446 63.133 91.3354 63.173 91.214C63.2131 91.0926 63.2245 90.9635 63.2064 90.8369C63.2251 90.7109 63.2139 90.5822 63.1739 90.4612C63.1338 90.3402 63.0659 90.2302 62.9756 90.1401C62.8854 90.05 62.7752 89.9822 62.654 89.9422C62.5328 89.9022 62.4039 89.8911 62.2776 89.9098H61.6261V91.7779H62.2776Z" fill="#0C234B"/>
<path d="M66.8521 92.8434V88.083H69.1671V92.8295C69.1671 92.9876 69.1983 93.1442 69.2589 93.2903C69.3195 93.4363 69.4083 93.569 69.5203 93.6808C69.6323 93.7926 69.7653 93.8813 69.9116 93.9418C70.0579 94.0023 70.2147 94.0335 70.3731 94.0335C70.5315 94.0335 70.6883 94.0023 70.8346 93.9418C70.981 93.8813 71.1139 93.7926 71.2259 93.6808C71.3379 93.569 71.4267 93.4363 71.4873 93.2903C71.5479 93.1442 71.5791 92.9876 71.5791 92.8295V88.083H73.7417V92.8434C73.7417 95.1267 72.5079 95.9847 70.3731 95.9847C68.2383 95.9847 66.8521 95.1267 66.8521 92.8434Z" fill="#0C234B"/>
<path d="M75.2528 95.5145V93.4941C75.9066 93.8455 76.6318 94.0443 77.3737 94.0753C78.15 94.0753 78.4134 93.8401 78.4134 93.5495C78.4134 93.2589 77.9144 93.1481 76.6945 92.6223C76.2382 92.4498 75.8485 92.1371 75.5819 91.7291C75.3153 91.3212 75.1855 90.8392 75.2112 90.3528C75.2112 88.6784 76.4727 87.9311 78.1778 87.9311C78.8948 87.9252 79.6075 88.0423 80.2849 88.2771V90.2283C79.6851 89.949 79.0335 89.7982 78.3718 89.7854C77.748 89.7854 77.4985 89.9515 77.4985 90.2559C77.4985 90.5604 77.9976 90.7541 78.8847 91.0171C79.4523 91.1242 79.9607 91.4356 80.3133 91.8923C80.666 92.3489 80.8384 92.9189 80.7978 93.4941C80.7978 95.1824 79.4115 95.9712 77.7896 95.9712C76.9198 95.9998 76.0542 95.8392 75.2528 95.5007" fill="#0C234B"/>
<path d="M79.5362 71.6575H33.2773V72.1972H79.5362V71.6575Z" fill="#0C234B"/>
</svg>
