<?xml version="1.0" encoding="utf-8"?>
<!-- Generator: Adobe Illustrator 17.1.0, SVG Export Plug-In . SVG Version: 6.00 Build 0)  -->
<!DOCTYPE svg PUBLIC "-//W3C//DTD SVG 1.1//EN" "http://www.w3.org/Graphics/SVG/1.1/DTD/svg11.dtd">
<svg version="1.1" id="Layer_1" xmlns="http://www.w3.org/2000/svg" xmlns:xlink="http://www.w3.org/1999/xlink" x="0px" y="0px"
	 viewBox="0 1036.2 792 187.8" enable-background="new 0 1036.2 792 187.8" xml:space="preserve">
<g>
	<path fill="#0C234B" d="M226.8,1117.7c0,3.1,0.3,5.3,0.8,6.8s1.5,2.8,2.7,4H214c1.3-1.2,2.2-2.5,2.7-4s0.8-3.7,0.8-6.8v-43.4h-4.8
		c-3.3,0-6,0.3-8.1,0.8s-3.7,1.4-4.9,2.5l3-10h42.7l-2.8,9.8c-0.9-1.1-2.1-1.9-3.5-2.4c-1.5-0.5-3.3-0.8-5.5-0.8h-6.7L226.8,1117.7
		L226.8,1117.7z"/>
	<path fill="#0C234B" d="M259.3,1118.9c0,2.7,0.2,4.8,0.7,6.1c0.5,1.3,1.3,2.5,2.4,3.5h-14.6c1.1-1,1.9-2.2,2.4-3.5
		c0.5-1.3,0.7-3.3,0.7-6.1v-35.1c0-2.7-0.2-4.8-0.7-6.1c-0.5-1.3-1.3-2.5-2.4-3.5h14.6c-1.1,1-2,2.2-2.4,3.5
		c-0.5,1.3-0.7,3.3-0.7,6.1v12.1H288v-12.1c0-2.7-0.2-4.8-0.7-6.1c-0.5-1.3-1.3-2.5-2.4-3.5h14.6c-1.1,1-1.9,2.2-2.4,3.5
		c-0.5,1.3-0.7,3.3-0.7,6.1v35.1c0,2.7,0.2,4.8,0.7,6.1c0.5,1.3,1.3,2.5,2.4,3.5h-14.6c1.2-1,2-2.2,2.4-3.5c0.5-1.3,0.7-3.3,0.7-6.1
		v-16.7h-28.7V1118.9L259.3,1118.9z"/>
	<path fill="#0C234B" d="M306.6,1128.4c1.1-1,1.9-2.2,2.4-3.5c0.5-1.3,0.7-3.3,0.7-6.1v-35.1c0-2.7-0.2-4.8-0.7-6.1
		c-0.5-1.3-1.3-2.5-2.4-3.5h29.2v8.6c-1.3-1.1-2.7-1.8-4.3-2.3c-1.6-0.5-3.4-0.7-5.4-0.7c-1.1,0-2.2,0.1-3.5,0.3s-2.8,0.4-4.4,0.8
		v15.3h13.1v7.9c-0.6-0.7-1.5-1.3-2.5-1.6c-1.1-0.3-3-0.5-5.8-0.5h-4.8v19.4c2,0.3,3.9,0.5,5.5,0.7c1.6,0.2,3.1,0.2,4.3,0.2
		c2.7,0,5.3-0.4,7.7-1.1c2.4-0.7,4.8-1.9,7.1-3.4l-3.7,10.6L306.6,1128.4L306.6,1128.4z"/>
	<path fill="#0C234B" d="M410.9,1128.4v-4.6c-2.9,2.1-5.8,3.7-8.8,4.7s-6,1.6-9,1.6c-3.5,0-6.6-0.6-9.3-1.7c-2.7-1.2-5.1-2.9-7-5.2
		c-1.5-1.8-2.7-4-3.3-6.4c-0.7-2.4-1-5.7-1-9.8v-28.5c0-3-0.3-5.3-0.8-6.8s-1.4-2.7-2.7-3.9h16.3c-1.2,1.1-2.1,2.4-2.7,3.9
		c-0.5,1.4-0.8,3.7-0.8,6.8v26.7c0,4.1,0.2,7.2,0.6,9.2s1.1,3.6,2,4.8c1.1,1.4,2.7,2.5,4.6,3.2c1.9,0.7,4.1,1.1,6.8,1.1
		c2.2,0,4.2-0.3,6.1-1c1.9-0.6,3.5-1.6,5-2.8c1.3-1,2.2-2.4,2.7-4.1s0.8-3.9,0.8-6.8v-30.2c0-3.2-0.3-5.5-0.8-6.9s-1.4-2.7-2.7-3.8
		h16.4c-1.3,1.1-2.2,2.4-2.7,4c-0.5,1.5-0.8,3.8-0.8,6.7v39.2c0,3,0.3,5.3,0.8,6.8s1.4,2.8,2.7,3.9L410.9,1128.4L410.9,1128.4z"/>
	<path fill="#0C234B" d="M482.8,1074.2c-1.2,1-2,2.2-2.4,3.5c-0.5,1.3-0.7,3.3-0.7,6.1v46c-1.9-0.1-3.6-0.7-5.3-1.8
		c-1.7-1.2-3.8-3.4-6.3-6.7l-27.6-35.3v33c0,2.8,0.2,4.9,0.7,6.2s1.3,2.4,2.4,3.4h-12.1c1.1-1,1.9-2.2,2.4-3.5s0.7-3.3,0.7-6.1V1084
		c0-2.7-0.2-4.8-0.7-6.1s-1.3-2.5-2.4-3.5h10.8l31.6,40.7v-31.2c0-2.7-0.2-4.8-0.7-6.1s-1.3-2.5-2.4-3.5L482.8,1074.2L482.8,1074.2z
		"/>
	<path fill="#0C234B" d="M503.1,1118.9c0,2.7,0.2,4.8,0.7,6.1c0.5,1.3,1.3,2.5,2.4,3.5h-14.6c1.2-1,2-2.2,2.4-3.5
		c0.5-1.3,0.7-3.3,0.7-6.1v-35.1c0-2.7-0.2-4.8-0.7-6.1c-0.5-1.3-1.3-2.5-2.4-3.5h14.6c-1.2,1-2,2.2-2.4,3.5
		c-0.5,1.3-0.7,3.3-0.7,6.1V1118.9L503.1,1118.9z"/>
	<path fill="#0C234B" d="M537.2,1129.9c-2.3-0.6-4.2-1.9-5.8-3.9s-3.1-5-4.5-9l-10.8-31.6c-0.9-2.6-1.7-4.7-2.5-6.4
		c-0.8-1.6-1.7-3.2-2.6-4.7h11c0.1,0.9,0.1,1.7,0.3,2.5c0.1,0.8,0.3,1.5,0.5,2.2l13,38.8l12.3-32.3c0.4-1,0.6-2,0.9-3
		c0.2-1,0.3-1.9,0.3-2.8c0-0.7-0.2-1.5-0.6-2.3c-0.4-0.8-1.1-1.8-2.1-3.1h12.2L537.2,1129.9L537.2,1129.9z"/>
	<path fill="#0C234B" d="M562.6,1128.4c1.1-1,1.9-2.2,2.4-3.5c0.5-1.3,0.7-3.3,0.7-6.1v-35.1c0-2.7-0.2-4.8-0.7-6.1
		c-0.5-1.3-1.3-2.5-2.4-3.5h29.2v8.6c-1.3-1.1-2.7-1.8-4.3-2.3s-3.4-0.7-5.4-0.7c-1,0-2.2,0.1-3.5,0.3s-2.8,0.4-4.4,0.8v15.3h13.1
		v7.9c-0.6-0.7-1.5-1.3-2.5-1.6s-3-0.5-5.8-0.5h-4.8v19.4c2,0.3,3.9,0.5,5.5,0.7c1.6,0.2,3.1,0.2,4.3,0.2c2.7,0,5.3-0.4,7.7-1.1
		s4.8-1.9,7.1-3.4l-3.7,10.6L562.6,1128.4L562.6,1128.4z"/>
	<path fill="#0C234B" d="M613.9,1118.9c0,2.7,0.2,4.8,0.7,6.1c0.5,1.3,1.3,2.5,2.4,3.5h-14.6c1.1-1,1.9-2.2,2.4-3.5
		c0.5-1.3,0.7-3.3,0.7-6.1v-35.1c0-2.7-0.2-4.8-0.7-6.1c-0.5-1.3-1.3-2.5-2.4-3.5h18.5c5.3,0,9.5,1.3,12.8,3.8
		c3.2,2.6,4.9,5.9,4.9,10c0,3-1,5.6-2.9,7.8c-2,2.3-5,4.3-9.1,6l13.9,18.8c0.8,1.1,1.8,2.3,3,3.6c1.1,1.3,2.5,2.6,3.9,3.9l-4.1,0.4
		h-0.7c-1.9,0-3.8-0.5-5.7-1.6c-1.8-1-3.4-2.5-4.7-4.3l-15.9-22.3c4.7-1.1,8.2-2.5,10.4-4.4s3.3-4.3,3.3-7.2c0-2.7-0.9-5-2.8-6.7
		c-1.9-1.7-4.3-2.6-7.4-2.6c-0.7,0-1.5,0.1-2.5,0.2c-1,0.1-2.1,0.3-3.3,0.5L613.9,1118.9L613.9,1118.9z"/>
	<path fill="#0C234B" d="M649.9,1127.2l-2.5-9.8c3.1,2.1,6.1,3.7,9,4.7s5.8,1.5,8.7,1.5c3.7,0,6.6-0.8,8.8-2.4
		c2.2-1.6,3.3-3.7,3.3-6.2c0-0.7-0.1-1.5-0.3-2.2s-0.5-1.4-1-2.1c-1-1.5-4.2-3.6-9.8-6.4c-1.4-0.7-2.5-1.2-3.3-1.6
		c-5.2-2.7-8.8-5.1-10.7-7.3c-1.9-2.2-2.9-4.9-2.9-8c0-4.4,1.8-7.9,5.3-10.5c3.5-2.6,8.4-3.9,14.5-3.9c1.8,0,3.7,0.1,5.8,0.4
		c2.1,0.2,4.4,0.6,6.9,1.1v9.1c-2.2-1.7-4.4-3-6.7-3.8c-2.2-0.8-4.5-1.3-7-1.3c-3,0-5.5,0.7-7.4,2c-1.9,1.3-2.8,3.1-2.8,5.2
		c0,1.9,0.7,3.6,2.2,5c1.4,1.5,4.7,3.4,9.8,5.9c0.3,0.1,0.7,0.3,1.3,0.6c4.3,2,7.5,3.9,9.6,5.5c1.6,1.2,2.8,2.8,3.7,4.6
		s1.3,3.7,1.3,5.7c0,4.7-2.1,8.6-6.3,11.9c-4.2,3.2-9.4,4.9-15.7,4.9c-2,0-4.2-0.2-6.5-0.7C655.2,1128.9,652.6,1128.2,649.9,1127.2
		L649.9,1127.2z"/>
	<path fill="#0C234B" d="M704.8,1118.9c0,2.7,0.2,4.8,0.7,6.1c0.5,1.3,1.3,2.5,2.4,3.5h-14.7c1.2-1,2-2.2,2.4-3.5
		c0.5-1.3,0.7-3.3,0.7-6.1v-35.1c0-2.7-0.2-4.8-0.7-6.1c-0.5-1.3-1.3-2.5-2.4-3.5H708c-1.2,1-2,2.2-2.4,3.5
		c-0.5,1.3-0.7,3.3-0.7,6.1L704.8,1118.9L704.8,1118.9z"/>
	<path fill="#0C234B" d="M404.7,1165.4l-8.8,22.6h17.5L404.7,1165.4L404.7,1165.4z M405.7,1146.1l4.8,11.8l18.3,46
		c2,5.1,3.6,10.1,8.6,12.7v0.3h-18.1v-0.3c4.3-2,3.6-2.9,1.2-9.2l-4.8-12.6h-22.4l-4.6,12.6c-1.9,5-2.5,7.6,1.8,9.2v0.3h-16.2v-0.3
		c5.1-2.6,6.6-7.6,8.5-12.7l22.7-57.4v-0.4H405.7z"/>
	<path fill="#0C234B" d="M292.4,1167.1c-5.9,0-10.8,2.1-14.7,6.2c-3.9,4.1-5.8,9.4-5.8,15.9c0,6.6,1.9,12.1,5.7,16.5
		c3.8,4.4,8.6,6.6,14.3,6.6c5.9,0,10.8-2.1,14.7-6.2c3.8-4.2,5.8-9.5,5.8-15.9c0-6.6-1.9-12.1-5.7-16.5
		C302.9,1169.2,298.1,1167.1,292.4,1167.1L292.4,1167.1z M292.1,1218.1c-4.1,0-7.9-0.7-11.5-2s-6.7-3.2-9.3-5.7
		c-2.7-2.6-4.8-5.7-6.3-9.2s-2.2-7.2-2.2-11.1c0-3,0.5-6,1.4-8.9s2.3-5.5,4.1-8c2.8-3.8,6.2-6.8,10.4-8.8c4.1-2.1,8.6-3.1,13.4-3.1
		c4.1,0,8,0.7,11.6,2c3.6,1.3,6.7,3.2,9.3,5.7c2.8,2.6,4.9,5.7,6.3,9.2c1.5,3.6,2.2,7.4,2.2,11.5c0,3.8-0.8,7.5-2.5,11.1
		c-1.6,3.6-4,6.8-6.9,9.6c-2.7,2.5-5.7,4.4-9.1,5.7C299.7,1217.4,296,1218.1,292.1,1218.1L292.1,1218.1z"/>
	<path fill="#0C234B" d="M337.6,1207.2c0,2.7,0.2,4.8,0.7,6.1s1.3,2.5,2.5,3.5h-14.7c1.1-1,1.9-2.2,2.4-3.5s0.7-3.3,0.7-6.1v-35.1
		c0-2.7-0.2-4.8-0.7-6.1s-1.3-2.5-2.4-3.5h29.3v8.6c-1.3-1.1-2.7-1.8-4.3-2.3c-1.6-0.5-3.4-0.7-5.4-0.7c-1.1,0-2.2,0.1-3.6,0.3
		c-1.3,0.2-2.8,0.4-4.4,0.8v15.3h13.2v7.9c-0.6-0.7-1.5-1.3-2.5-1.5c-1.1-0.3-3-0.5-5.8-0.5h-4.9L337.6,1207.2L337.6,1207.2z"/>
	<path fill="#0C234B" d="M453,1207.2c0,2.7,0.2,4.7,0.7,6.1c0.5,1.3,1.3,2.5,2.4,3.5h-14.6c1.1-1,1.9-2.2,2.4-3.5s0.7-3.3,0.7-6.1
		v-35.1c0-2.7-0.2-4.8-0.7-6.1s-1.3-2.5-2.4-3.5H460c5.3,0,9.5,1.3,12.8,3.8c3.2,2.6,4.8,5.9,4.8,10c0,3-1,5.6-2.9,7.9
		c-1.9,2.3-5,4.3-9.1,6l13.9,18.8c0.8,1.1,1.8,2.3,3,3.5s2.5,2.5,4,3.9l-4.1,0.4h-0.7c-1.9,0-3.8-0.5-5.7-1.6
		c-1.9-1-3.4-2.5-4.7-4.3l-15.9-22.3c4.7-1.1,8.2-2.5,10.4-4.4c2.2-1.9,3.3-4.3,3.3-7.2c0-2.7-0.9-5-2.8-6.7s-4.3-2.6-7.4-2.6
		c-0.7,0-1.5,0.1-2.5,0.2c-1,0.1-2.1,0.3-3.3,0.5L453,1207.2L453,1207.2z"/>
	<path fill="#0C234B" d="M502.5,1207.2c0,2.7,0.2,4.8,0.7,6.1s1.3,2.5,2.4,3.5H491c1.1-1,1.9-2.2,2.4-3.5s0.7-3.3,0.7-6.1v-35.1
		c0-2.7-0.2-4.7-0.7-6.1c-0.5-1.3-1.3-2.5-2.4-3.5h14.6c-1.2,1-2,2.2-2.4,3.5c-0.5,1.3-0.7,3.3-0.7,6.1V1207.2L502.5,1207.2z"/>
	<path fill="#0C234B" d="M556.6,1206.6l-3.9,10.1H511l28.4-47.2c-2.1-0.5-4.1-0.9-6-1.2s-3.6-0.4-5.2-0.4c-2.4,0-4.6,0.3-6.8,0.9
		c-2.2,0.6-4.4,1.5-6.7,2.8l3.7-9.1H553l-28.4,47.2c3.2,0.4,5.8,0.6,8,0.8c2.1,0.2,4,0.2,5.6,0.2c3.7,0,7.1-0.4,10.1-1
		C551.3,1209.1,554.1,1207.9,556.6,1206.6L556.6,1206.6z"/>
	<path fill="#0C234B" d="M587.7,1167.1c-6,0-10.9,2.1-14.7,6.2c-3.8,4.1-5.8,9.4-5.8,15.9c0,6.6,1.9,12.1,5.7,16.5
		c3.8,4.4,8.6,6.6,14.3,6.6c5.9,0,10.8-2.1,14.7-6.2c3.8-4.2,5.8-9.5,5.8-15.9c0-6.6-1.9-12.1-5.7-16.5
		C598.1,1169.2,593.4,1167.1,587.7,1167.1L587.7,1167.1z M587.4,1218.1c-4.1,0-7.9-0.7-11.5-2s-6.7-3.2-9.3-5.7
		c-2.7-2.6-4.8-5.7-6.3-9.2s-2.2-7.2-2.2-11.1c0-3,0.5-6,1.4-8.9s2.3-5.5,4.1-8c2.8-3.8,6.3-6.8,10.4-8.8c4.1-2.1,8.6-3.1,13.4-3.1
		c4.2,0,8,0.7,11.6,2c3.6,1.3,6.7,3.2,9.3,5.7c2.8,2.6,4.9,5.7,6.3,9.2c1.5,3.6,2.2,7.4,2.2,11.5c0,3.8-0.8,7.5-2.5,11.1
		c-1.6,3.6-4,6.8-6.9,9.6c-2.7,2.5-5.7,4.4-9.1,5.7C594.9,1217.4,591.3,1218.1,587.4,1218.1L587.4,1218.1z"/>
	<path fill="#0C234B" d="M672.6,1162.6c-1.2,1-2,2.2-2.4,3.5c-0.5,1.3-0.7,3.3-0.7,6.1v45.9c-1.9-0.1-3.6-0.7-5.3-1.8
		c-1.7-1.2-3.8-3.4-6.3-6.6l-27.7-35.5v33c0,2.8,0.2,4.9,0.7,6.2c0.5,1.3,1.2,2.4,2.4,3.4h-12.1c1.1-1,1.9-2.2,2.4-3.5
		c0.5-1.3,0.7-3.3,0.7-6.1v-35.1c0-2.7-0.2-4.7-0.7-6.1c-0.5-1.3-1.3-2.5-2.4-3.5H632l31.6,40.7V1172c0-2.7-0.3-4.7-0.7-6.1
		c-0.5-1.3-1.3-2.5-2.4-3.5h12.1V1162.6z"/>
	<path fill="#0C234B" d="M692.3,1191.1H708l-7.6-21L692.3,1191.1L692.3,1191.1z M685,1209.4c-0.2,0.5-0.4,1.1-0.5,1.7
		s-0.2,1.2-0.2,1.8c0,0.5,0.2,1.1,0.5,1.7c0.4,0.6,1,1.3,1.8,2.1H674c1-0.7,2-1.7,2.8-3s1.7-3,2.6-5.2l15-38.7
		c0.3-0.7,0.5-1.4,0.7-2.1s0.2-1.3,0.2-1.9s-0.1-1.2-0.4-1.7c-0.3-0.5-0.8-1-1.5-1.6h12.2l17,45.5c0.8,2.1,1.6,3.7,2.6,5
		c0.9,1.3,2.1,2.5,3.5,3.7h-15.3l0.2-0.2c1.4-1.5,2.1-2.6,2.1-3.3c0-0.8-0.3-2-0.9-3.7c-0.1-0.3-0.1-0.5-0.2-0.6l-4.6-12.5h-19.9
		L685,1209.4L685,1209.4z"/>
	<path fill="#0C234B" d="M756.8,1074.2l13.9,23.6l9.3-15.4c0.6-0.9,1-1.8,1.3-2.6s0.4-1.4,0.4-2s-0.2-1.2-0.6-1.8
		c-0.4-0.6-0.9-1.2-1.7-1.9H792l-18.3,29.9v14.8c0,2.7,0.2,4.8,0.7,6.1s1.3,2.5,2.4,3.5h-14.7c1.2-1,2-2.2,2.4-3.5
		c0.5-1.3,0.7-3.3,0.7-6.1v-15l-12.5-20.6c-1.3-1.9-2.2-2.1-3.4-2.6c-1.3-0.5-3.5-0.5-5.5-0.5h-6v38.7c0,2.7,0.2,4.8,0.7,6.1
		c0.5,1.3,1.3,2.5,2.4,3.5h-14.7c1.1-1,2-2.2,2.4-3.5c0.5-1.3,0.7-3.3,0.7-6.1v-38.7H725c-3,0-5.4,0.2-7.2,0.7s-3.3,1.2-4.4,2.3
		l2.7-8.9H756.8L756.8,1074.2z"/>
	<polygon fill="#FFFFFF" points="163.8,1036.2 163.8,1097.2 157.7,1097.2 182.3,1162.9 203.4,1163.1 203.4,1224.1 0,1224.1 
		0,1163.1 21,1163.2 45.8,1097.2 39.5,1097.2 39.5,1036.2 	"/>
	<polyline fill="#0C234B" points="101.7,1058.9 141,1058.9 141,1074.7 124.7,1074.7 167.6,1185.2 180.2,1185.2 180.2,1201.4 
		127.1,1201.4 127.1,1185.7 112.1,1185.7 112.1,1216.7 196.1,1216.7 196.1,1170.4 177.2,1170.4 147,1089.9 156.5,1089.9 
		156.5,1043.7 101.7,1043.7 101.7,1043.7 46.9,1043.7 46.9,1089.9 56.4,1089.9 26.2,1170.4 7.3,1170.4 7.3,1216.7 91.2,1216.7 
		91.2,1185.7 76.3,1185.7 76.3,1201.4 23.1,1201.4 23.1,1185.2 35.8,1185.2 78.7,1074.7 62.4,1074.7 62.4,1058.9 101.7,1058.9 	"/>
	<path fill="#0C234B" d="M220.3,1203.2c1.5,1.5,2.3,3.3,2.3,5.5s-0.8,4-2.3,5.5s-3.4,2.2-5.6,2.2c-2.2,0-4.1-0.7-5.6-2.2
		s-2.3-3.3-2.3-5.5s0.8-4,2.3-5.5s3.4-2.2,5.6-2.2C216.9,1200.9,218.8,1201.8,220.3,1203.2L220.3,1203.2L220.3,1203.2z
		 M219.2,1204.2c-1.2-1.2-2.7-1.9-4.5-1.9s-3.3,0.6-4.5,1.9c-1.2,1.2-1.8,2.8-1.8,4.6s0.6,3.3,1.8,4.6c1.2,1.2,2.7,1.9,4.5,1.9
		s3.3-0.6,4.5-1.9c1.2-1.2,1.8-2.8,1.8-4.6C221.1,1206.9,220.4,1205.4,219.2,1204.2L219.2,1204.2L219.2,1204.2z M211.3,1204.2h0.7
		h2.9c1,0,1.7,0.2,2.3,0.6c0.5,0.4,0.8,1,0.8,1.8c0,0.8-0.3,1.5-0.8,2c-0.4,0.4-0.9,0.6-1.6,0.7l2.6,3.9h-0.8h-0.8l-2.3-3.9h-1.5
		v3.9H212h-0.7V1204.2L211.3,1204.2L211.3,1204.2z M212.7,1208.2h1.9c0.7,0,1.1-0.1,1.5-0.4c0.3-0.2,0.5-0.6,0.5-1.1
		c0-0.4-0.2-0.8-0.5-1s-0.8-0.3-1.5-0.3h-1.9V1208.2L212.7,1208.2L212.7,1208.2z"/>
	<path fill="#AB0520" d="M101.7,1059.1l43.6,113c0,0,5.6,13.7,14.6,13.7h-31.7c0,0,1.6,0.2,3.2-2.4c0.9-1.5,0.1-3.8,0.1-3.8
		l-9.8-25.2h-20h-20l-9.8,25.2c0,0-0.7,2.3,0.2,3.8c1.6,2.6,3.2,2.4,3.2,2.4H43.5c9.1,0,14.6-13.7,14.6-13.7L101.7,1059.1
		 M101.6,1142.4H117l-15.3-39.6l-15.3,39.6H101.6L101.6,1142.4L101.6,1142.4z"/>
</g>
</svg>
