
<svg width="208" height="121" viewBox="0 0 208 121" fill="none" xmlns="http://www.w3.org/2000/svg">
<g clip-path="url(#clip0_5237:444)">
<path d="M149.228 18.5957C149.606 18.0015 149.982 17.4162 150.356 16.829C151.266 15.3989 152.205 13.9916 153.364 12.7448C154.045 12.013 154.643 11.194 155.38 10.5255C156.655 9.36976 157.935 8.218 159.325 7.19102C161.343 5.71068 163.501 4.4326 165.769 3.37526C167.959 2.34853 170.251 1.55615 172.607 1.01134C174.702 0.505926 176.839 0.196598 178.991 0.0873544C179.996 0.0437797 180.999 -0.011679 182.001 0.0140697C184.238 0.0814124 186.467 0.201243 188.684 0.560734C189.951 0.750858 191.207 1.00638 192.447 1.32626C194.16 1.77879 195.822 2.40944 197.405 3.2079C199.38 4.21507 201.206 5.45497 202.72 7.0702C205.022 9.52821 206.537 12.4091 207.336 15.7119C208.036 18.6086 207.985 21.5281 207.995 24.4585C207.995 24.7199 207.949 24.8368 207.643 24.8368C201.455 24.8249 195.267 24.8226 189.079 24.8299C188.64 24.8299 188.494 24.6783 188.52 24.2535C188.591 23.0819 188.555 21.9143 188.242 20.7735C187.634 18.5531 186.273 16.9755 184.225 15.9208C182.916 15.2464 181.544 14.9741 180.105 14.9216C178.783 14.873 177.464 14.9117 176.196 15.3385C174.73 15.8389 173.363 16.5895 172.153 17.5568C170.242 19.0651 168.895 21.023 167.804 23.1592C166.846 25.0408 166.17 27.0294 165.617 29.0665C165.169 30.7327 164.824 32.4247 164.582 34.1331C164.141 37.1922 163.874 40.2622 164.879 43.2748C165.812 46.0606 167.777 47.6779 170.622 48.3255C172.56 48.7642 174.492 48.8603 176.442 48.4711C179.295 47.9017 181.58 46.4043 183.35 44.1305C184.505 42.6286 185.384 40.9327 185.944 39.1224C186.093 38.6529 186.308 38.5163 186.779 38.5173C192.934 38.5318 199.089 38.5351 205.244 38.5272C205.87 38.5272 205.886 38.5579 205.707 39.1313C205.071 41.2453 204.239 43.2958 203.224 45.2565C202.093 47.3974 200.753 49.421 199.223 51.2975C198.197 52.5562 197.058 53.6991 195.884 54.8013C194.399 56.1947 192.733 57.3613 190.998 58.4279C188.663 59.8535 186.164 60.9907 183.556 61.8149C181.36 62.5023 179.107 62.9892 176.823 63.2697C174.031 63.6292 171.232 63.6173 168.436 63.4875C166.547 63.3921 164.67 63.137 162.825 62.725C160.394 62.2084 158.035 61.3924 155.805 60.2957C154.33 59.5646 152.942 58.6704 151.666 57.6297C149.745 56.069 148.136 54.1591 146.924 52.0007C146.186 50.7093 145.576 49.3495 145.101 47.9403C144.722 48.4741 144.551 49.0406 144.272 49.5496C143.169 51.5679 141.837 53.402 140.168 54.9875C138.518 56.5482 136.674 57.8884 134.68 58.9746C131.759 60.5799 128.649 61.6326 125.412 62.3764C123.036 62.9231 120.625 63.238 118.203 63.4291C115.736 63.6097 113.26 63.6229 110.792 63.4687C108.027 63.3137 105.296 62.7857 102.673 61.899C101.52 61.5166 100.399 61.0441 99.3199 60.4858C97.9932 59.7926 96.7942 58.9013 95.6042 58.01C95.3438 57.8119 95.1458 57.5376 94.9111 57.3089C94.7696 57.1732 94.5834 57.0028 94.3983 57.1187C94.2428 57.2177 94.3983 57.4158 94.4201 57.5733C94.6082 58.9746 94.7834 60.3769 94.9755 61.7772C95.0082 62.01 94.9309 62.0743 94.72 62.0743C94.4389 62.0674 94.1587 62.0674 93.8785 62.0674H77.8515C78.3029 60.9602 78.7366 59.9015 79.1653 58.8409C80.3038 56.0274 81.2365 53.1514 81.6721 50.1398C81.8949 48.6008 81.9216 47.044 81.583 45.516C81.3384 44.4137 80.8672 43.4075 79.9811 42.644C79.7583 42.4519 79.6534 42.4459 79.5286 42.743C79.3306 43.2303 79.0801 43.6937 78.596 43.9839C78.1118 44.2741 77.8643 44.182 77.8237 43.6323C77.6901 41.8408 77.1871 40.1662 76.1763 38.6807C75.7555 38.0587 75.2545 37.4923 74.8565 36.8505C73.918 35.3314 73.713 33.6815 73.9576 31.9543C74.1556 30.5857 74.4328 29.2259 74.1734 27.8345C74.1427 27.6711 74.1269 27.5087 73.9417 27.3879C73.7175 27.7284 73.4357 28.0273 73.1091 28.2713C72.9413 28.4038 72.7632 28.5226 72.5764 28.6268C71.5745 29.1329 71.3884 28.9922 71.2894 27.9009C71.2167 27.0145 71.1899 26.125 71.2092 25.2359C71.2359 22.8026 71.7923 20.4823 72.7438 18.2501C73.3517 16.826 74.0417 15.4464 74.9377 14.1739C75.7555 13.0102 76.7198 11.9783 77.7099 10.9672C79.3435 9.29152 80.8969 7.55348 82.2533 5.64313C82.9998 4.59337 83.7185 3.53174 84.2472 2.35225C84.3007 2.23143 84.4047 2.11556 84.4096 1.99474C84.4373 1.3431 84.864 1.34607 85.3393 1.3837C85.6186 1.4154 85.9005 1.4154 86.1798 1.3837C86.6551 1.31141 86.8323 1.49066 86.8917 1.96404C87.1788 4.24181 87.4926 6.51957 87.8045 8.79734C88.0916 10.8968 88.3985 12.9934 88.6797 15.0929C88.9609 17.1924 89.2104 19.3008 89.4916 21.4033C89.7331 23.2097 90.0074 25.0111 90.2519 26.8175C90.4688 28.4129 90.6598 30.0113 90.8737 31.6077C91.0816 33.1536 91.3123 34.6966 91.5212 36.2425C91.774 38.1142 92.0192 39.9873 92.2568 41.8616C92.3122 42.3122 92.4825 42.5043 92.9776 42.5024C98.2248 42.4855 103.472 42.4915 108.719 42.4925C109.464 42.4925 109.427 42.4925 109.491 43.2521C109.751 46.3726 110.989 48.177 114.291 49.095C117.383 49.9556 120.479 49.6387 123.445 48.4691C124.862 47.9106 126.031 46.9559 126.445 45.3575C126.774 44.0938 126.267 43.15 125.301 42.3776C124.174 41.4764 122.85 41.0258 121.502 40.5752C119.142 39.7879 116.713 39.2877 114.305 38.6935C112.34 38.2103 110.381 37.7082 108.456 37.0843C106.935 36.6013 105.447 36.0204 104.001 35.3452C102.494 34.6312 101.052 33.8112 99.7822 32.7446C97.8536 31.1234 96.4447 29.1249 95.7556 26.663C95.3447 25.1683 95.1815 23.6163 95.2725 22.0688C95.3911 20.0634 95.7725 18.0823 96.4071 16.1763C97.1408 13.9325 98.282 11.8433 99.7733 10.0135C101.013 8.47487 102.462 7.11719 104.077 5.97984C105.912 4.69313 107.892 3.62587 109.975 2.79988C112.297 1.88253 114.707 1.20492 117.168 0.777617C119.341 0.409031 121.535 0.174539 123.737 0.0754704C125.006 0.00812769 126.275 -0.023563 127.539 0.0200117C131.005 0.149745 134.42 0.580541 137.704 1.74814C140.524 2.74937 143.015 4.28043 145.031 6.52155C146.339 7.98767 147.348 9.69531 148.001 11.5485C148.555 13.0815 148.852 14.6591 149.008 16.2793C149.068 16.9052 149.067 17.5261 149.09 18.1491C149.094 18.2887 149.031 18.4491 149.228 18.5957ZM115.522 18.0362C115.522 19.076 116.244 20.1287 117.354 20.7853C118.829 21.6588 120.433 22.2124 122.068 22.659C124.984 23.4563 127.922 24.1782 130.847 24.9368C133.348 25.5885 135.798 26.4015 138.136 27.5117C139.552 28.1802 140.92 28.9328 142.139 29.9321C142.813 30.4857 143.504 31.0214 144.028 31.7335C144.102 31.8325 144.203 31.9721 144.342 31.9454C144.514 31.9127 144.52 31.7226 144.548 31.5869C144.613 31.265 144.641 30.9353 144.709 30.6134C145.446 27.084 146.636 23.6645 148.248 20.4397C148.526 19.8851 148.514 19.8782 147.897 19.8772C142.04 19.8772 136.183 19.8802 130.325 19.8861C129.896 19.8861 129.638 19.8604 129.698 19.3276C129.727 19.0592 129.625 18.7769 129.588 18.4996C129.39 17.0538 128.73 15.8822 127.463 15.1206C126.8 14.7245 126.06 14.5165 125.296 14.3492C122.859 13.8073 120.319 13.9495 117.958 14.7601C116.547 15.2325 115.523 16.6576 115.522 18.0362Z" fill="#AB0520"/>
<path d="M34.844 32.7487C34.052 34.3887 33.45 36.0743 32.7649 37.7252C31.7224 40.2297 30.6779 42.7333 29.6789 45.2517C28.773 47.5394 27.8186 49.8072 26.9068 52.0919C25.9791 54.4103 24.9851 56.7039 24.0742 59.0302C23.7148 59.9463 23.297 60.8395 22.9297 61.7536C22.8307 61.9992 22.6921 62.0626 22.4485 62.0626C17.1346 62.0586 11.8213 62.0586 6.50863 62.0626C6.17696 62.0626 6.04627 61.9408 6.0136 61.607C5.874 60.0512 5.71659 58.4974 5.56016 56.9446C5.41066 55.4907 5.24829 54.0379 5.0978 52.5871C4.98394 51.4908 4.88296 50.3935 4.77306 49.2972C4.62719 47.8097 4.47802 46.3219 4.32556 44.8338C4.21071 43.6889 4.0952 42.5441 3.97904 41.3993C3.82459 39.8775 3.66981 38.3573 3.5147 36.8388C3.40282 35.7267 3.30481 34.6135 3.18897 33.5024C3.06719 32.3427 2.92364 31.186 2.80582 30.0263C2.68998 28.8983 2.59692 27.7683 2.48999 26.6403C2.3593 25.2658 2.25931 23.8872 2.07813 22.5206C1.95338 21.5877 1.95041 20.6439 1.79299 19.7189C1.59498 18.581 1.58013 17.4283 1.44548 16.2854C1.26925 14.7851 1.14847 13.2778 1.0059 11.7744C0.841548 10.0711 0.70591 8.36373 0.495028 6.66729C0.376221 5.75024 0.35642 4.82626 0.213852 3.91416C0.0940093 3.18353 0.0225695 2.44577 0 1.70572C0 1.45912 0.035642 1.37594 0.271275 1.39277C0.370281 1.3997 0.469287 1.39277 0.568292 1.39277C5.69975 1.39277 10.8322 1.39871 15.9637 1.37891C16.3775 1.37891 16.4834 1.55519 16.5072 1.88398C16.6122 3.31204 16.7052 4.74109 16.8151 6.16915C16.93 7.62692 17.0666 9.08271 17.1884 10.5405C17.2666 11.4744 17.3349 12.4092 17.4092 13.3431C17.5379 14.9663 17.6725 16.5875 17.7953 18.2106C17.9052 19.6684 17.9933 21.1291 18.1091 22.5869C18.219 23.9942 18.3566 25.3995 18.4705 26.8067C18.5546 27.8396 18.5982 28.8755 18.7002 29.9055C18.817 31.082 18.7784 32.2743 19.0576 33.433C19.1457 33.7975 18.9645 34.1837 19.1774 34.5997C19.6388 33.5291 20.0892 32.514 20.4833 31.4722C20.8199 30.5809 21.2209 29.7193 21.5892 28.8428C22.3852 26.9526 23.1795 25.0617 23.9722 23.1702C24.996 20.735 26.0563 18.3176 27.0325 15.8586C27.8513 13.7987 28.7156 11.7606 29.5769 9.71851C30.6848 7.08323 31.8046 4.45092 32.8689 1.79584C33.0134 1.43436 33.1481 1.38485 33.4708 1.38584C38.4535 1.39178 43.4367 1.39178 48.4207 1.38584C49.1345 1.38584 49.1434 1.38584 49.1484 2.08997C49.1622 3.88841 49.1078 5.69082 49.2028 7.4853C49.3127 9.57887 49.191 11.6754 49.3117 13.764C49.4028 15.3486 49.3117 16.9331 49.3919 18.5097C49.5088 20.7875 49.4088 23.0652 49.5117 25.3321C49.584 26.9325 49.5434 28.5299 49.586 30.1273C49.586 30.2412 49.6028 30.3541 49.6147 30.5106C49.8236 30.4353 49.8523 30.258 49.9177 30.1283C51.0473 27.8743 52.2304 25.6451 53.2779 23.3534C53.9957 21.7828 54.7957 20.2547 55.5412 18.6989C57.1411 15.3585 58.848 12.0696 60.5004 8.75491C61.633 6.48243 62.7524 4.20466 63.8586 1.92161C64.0507 1.52548 64.2824 1.38089 64.7269 1.38188C70.4851 1.39772 76.2436 1.40168 82.0024 1.39376C82.6212 1.39376 82.6657 1.44427 82.4974 2.04936C82.0272 3.74481 81.1213 5.19367 79.9985 6.5326C79.4541 7.17221 78.8764 7.78277 78.2679 8.36175C77.2848 9.31049 76.1888 10.1206 75.0869 10.9297C73.3384 12.2171 71.8553 13.7927 70.5079 15.4723C69.0861 17.2431 67.6436 19.0197 66.7565 21.1539C66.2724 22.3215 65.7724 23.4822 65.3705 24.6805C64.7801 26.4048 64.3493 28.1796 64.0834 29.9827C63.9509 30.828 63.8709 31.6806 63.8438 32.5358C63.8062 34.3501 63.6101 36.1436 63.1062 37.8945C63.0735 38.0386 63.0271 38.1792 62.9676 38.3144C62.5666 39.1067 62.5646 39.1067 61.8063 38.6481C61.7072 38.5897 61.5983 38.5491 61.4944 38.5016C60.535 38.0549 60.4984 38.051 60.4053 39.0562C60.2073 41.1448 59.7222 43.168 59.1569 45.1794C58.3579 48.0226 56.9025 50.4747 54.9085 52.6554C54.0392 53.6197 53.0951 54.5138 52.0849 55.3293C50.98 56.2097 49.9295 57.1416 48.89 58.0924C48.0979 58.8163 47.4405 59.661 46.7435 60.4692C46.3584 60.9158 45.9752 61.3733 45.6931 61.8982C45.5941 62.0834 45.4406 62.0715 45.2703 62.0715C42.7625 62.0715 40.2547 62.0616 37.7459 62.0715C37.4429 62.0715 37.337 61.9725 37.3152 61.6892C37.235 60.6563 37.138 59.6254 37.0529 58.5925C36.9209 57.0205 36.7935 55.4485 36.6707 53.8765C36.5994 52.9852 36.5321 52.1038 36.4608 51.2184C36.3347 49.6458 36.2077 48.0731 36.0796 46.5005C36.0054 45.5656 35.939 44.6307 35.8648 43.6969C35.7391 42.1242 35.6084 40.5516 35.4856 38.9789C35.4084 37.9965 35.3401 37.0131 35.2698 36.0297C35.1995 35.0463 35.1331 34.0609 35.0638 33.0765C35.061 33.0069 35.039 32.9394 35.0002 32.8816C34.9614 32.8237 34.9074 32.7777 34.844 32.7487Z" fill="#AB0520"/>
<path d="M78.9368 104.02C78.8873 104.309 78.8259 104.596 78.7903 104.886C78.7417 105.267 78.5922 105.481 78.1556 105.451C77.719 105.421 77.2646 105.458 76.82 105.451C76.523 105.445 76.3785 105.572 76.3161 105.868C75.7709 108.472 75.2178 111.076 74.6568 113.678C74.3974 114.874 75.1815 115.072 76.0636 114.956C76.5993 114.886 76.6022 114.857 76.5111 115.392C76.4725 115.619 76.4121 115.842 76.3636 116.067C76.1943 116.825 76.1943 116.827 75.4349 116.832C74.8736 116.832 74.3132 116.84 73.7519 116.832C72.8192 116.822 72.1856 116.211 72.1994 115.28C72.2133 114.349 72.4559 113.435 72.6727 112.525C72.9618 111.31 73.2044 110.084 73.4647 108.861C73.6796 107.849 73.8776 106.835 74.1073 105.827C74.1627 105.581 74.1132 105.53 73.8736 105.486C73.5271 105.426 73.1806 105.459 72.839 105.442C72.4173 105.42 72.2668 105.202 72.3965 104.798C72.7509 103.7 72.7509 103.68 73.9528 103.709C74.4023 103.718 74.6073 103.567 74.6894 103.131C74.8597 102.229 75.0855 101.338 75.2419 100.433C75.3122 100.024 75.5102 99.9178 75.8785 99.9376C76.2573 99.9604 76.6372 99.9604 77.0161 99.9376C77.4586 99.904 77.5656 100.079 77.4735 100.489C77.2675 101.403 77.1062 102.327 76.8864 103.237C76.7953 103.615 76.9062 103.708 77.2567 103.705C78.4616 103.696 79.6655 103.719 80.8694 103.694C81.2713 103.685 81.3565 103.829 81.3753 104.204C81.4743 106.21 81.5119 108.219 81.5911 110.225C81.6258 111.13 81.6446 112.036 81.6634 112.941C81.6634 113.082 81.6198 113.238 81.803 113.391C82.199 112.912 82.3535 112.324 82.5891 111.78C83.7171 109.175 84.8355 106.568 85.9444 103.956C86.0434 103.713 86.2236 103.709 86.4226 103.707C86.9503 103.707 87.48 103.726 88.0067 103.698C88.4681 103.675 88.4631 103.852 88.2948 104.193C87.5688 105.651 86.849 107.113 86.1355 108.578C84.5164 111.906 82.8993 115.235 81.2842 118.565C80.9407 119.318 80.3916 119.959 79.7001 120.415C78.6398 121.092 77.4685 121.102 76.2765 120.887C76.0211 120.841 76.0478 120.63 76.0785 120.455C76.128 120.131 76.1943 119.808 76.2696 119.488C76.3587 119.111 76.6656 119.119 76.9438 119.173C78.1002 119.399 78.7932 118.868 79.4278 117.931C80.0298 117.04 79.9575 116.148 79.8744 115.208C79.8219 114.602 79.7635 113.997 79.715 113.392C79.616 112.228 79.4952 111.065 79.4476 109.898C79.409 108.943 79.2783 107.997 79.2249 107.044C79.1685 106.04 79.0784 105.038 79.0031 104.035L78.9368 104.02Z" fill="#AB0520"/>
<path d="M120.57 104.647C121.362 103.892 122.302 103.44 123.381 103.351C124.538 103.252 125.549 103.374 126.054 104.647C126.196 105.005 126.376 104.854 126.571 104.683C127.336 104.008 128.177 103.469 129.216 103.342C130.088 103.236 130.95 103.342 131.673 103.858C132.457 104.411 132.558 105.301 132.422 106.149C131.959 109.036 131.258 111.877 130.675 114.742C130.558 115.32 130.411 115.893 130.299 116.474C130.26 116.672 130.189 116.753 129.978 116.747C129.451 116.73 128.923 116.727 128.394 116.735C128.097 116.735 128.047 116.642 128.11 116.348C128.569 114.229 129.001 112.105 129.449 109.983C129.658 108.993 129.873 107.994 130.083 106.999C130.369 105.656 129.432 104.919 128.012 105.389C127.098 105.692 126.491 106.337 126.169 107.239C125.745 108.419 125.639 109.673 125.354 110.885C124.92 112.724 124.543 114.576 124.159 116.431C124.111 116.663 124.022 116.737 123.806 116.736C123.279 116.736 122.751 116.727 122.222 116.744C121.912 116.755 121.873 116.645 121.936 116.36C122.475 113.888 123.003 111.412 123.52 108.932C123.673 108.209 123.825 107.485 123.936 106.753C124.035 106.123 123.689 105.216 122.672 105.24C121.403 105.269 120.156 106.322 119.894 107.568C119.386 109.975 118.854 112.378 118.335 114.783C118.225 115.297 118.107 115.81 118.031 116.33C117.985 116.644 117.846 116.749 117.536 116.737C117.092 116.72 116.645 116.718 116.201 116.743C115.819 116.764 115.706 116.644 115.79 116.256C116.066 115.021 116.311 113.78 116.574 112.539C117.162 109.776 117.762 107.016 118.337 104.249C118.425 103.821 118.578 103.599 119.04 103.689C119.172 103.701 119.305 103.701 119.436 103.689C119.765 103.695 120.141 103.606 120.412 103.736C120.767 103.907 120.301 104.315 120.57 104.647Z" fill="#AB0520"/>
<path d="M137.755 104.645C138.44 104.113 139.141 103.633 139.998 103.443C140.652 103.298 141.303 103.253 141.951 103.424C142.784 103.643 143.33 104.145 143.375 105.164C143.705 104.798 144.07 104.467 144.464 104.173C145.663 103.276 146.975 103.098 148.38 103.556C149.043 103.772 149.412 104.287 149.593 104.934C149.774 105.581 149.692 106.247 149.561 106.893C148.904 110.062 148.231 113.231 147.563 116.4C147.525 116.581 147.504 116.75 147.241 116.741C146.68 116.723 146.119 116.731 145.557 116.73C145.335 116.73 145.231 116.677 145.291 116.405C145.972 113.311 146.642 110.215 147.303 107.116C147.362 106.824 147.365 106.524 147.313 106.231C147.176 105.458 146.502 105.089 145.648 105.281C144.328 105.578 143.418 106.6 143.15 108.082C142.677 110.699 142.061 113.284 141.491 115.88C141.303 116.737 141.288 116.734 140.434 116.733H140.29C139.08 116.733 139.09 116.733 139.353 115.532C139.927 112.901 140.494 110.269 141.054 107.636C141.135 107.301 141.183 106.959 141.197 106.616C141.211 105.631 140.603 105.098 139.649 105.258C138.443 105.461 137.626 106.149 137.236 107.315C136.84 108.503 136.717 109.751 136.444 110.965C136.027 112.791 135.638 114.629 135.256 116.457C135.203 116.71 135.068 116.73 134.876 116.73C134.347 116.73 133.819 116.73 133.292 116.739C132.995 116.747 132.978 116.625 133.032 116.371C133.496 114.218 133.942 112.062 134.399 109.908C134.81 107.981 135.242 106.058 135.632 104.127C135.702 103.778 135.856 103.691 136.157 103.694C136.586 103.694 137.016 103.714 137.444 103.688C137.818 103.666 137.872 103.834 137.777 104.135C137.716 104.293 137.661 104.45 137.755 104.645Z" fill="#AB0520"/>
<path d="M112.459 88.9492C111.923 89.1809 111.495 89.582 110.947 89.7692C110.278 90.0128 109.557 90.0767 108.855 89.9544C107.437 89.688 106.626 88.6243 106.548 87.0418C106.414 84.2946 106.983 81.7029 108.309 79.2964C109.002 78.0357 110.015 77.0909 111.449 76.7215C112.272 76.5106 113.099 76.5235 113.893 76.9196C114.36 77.1543 114.659 77.5237 114.86 78.0149C115.122 77.8515 115.085 77.594 115.112 77.4207C115.176 77.0246 115.388 76.9404 115.729 76.9543C116.07 76.9681 116.388 76.9543 116.719 76.9543C117.294 76.9612 117.373 77.0533 117.247 77.6376C117.027 78.6487 116.793 79.6569 116.576 80.668C116.166 82.5625 115.752 84.455 115.362 86.3535C115.078 87.74 114.797 89.1165 114.39 90.4683C113.917 92.0341 113.058 93.3344 111.518 93.9523C109.785 94.6456 108.002 94.7842 106.342 93.6433C105.714 93.2106 105.321 91.9013 105.57 91.1853C105.629 91.016 105.748 91.012 105.881 91.012C106.409 91.012 106.936 91.0219 107.465 91.012C107.714 91.012 107.722 91.1645 107.728 91.3339C107.764 92.3718 108.748 92.7273 109.709 92.658C111.666 92.5203 112.437 90.8565 112.459 88.9492ZM114.094 81.2305C114.094 80.8344 114.103 80.4383 114.094 80.0421C114.069 79.0439 113.096 78.4071 112.129 78.5348C111.391 78.6339 110.916 79.1072 110.511 79.65C109.985 80.357 109.719 81.1919 109.486 82.0357C109.11 83.4033 108.694 84.7828 108.813 86.2079C108.934 87.7073 109.522 88.2748 110.931 88.0143C111.734 87.8667 112.343 87.3498 112.733 86.6615C113.685 84.9849 114.044 83.1409 114.094 81.2305Z" fill="#AB0520"/>
<path d="M5.98428 90.2899C5.32491 90.3067 4.67444 90.282 4.02694 90.1057C2.54186 89.7026 1.79337 88.8183 1.70427 87.3041C1.66671 86.5138 1.72623 85.7219 1.88149 84.9461C1.94683 84.5985 2.11118 84.4717 2.44978 84.4836C2.91115 84.4984 3.37449 84.5014 3.83586 84.4836C4.21604 84.4668 4.29723 84.6371 4.21307 84.9679C4.08224 85.511 4.02464 86.0692 4.04179 86.6277C4.05367 87.4041 4.42791 87.925 5.11798 88.1864C6.04369 88.537 6.98523 88.5519 7.90499 88.1201C9.19207 87.514 9.89105 86.4989 10.1336 85.0936C10.3019 84.1191 9.57621 83.1397 8.83664 82.7654C7.87826 82.2791 6.83573 82.0078 5.86647 81.5601C4.86156 81.0976 3.96061 80.4807 3.73091 79.3339C3.36657 77.5275 3.8616 75.8835 4.98631 74.4456C6.68524 72.2668 9.78709 71.9301 11.9088 72.6045C13.6444 73.1561 13.9483 74.5357 13.9206 75.9954C13.9206 76.1083 13.8651 76.2193 13.8523 76.3331C13.7533 77.3235 13.7533 77.3235 12.7464 77.3235C12.5147 77.3235 12.284 77.3235 12.0533 77.3235C11.5276 77.3146 11.4108 77.2046 11.5147 76.7124C11.9454 74.6763 10.389 73.9761 8.76535 74.3218C6.99216 74.6991 6.4209 75.8439 6.14368 77.3364C5.98131 78.2108 6.4407 78.8783 7.16344 79.3883C8.2525 80.1538 9.56532 80.3311 10.7168 80.9233C12.5474 81.8642 12.8375 83.0912 12.5979 84.8401C12.4843 85.7586 12.1728 86.6415 11.685 87.4278C10.4791 89.3362 8.70298 90.2335 6.47535 90.2998C6.31496 90.2939 6.14962 90.2899 5.98428 90.2899Z" fill="#AB0520"/>
<path d="M6.27502 116.998C5.53446 117.047 4.80874 117.013 4.10184 116.726C2.98407 116.271 2.26331 115.177 2.18608 113.97C2.0752 112.258 2.55934 110.646 2.89199 109.009C3.36722 106.659 3.88205 104.317 4.37708 101.972C4.52757 101.264 4.68202 100.557 4.81765 99.8455C4.87508 99.5435 5.0424 99.4336 5.33248 99.4355C5.82751 99.4402 6.32254 99.4372 6.81757 99.4266C7.16805 99.4187 7.23438 99.5791 7.16607 99.8941C6.5958 102.511 6.03146 105.128 5.47307 107.745C5.11962 109.417 4.76914 111.091 4.45826 112.771C4.1761 114.304 5.60376 115.465 7.23042 115.156C8.9452 114.831 9.76992 113.727 10.1412 112.146C10.6035 110.18 10.9897 108.196 11.4223 106.224C11.8758 104.155 12.3025 102.083 12.7361 100.011C12.8272 99.5781 13.0213 99.389 13.4707 99.4167C13.9323 99.4448 14.395 99.4481 14.8568 99.4266C15.1657 99.4147 15.2033 99.5257 15.143 99.802C14.4506 102.978 13.7648 106.156 13.0856 109.334C12.8163 110.584 12.6698 111.865 12.1847 113.061C11.3124 115.212 9.80853 116.626 7.45715 116.986C7.073 117.049 6.67005 116.998 6.27502 116.998Z" fill="#AB0520"/>
<path d="M155.264 86.4416C155.304 84.0814 155.847 81.7568 156.856 79.6231C157.523 78.2198 158.539 77.0809 160.144 76.7234C161.341 76.457 162.502 76.4937 163.361 77.59C163.622 77.9237 163.767 77.6662 163.824 77.4325C163.981 76.7937 164.105 76.1451 164.242 75.5043C164.416 74.6843 164.599 73.8673 164.76 73.0443C164.813 72.77 164.972 72.6997 165.211 72.6997C165.657 72.6997 166.102 72.7106 166.548 72.6928C166.92 72.6779 167.043 72.7799 166.952 73.1879C166.523 75.129 166.123 77.076 165.714 79.022C165.094 81.9798 164.473 84.9379 163.853 87.8964C163.727 88.4906 163.575 89.0848 163.448 89.679C163.404 89.8869 163.317 90.0058 163.092 90.0048C162.564 90.0048 162.036 90.0048 161.508 90.0048C161.126 90.0048 161.293 89.7632 161.33 89.5978C161.359 89.4651 161.429 89.3343 161.274 89.2492C161.118 89.164 161.026 89.2868 160.936 89.3789C159.847 90.4911 157.589 90.706 156.29 89.6641C155.582 89.0977 155.328 88.1994 155.267 87.2873C155.248 87.0041 155.264 86.7218 155.264 86.4416ZM162.997 81.066C162.985 80.6234 162.931 80.1828 162.838 79.7499C162.52 78.305 160.768 78.2377 159.957 78.9794C159.26 79.6139 158.753 80.4295 158.492 81.3354C158.112 82.5882 157.821 83.8663 157.621 85.1601C157.522 85.8276 157.452 86.4901 157.598 87.1665C157.785 88.0301 158.397 88.5223 159.261 88.4292C160.028 88.346 160.686 88.0469 161.158 87.4081C161.588 86.8111 161.919 86.1487 162.139 85.4463C162.603 84.0268 162.891 82.5557 162.997 81.066Z" fill="#AB0520"/>
<path d="M93.7754 112.262C93.7863 110.072 94.2368 107.954 94.8229 105.857C95.2249 104.421 95.7575 103.037 96.6189 101.82C97.8544 100.073 99.5207 99.0474 101.725 99.0355C102.745 99.0276 103.741 99.1425 104.614 99.6971C105.37 100.179 105.775 100.918 105.915 101.812C106.028 102.561 106.028 103.323 105.915 104.071C105.868 104.409 105.764 104.605 105.352 104.562C104.896 104.514 104.429 104.548 103.966 104.553C103.452 104.553 103.383 104.496 103.5 103.99C103.623 103.46 103.559 102.947 103.47 102.424C103.315 101.513 102.459 101.051 101.703 100.984C100.029 100.834 99.0168 101.776 98.2792 103.095C97.3881 104.694 97.0188 106.476 96.6446 108.245C96.3288 109.739 95.9733 111.243 96.1248 112.784C96.2812 114.386 96.9664 115.214 98.4326 115.161C99.4524 115.123 100.379 114.717 100.975 113.788C101.458 113.033 101.849 112.245 102.053 111.366C102.225 110.627 102.239 110.63 102.97 110.631C103.399 110.631 103.827 110.631 104.257 110.631C104.527 110.631 104.661 110.73 104.571 111.027C103.977 113 103.13 114.815 101.394 116.06C100.551 116.68 99.5342 117.018 98.4881 117.029C97.4852 117.041 96.4802 117.101 95.5635 116.534C94.3576 115.785 93.8922 114.643 93.7744 113.305C93.7497 112.958 93.7754 112.609 93.7754 112.262Z" fill="#AB0520"/>
<path d="M68.0673 90.2895C67.1457 90.3706 66.2261 90.1132 65.4803 89.5655C64.5813 88.9169 64.1853 87.9721 64.0804 86.9461C63.7576 83.7681 64.5289 80.7427 65.5209 77.7637C66.0159 76.2782 66.7793 74.9433 67.9148 73.8697C68.6997 73.1096 69.6967 72.6057 70.7741 72.4248C71.8454 72.2486 72.9057 72.2426 73.9423 72.5675C75.4076 73.024 76.2125 74.1302 76.2075 75.6692C76.2075 76.2634 76.2551 76.8526 76.1293 77.4439C76.0729 77.7083 75.9719 77.8133 75.7125 77.8103C75.169 77.8033 74.6234 77.8043 74.0799 77.8103C73.8156 77.8103 73.7175 77.7479 73.7403 77.4369C73.7769 76.9526 73.8453 76.4723 73.7789 75.9722C73.6463 74.9651 72.9869 74.3164 71.9602 74.2451C70.4127 74.1381 69.2217 75.0225 68.5247 76.3703C67.7247 77.9153 67.2951 79.576 66.9832 81.2883C66.7723 82.449 66.5159 83.5998 66.3664 84.7733C66.2515 85.5739 66.3369 86.3906 66.6149 87.1501C67.0753 88.3633 68.496 88.804 69.8751 88.1632C70.9523 87.6681 71.5582 86.7302 71.977 85.6636C72.1237 85.332 72.2323 84.9848 72.3008 84.6287C72.38 84.083 72.6602 83.9256 73.177 83.9801C73.5884 84.0057 74.0008 84.009 74.4126 83.99C74.7333 83.99 74.8759 84.1068 74.767 84.4475C74.1294 86.441 73.2522 88.2692 71.4276 89.4774C70.5919 90.033 69.6336 90.2885 68.0673 90.2895Z" fill="#AB0520"/>
<path d="M141.171 90.091H140.676C139.89 90.091 139.714 89.9711 139.479 89.2096C139.369 88.8491 139.182 88.9501 139.02 89.1155C138.742 89.4126 138.395 89.5978 138.058 89.7968C137.015 90.4128 135.88 90.4306 134.755 90.1662C133.666 89.9117 133.06 88.9778 133.099 87.6646C133.131 86.6099 133.341 85.5849 133.942 84.6738C134.601 83.6766 135.534 83.0893 136.675 82.7843C137.721 82.505 138.766 82.2188 139.797 81.893C140.464 81.681 140.957 81.3037 141.114 80.5164C141.447 78.8556 140.599 78.0297 138.905 78.4654C137.925 78.717 137.41 79.4657 137.123 80.357C136.978 80.8145 136.8 81.0314 136.31 80.9858C135.931 80.9637 135.552 80.9614 135.173 80.9789C134.846 80.9838 134.72 80.8502 134.807 80.5204C135.16 79.1795 135.717 77.9812 136.991 77.2572C137.554 76.9473 138.173 76.7515 138.811 76.6808C139.706 76.5595 140.615 76.5775 141.505 76.7343C142.826 76.977 143.431 77.687 143.44 79.025C143.45 80.2936 143.034 81.4869 142.8 82.711C142.466 84.4678 142.067 86.2118 141.702 87.9598C141.617 88.3638 141.782 88.554 142.225 88.4876C142.59 88.4371 142.659 88.546 142.602 88.8837C142.401 90.089 142.408 90.09 141.171 90.091ZM140.427 83.3755L140.302 83.2903C139.449 83.7786 138.484 83.9311 137.572 84.2391C136.477 84.6085 135.789 85.3284 135.563 86.4653C135.427 87.1447 135.283 87.8221 136.034 88.3133C136.641 88.7094 137.239 88.5956 137.81 88.3499C138.925 87.8706 139.704 87.0843 139.915 85.8187C140.052 84.9987 140.254 84.1896 140.427 83.3755Z" fill="#AB0520"/>
<path d="M45.7579 110.495C44.7679 110.495 43.7778 110.495 42.7877 110.495C42.6175 110.495 42.4145 110.443 42.365 110.713C42.1749 111.741 41.8016 112.753 42.068 113.821C42.2214 114.438 42.4234 115.046 43.157 115.207C43.8907 115.368 44.5312 115.248 45.1371 114.743C45.8381 114.158 46.1688 113.389 46.3965 112.564C46.4559 112.349 46.5143 112.301 46.7074 112.303C47.2687 112.311 47.8291 112.303 48.3905 112.303C48.5687 112.303 48.6192 112.339 48.633 112.553C48.6558 112.929 48.4548 113.202 48.3202 113.507C47.7162 114.873 46.8529 116.046 45.4371 116.613C43.952 117.208 42.4056 117.384 40.9522 116.456C40.2364 115.998 39.9621 115.252 39.8285 114.45C39.5592 112.823 39.8928 111.241 40.2502 109.672C40.5601 108.309 41.0047 106.985 41.7927 105.81C42.558 104.665 43.5451 103.815 44.9164 103.481C46.1044 103.189 47.2925 103.209 48.3717 103.797C49.2291 104.267 49.6102 105.138 49.6815 106.104C49.7805 107.428 49.5894 108.729 49.2855 110.018C49.2073 110.354 49.0518 110.513 48.6786 110.502C47.7063 110.479 46.7331 110.494 45.7599 110.494L45.7579 110.495ZM44.9906 108.746C45.4352 108.746 45.8817 108.752 46.3232 108.746C47.2618 108.732 47.2598 108.845 47.3707 107.889C47.3984 107.646 47.5034 107.407 47.5073 107.166C47.5182 106.606 47.4816 106.05 47.0509 105.613C46.1599 104.711 44.9183 105.081 44.1015 105.948C43.4778 106.61 43.1313 107.46 42.9135 108.352C42.8382 108.656 42.9372 108.748 43.2105 108.748C43.8052 108.742 44.3986 108.741 44.9906 108.746Z" fill="#AB0520"/>
<path d="M19.9106 83.7558C18.9374 83.7558 17.9642 83.7638 16.9919 83.7558C16.6375 83.7558 16.4603 83.8648 16.3979 84.2451C16.2662 85.0235 16.0939 85.791 16.1147 86.5922C16.1415 87.6191 16.5375 88.3193 17.2652 88.5184C18.1087 88.7481 19.2255 88.3143 19.6977 87.5815C20.0642 87.0392 20.3339 86.4374 20.4947 85.8029C20.5393 85.6048 20.6195 85.5672 20.7918 85.5691C21.3363 85.5771 21.8808 85.581 22.4244 85.5771C22.7392 85.5771 22.7669 85.7048 22.6857 85.9831C22.2056 87.633 21.265 88.9293 19.769 89.7899C19.351 90.0252 18.8914 90.1772 18.4156 90.2376C17.7097 90.3366 16.9899 90.3693 16.2989 90.2455C14.7148 89.9623 13.9732 88.8907 13.8901 87.322C13.7488 84.663 14.3246 82.0149 15.5573 79.6549C16.3385 78.1298 17.4939 77.0374 19.2205 76.7007C20.1068 76.5101 21.0271 76.5496 21.8937 76.8156C23.0293 77.181 23.551 78.0238 23.7491 79.1458C23.956 80.3273 23.7491 81.4791 23.5045 82.6199C23.26 83.7608 23.2283 83.7539 22.0353 83.7539H19.9106V83.7558ZM19.0938 82.0059C19.7037 82.0059 20.3126 82.0059 20.9224 82.0059C21.1205 82.0059 21.3393 81.994 21.3878 81.7395C21.5333 80.9829 21.7224 80.2263 21.4977 79.4519C21.4225 79.1295 21.2242 78.8494 20.9452 78.6715C20.1839 78.21 19.1799 78.3387 18.4523 78.9943C17.6444 79.7192 17.2978 80.6848 17.0206 81.692C16.9503 81.9485 17.0345 82.0099 17.2662 82.0079C17.875 82.001 18.4849 82.001 19.0938 82.0059Z" fill="#AB0520"/>
<path d="M123.53 83.7527C122.574 83.7527 121.618 83.7626 120.659 83.7468C120.294 83.7408 120.117 83.8161 120.039 84.2419C119.878 85.1332 119.662 86.0008 119.763 86.9158C119.839 87.6091 120.047 88.23 120.78 88.4548C121.615 88.7103 122.364 88.5182 123.01 87.9022C123.546 87.3874 123.917 86.7239 124.074 85.9968C124.139 85.7106 124.272 85.5492 124.615 85.57C125.11 85.5997 125.606 85.5759 126.101 85.57C126.294 85.57 126.398 85.5591 126.34 85.8314C125.845 88.0715 123.801 90.4582 121.118 90.2968C120.691 90.2721 120.263 90.3394 119.837 90.2344C118.222 89.8383 117.725 88.9856 117.553 87.5179C117.276 85.1411 117.869 82.8891 118.71 80.6896C119.205 79.3903 119.912 78.2454 121.086 77.4472C122.428 76.5381 123.909 76.4321 125.431 76.7847C126.531 77.0392 127.336 78.1633 127.402 79.3517C127.478 80.7124 127.295 82.0444 127.006 83.3655C126.948 83.6299 126.827 83.7794 126.502 83.7715C125.51 83.7369 124.52 83.7527 123.53 83.7527ZM122.744 81.9988C123.32 81.9988 123.897 81.9919 124.472 81.9988C124.805 82.0048 124.98 81.8612 125.066 81.5383C125.171 81.1521 125.172 80.7579 125.211 80.3667C125.283 79.6537 125.112 78.9753 124.486 78.596C123.892 78.2395 123.22 78.3098 122.598 78.6396C121.358 79.2942 120.963 80.4985 120.618 81.7235C120.539 81.9949 120.789 81.9899 120.969 81.9919C121.559 82.0038 122.152 81.9988 122.744 81.9988Z" fill="#AB0520"/>
<path d="M101.897 83.7548C100.942 83.7548 99.9856 83.7647 99.0263 83.7498C98.6976 83.7498 98.5105 83.8221 98.453 84.1876C98.3065 85.1244 98.1045 86.0474 98.1887 87.013C98.3016 88.3004 99.4985 88.8392 100.623 88.4292C101.685 88.0419 102.186 87.1556 102.458 86.1395C102.572 85.7166 102.723 85.5265 103.177 85.5661C103.63 85.6057 104.068 85.577 104.511 85.576C104.742 85.576 104.836 85.6473 104.765 85.9078C104.251 87.7973 102.669 89.9265 100.44 90.2454C99.7066 90.3645 98.9578 90.3531 98.2283 90.2118C96.7432 89.8958 96.0888 88.956 95.968 87.4309C95.7621 84.8511 96.3214 82.3802 97.3887 80.0509C98.159 78.3723 99.3688 77.0482 101.324 76.7056C102.134 76.564 102.953 76.5432 103.764 76.7561C104.334 76.8947 104.844 77.2163 105.215 77.6718C105.585 78.1272 105.797 78.6915 105.817 79.2785C105.876 80.6284 105.746 81.98 105.433 83.2943C105.354 83.629 105.203 83.7637 104.863 83.7597C103.877 83.7469 102.887 83.7548 101.897 83.7548ZM101.227 82.0068C101.803 82.0068 102.38 81.995 102.956 82.0068C103.277 82.0158 103.443 81.9078 103.48 81.5731C103.516 81.2383 103.605 80.8967 103.66 80.557C103.777 79.8459 103.393 78.8645 102.896 78.5763C102.332 78.2545 101.204 78.3783 100.701 78.819C99.8589 79.5577 99.3787 80.5025 99.0857 81.5721C98.9867 81.9316 99.1362 82.0059 99.449 82.0009C100.041 82.0009 100.634 82.0068 101.227 82.0068Z" fill="#AB0520"/>
<path d="M115.539 107.419C115.366 110.014 114.916 112.53 113.438 114.759C112.132 116.726 110.225 117.266 108.022 116.999C106.526 116.817 105.646 115.745 105.434 114.089C105.226 112.472 105.55 110.92 105.917 109.361C106.286 107.788 106.907 106.334 107.924 105.064C108.683 104.117 109.719 103.647 110.874 103.412C111.733 103.246 112.619 103.297 113.454 103.559C114.631 103.906 115.196 104.747 115.42 105.89C115.517 106.394 115.557 106.907 115.539 107.419ZM113.294 107.518C113.316 107.186 113.275 106.853 113.174 106.536C112.988 105.868 112.692 105.299 111.904 105.132C110.975 104.934 109.897 105.576 109.339 106.507C108.539 107.841 108.262 109.341 107.929 110.828C107.799 111.41 107.846 112.016 107.704 112.584C107.554 113.178 107.682 113.733 107.855 114.267C108.085 114.974 108.626 115.28 109.382 115.282C110.459 115.282 111.144 114.623 111.615 113.797C112.718 111.865 113.029 109.693 113.291 107.521L113.294 107.518Z" fill="#AB0520"/>
<path d="M50.1764 80.7002C50.0645 83.3484 49.5695 85.8945 48.0339 88.1277C47.0567 89.5469 45.7003 90.3164 43.942 90.2926C43.3836 90.2847 42.8213 90.3411 42.2728 90.1767C40.955 89.7806 40.1778 88.6695 40.1095 87.2057C39.9992 84.8966 40.4051 82.592 41.2976 80.4596C41.9381 78.9117 42.9143 77.6015 44.545 76.9498C45.5439 76.5577 46.6373 76.4736 47.6844 76.7082C49.3408 77.0558 50.019 78.0857 50.1695 79.7624C50.2011 80.0714 50.1764 80.3863 50.1764 80.7002ZM42.3649 86.1956C42.3649 86.4263 42.347 86.6591 42.3649 86.8888C42.4945 88.3169 43.4995 88.7645 44.5875 88.4734C45.3736 88.2654 45.9102 87.7267 46.3211 87.0334C46.9597 85.954 47.2547 84.7556 47.532 83.5583C47.7814 82.4848 48.0161 81.3984 47.923 80.2902C47.8468 79.393 47.4864 78.5829 46.7191 78.4541C45.937 78.3244 45.2152 78.4413 44.6271 79.0483C43.9549 79.7416 43.5767 80.5754 43.2767 81.4806C42.7588 83.0032 42.452 84.5896 42.3649 86.1956Z" fill="#AB0520"/>
<path d="M189.503 107.472C189.291 110.184 188.816 112.82 187.153 115.085C186.281 116.274 185.085 116.905 183.643 117.011C182.963 117.061 182.267 117.118 181.582 116.912C180.288 116.53 179.548 115.61 179.44 114.347C179.149 110.928 179.842 107.724 181.983 104.962C182.627 104.129 183.581 103.666 184.626 103.458C185.301 103.31 185.997 103.285 186.68 103.383C188.081 103.605 189.119 104.354 189.381 105.937C189.451 106.446 189.492 106.958 189.503 107.472ZM187.245 107.504C187.288 107.18 187.202 106.873 187.13 106.572C186.741 104.945 185.383 104.759 184.23 105.534C183.576 105.974 183.195 106.609 182.888 107.311C182.259 108.754 181.929 110.276 181.7 111.821C181.588 112.579 181.509 113.351 181.749 114.111C181.995 114.896 182.491 115.28 183.311 115.281C184.442 115.281 185.144 114.569 185.63 113.696C186.693 111.779 187.002 109.644 187.245 107.504Z" fill="#AB0520"/>
<path d="M75.6593 86.3819C75.689 83.912 76.1999 81.5501 77.4266 79.3991C78.3414 77.7947 79.6799 76.741 81.6323 76.637C82.4462 76.5934 83.2283 76.6222 83.9897 76.943C85.152 77.4323 85.5737 78.4097 85.7203 79.5565C85.9747 81.5907 85.5421 83.5496 84.9371 85.4659C84.5411 86.7196 83.9827 87.9268 83.0184 88.8597C82.1085 89.7401 81.0294 90.3165 79.7136 90.2868C78.9958 90.271 78.28 90.3571 77.5701 90.0709C76.5009 89.6391 75.6464 88.4121 75.6583 87.1732C75.6613 86.9098 75.6593 86.6453 75.6593 86.3819ZM83.461 80.8212C83.461 80.5568 83.4798 80.2923 83.461 80.0289C83.3877 79.1446 82.8313 78.4731 82.1363 78.4097C80.9799 78.3047 79.9878 78.9237 79.4819 79.9784C79.1265 80.7222 78.7958 81.4639 78.5849 82.2651C78.2067 83.6951 77.8919 85.1371 77.9018 86.6226C77.91 87.1362 78.0702 87.6359 78.3622 88.0585C78.6671 88.523 79.474 88.6805 80.173 88.4725C81.1185 88.1912 81.6898 87.496 82.0858 86.6701C82.9709 84.8281 83.362 82.8543 83.461 80.8212Z" fill="#AB0520"/>
<path d="M194.319 104.695C194.671 104.257 195.133 103.983 195.623 103.753C196.651 103.252 197.833 103.171 198.919 103.527C200.125 103.908 200.504 105.069 200.333 106.147C199.779 109.567 198.94 112.931 198.254 116.326C198.193 116.629 198.095 116.779 197.747 116.745C197.336 116.707 196.923 116.707 196.512 116.745C196.017 116.79 195.944 116.609 196.044 116.161C196.569 113.784 197.07 111.407 197.576 109.03C197.703 108.436 197.791 107.83 197.941 107.242C198.329 105.727 197.347 104.956 195.929 105.348C194.845 105.645 194.038 106.339 193.711 107.409C193.376 108.499 193.198 109.638 192.958 110.758C192.552 112.651 192.149 114.546 191.749 116.441C191.697 116.689 191.561 116.753 191.329 116.747C190.834 116.733 190.339 116.724 189.844 116.747C189.539 116.758 189.465 116.636 189.525 116.363C189.76 115.273 189.989 114.176 190.223 113.083C190.672 110.982 191.123 108.882 191.574 106.781C191.779 105.82 191.983 104.857 192.168 103.891C192.208 103.68 192.284 103.678 192.465 103.693C192.893 103.715 193.323 103.718 193.752 103.703C194.148 103.691 194.424 103.741 194.247 104.244C194.22 104.37 194.209 104.499 194.215 104.627L194.319 104.695Z" fill="#AB0520"/>
<path d="M18.4424 104.712C18.7157 104.663 18.8088 104.415 18.987 104.293C20.3523 103.319 21.8344 103.047 23.4244 103.611C24.3155 103.927 24.8026 105.135 24.5976 106.285C24.0036 109.635 23.1888 112.939 22.5353 116.276C22.473 116.594 22.3561 116.766 21.9849 116.739C21.5096 116.706 21.0295 116.728 20.5513 116.739C20.3077 116.746 20.2018 116.739 20.2741 116.417C20.677 114.608 21.071 112.797 21.4205 110.978C21.7067 109.492 22.2126 108.053 22.2294 106.521C22.2363 105.685 21.7255 105.223 20.8879 105.234C20.3431 105.252 19.8117 105.407 19.3434 105.686C18.2741 106.288 17.9494 107.318 17.7247 108.426C17.296 110.532 16.8247 112.629 16.4059 114.736C16.301 115.267 16.1307 115.781 16.0544 116.321C16.0138 116.605 15.8683 116.724 15.5941 116.723C15.1159 116.723 14.6377 116.713 14.1595 116.723C13.8021 116.733 13.7506 116.572 13.8189 116.258C14.2571 114.254 14.6885 112.249 15.1129 110.242C15.5327 108.261 15.9594 106.29 16.3554 104.309C16.4485 103.842 16.6257 103.606 17.1276 103.679C17.3412 103.694 17.5556 103.694 17.7692 103.679C18.6226 103.679 18.6226 103.679 18.4444 104.53C18.4373 104.59 18.4367 104.651 18.4424 104.712Z" fill="#AB0520"/>
<path d="M151.202 89.9931C150.113 89.9931 150.147 90 150.383 88.9215C150.872 86.6913 151.317 84.4512 151.799 82.2189C151.969 81.4267 152.136 80.6483 152.154 79.8342C152.173 79.0202 151.758 78.527 150.934 78.5072C149.493 78.4705 148.117 79.5797 147.805 81.0444C147.207 83.8589 146.613 86.6748 146.023 89.492C145.95 89.8435 145.812 90.0446 145.4 90.002C145.005 89.9642 144.607 89.9642 144.212 90.002C143.775 90.0406 143.704 89.8267 143.777 89.4771C143.967 88.5601 144.161 87.6433 144.358 86.7269C144.849 84.4162 145.343 82.1027 145.837 79.7867C146.011 78.9667 146.189 78.1487 146.36 77.3277C146.415 77.0603 146.55 76.9395 146.837 76.9543C147.249 76.982 147.662 76.982 148.073 76.9543C148.487 76.9197 148.542 77.1187 148.492 77.4495C148.477 77.5545 148.363 77.6951 148.492 77.7674C148.622 77.8397 148.779 77.7407 148.888 77.6396C149.367 77.1793 149.969 76.8665 150.621 76.7384C151.736 76.5315 152.881 76.4245 153.851 77.2267C154.3 77.599 154.511 78.0952 154.533 78.6983C154.588 80.2561 154.099 81.7238 153.819 83.2231C153.451 85.1919 152.967 87.1379 152.555 89.0988C152.369 89.9881 152.397 89.9931 151.202 89.9931Z" fill="#AB0520"/>
<path d="M28.683 77.8763C28.9334 77.702 29.1889 77.5307 29.4374 77.3515C30.4938 76.5919 31.6789 76.4602 32.9115 76.6959C34.3847 76.9791 34.9163 78.0823 34.6857 79.5678C34.2362 82.4596 33.5095 85.2989 32.9125 88.1629C32.8194 88.6136 32.7145 89.0622 32.6313 89.5138C32.5669 89.8515 32.4115 90.0268 32.0373 90C31.6253 89.9792 31.2126 89.9792 30.8007 90C30.4779 90.0089 30.3126 89.9545 30.4047 89.5524C30.7393 88.0778 31.0413 86.5952 31.3512 85.1147C31.6868 83.5084 32.0254 81.902 32.3472 80.2918C32.5739 79.14 31.9798 78.4329 30.8076 78.5399C29.3374 78.6736 28.2671 79.5886 27.9295 81.1662C27.3355 83.926 26.7586 86.689 26.1989 89.4553C26.1197 89.8406 25.9662 90.0317 25.5425 89.999C25.0999 89.9654 24.6514 89.9901 24.2069 89.9921C23.9564 89.9921 23.8545 89.9119 23.9158 89.6306C24.3891 87.445 24.8683 85.2593 25.3019 83.0667C25.4623 82.2625 25.6217 81.4534 25.7861 80.6532C26.0128 79.547 26.2702 78.4418 26.5256 77.3396C26.588 77.0662 26.7395 76.9523 27.0117 76.9573C27.4078 76.9632 27.8038 76.9662 28.1998 76.9573C28.5958 76.9484 28.7661 77.0742 28.6186 77.4881C28.587 77.5513 28.5762 77.6229 28.5877 77.6927C28.5993 77.7624 28.6326 77.8267 28.683 77.8763Z" fill="#AB0520"/>
<path d="M158.494 117.037C157.735 117.045 157.003 117 156.283 116.666C155.054 116.096 154.733 114.811 154.78 113.788C154.798 113.381 154.925 112.977 154.931 112.571C154.931 112.318 155.03 112.307 155.217 112.307C155.778 112.307 156.338 112.307 156.9 112.288C157.122 112.282 157.187 112.345 157.149 112.577C157.093 112.931 157.023 113.301 157.065 113.65C157.218 114.938 157.838 115.406 159.153 115.277C160.506 115.144 161.45 114.036 161.392 112.677C161.356 111.803 160.705 111.495 160.058 111.208C159.443 110.936 158.8 110.73 158.171 110.492C156.342 109.799 155.985 108.619 156.403 106.864C156.884 104.847 158.482 103.578 160.572 103.384C161.508 103.297 162.398 103.336 163.283 103.663C164.068 103.953 164.471 104.546 164.597 105.316C164.709 106.009 164.635 106.727 164.538 107.431C164.512 107.615 164.399 107.629 164.257 107.629C163.697 107.629 163.136 107.629 162.574 107.629C162.337 107.629 162.226 107.53 162.324 107.292C162.434 107.02 162.393 106.737 162.393 106.46C162.393 105.581 161.889 105.027 161.016 105.094C159.668 105.199 159.023 105.636 158.616 106.908C158.408 107.557 158.675 108.08 159.328 108.474C160.083 108.932 160.943 109.13 161.761 109.421C163.355 109.989 164.011 111.092 163.7 112.746C163.517 113.725 163.173 114.628 162.543 115.386C161.678 116.426 160.516 116.917 159.188 117.04C158.959 117.059 158.726 117.037 158.494 117.037Z" fill="#AB0520"/>
<path d="M60.5039 117.024C59.8108 117.053 59.1554 117.024 58.5238 116.796C57.9975 116.618 57.5414 116.278 57.2211 115.824C56.9008 115.369 56.7329 114.825 56.7417 114.27C56.7321 113.775 56.7702 113.281 56.8555 112.794C56.9189 112.459 57.0535 112.267 57.4426 112.299C57.8538 112.334 58.2671 112.334 58.6782 112.299C59.0525 112.27 59.1485 112.429 59.0901 112.758C59.0673 112.887 59.0406 113.016 59.0247 113.147C58.8168 114.788 59.8643 115.482 61.3019 115.238C62.3523 115.06 63.2513 114.05 63.381 112.996C63.4582 112.354 63.1077 111.74 62.4959 111.424C61.7622 111.044 60.9732 110.807 60.2079 110.508C59.2752 110.141 58.3921 109.687 58.2644 108.565C58.0664 106.789 58.6356 105.165 60.2673 104.144C61.7147 103.239 63.3196 103.064 64.9641 103.549C66.0353 103.866 66.5947 104.669 66.6175 105.794C66.6232 106.254 66.5968 106.715 66.5383 107.172C66.5016 107.479 66.366 107.618 66.068 107.618C65.5898 107.618 65.1116 107.606 64.6334 107.618C64.2958 107.627 64.2285 107.446 64.3027 107.179C64.3525 106.954 64.3784 106.725 64.38 106.495C64.4384 105.549 63.8849 105 62.6622 105.115C61.4395 105.23 60.8227 105.93 60.5197 107.035C60.3544 107.644 60.7663 108.302 61.5593 108.62C62.186 108.87 62.8167 109.115 63.4572 109.321C65.6532 110.037 66.0779 111.38 65.4948 113.442C64.9869 115.234 63.7909 116.356 62.0484 116.908C61.5434 117.069 61.0029 117.059 60.5039 117.024Z" fill="#AB0520"/>
<path d="M168.099 117.028C167.505 117.049 166.833 117.028 166.192 116.774C165.139 116.364 164.561 115.585 164.468 114.462C164.429 113.886 164.468 113.308 164.585 112.742C164.639 112.453 164.763 112.278 165.111 112.304C165.54 112.337 165.97 112.337 166.399 112.304C166.78 112.275 166.855 112.446 166.81 112.768C166.755 113.173 166.663 113.571 166.762 113.991C166.934 114.711 167.408 115.179 168.134 115.278C168.477 115.325 168.826 115.304 169.161 115.215C169.496 115.127 169.81 114.973 170.085 114.762C170.36 114.552 170.59 114.289 170.764 113.989C170.937 113.689 171.049 113.358 171.093 113.015C171.177 112.354 170.814 111.736 170.174 111.414C169.437 111.043 168.647 110.811 167.885 110.506C166.994 110.149 166.132 109.714 165.989 108.632C165.791 107.135 166.146 105.754 167.276 104.712C168.79 103.311 170.627 103.046 172.571 103.523C173.748 103.81 174.316 104.66 174.334 105.887C174.334 106.331 174.306 106.775 174.249 107.215C174.217 107.499 174.073 107.628 173.8 107.628C173.305 107.628 172.81 107.62 172.315 107.628C171.997 107.634 171.949 107.447 172.012 107.209C172.065 106.969 172.092 106.723 172.091 106.476C172.139 105.502 171.486 104.991 170.396 105.124C169.368 105.25 168.713 105.726 168.337 106.746C167.992 107.684 168.469 108.274 169.253 108.617C169.914 108.908 170.607 109.125 171.288 109.367C173.525 110.159 173.674 111.459 173.289 113.182C173.073 114.145 172.641 115.055 171.92 115.708C171 116.544 169.887 117.077 168.583 117.033C168.45 117.025 168.317 117.028 168.099 117.028Z" fill="#AB0520"/>
<path d="M33.9902 113.327C34.2754 112.707 34.5684 112.091 34.8447 111.467C35.7245 109.486 36.6013 107.501 37.4752 105.512C37.6881 105.031 37.9208 104.557 38.1128 104.068C38.2178 103.801 38.3554 103.672 38.6564 103.689C39.1831 103.712 39.7118 103.706 40.2405 103.695C40.6286 103.687 40.7028 103.828 40.5325 104.17C39.888 105.465 39.2455 106.762 38.6197 108.066C37.5307 110.334 36.4555 112.609 35.3684 114.878C35.105 115.427 34.8159 115.967 34.5476 116.512C34.5164 116.588 34.4615 116.651 34.391 116.694C34.3205 116.736 34.2382 116.754 34.1566 116.745C33.5625 116.737 32.9685 116.737 32.3745 116.745C32.123 116.745 31.9854 116.695 31.9784 116.393C31.9477 115.311 31.7903 114.24 31.7735 113.153C31.7547 111.825 31.6121 110.498 31.52 109.171C31.4785 108.565 31.4755 107.957 31.426 107.349C31.3349 106.237 31.3418 105.116 31.222 104.003C31.2042 103.834 31.2557 103.706 31.4547 103.706C32.1309 103.694 32.8061 103.687 33.4813 103.672C33.62 103.672 33.6506 103.747 33.6536 103.855C33.6536 103.987 33.6536 104.119 33.6536 104.251C33.6051 106.856 33.814 109.456 33.7605 112.061C33.7526 112.476 33.8546 112.894 33.9061 113.31L33.9902 113.327Z" fill="#AB0520"/>
<path d="M86.9985 89.9948H86.553C85.9302 89.9948 85.7926 89.8413 85.9748 89.2372C86.5025 87.4883 86.7668 85.6819 87.1737 83.9052C87.5975 82.0345 87.9747 80.1539 88.3767 78.2782C88.7479 76.5431 89.1331 74.812 89.4915 73.074C89.5518 72.7848 89.6736 72.6887 89.9499 72.6957C90.4281 72.7066 90.9062 72.7036 91.3844 72.6957C91.7023 72.6887 91.7676 72.7947 91.6973 73.1166C91.2627 75.1061 90.8548 77.1017 90.432 79.0942C90.036 80.9887 89.5964 82.8763 89.2271 84.7777C88.9301 86.3236 88.5261 87.8478 88.243 89.3957C88.1529 89.8829 87.946 90.0473 87.4925 89.9988C87.328 89.989 87.1631 89.9877 86.9985 89.9948Z" fill="#AB0520"/>
<path d="M95.4585 72.6898C96.5337 72.7026 96.5476 72.7056 96.3238 73.795C95.6638 76.997 94.9939 80.1968 94.314 83.3943C93.8853 85.4205 93.4022 87.4358 93.027 89.472C92.928 90.0008 92.724 90.0226 92.323 89.9968C91.9221 89.9711 91.531 89.9879 91.135 89.9899C90.8201 89.9899 90.6944 89.8909 90.7726 89.5373C91.1468 87.8537 91.4953 86.1623 91.8557 84.4737C92.3874 81.984 92.925 79.4953 93.4527 77.0036C93.7042 75.8152 93.9398 74.6268 94.1804 73.4325C94.3289 72.6947 94.3477 72.6769 95.112 72.6898C95.2278 72.6898 95.3417 72.6898 95.4585 72.6898Z" fill="#AB0520"/>
<path d="M54.5588 104.949C54.9776 104.732 55.1528 104.315 55.5013 104.064C56.3122 103.476 57.1627 103.163 58.1745 103.391C58.4289 103.449 58.5062 103.563 58.4517 103.805C58.3355 104.318 58.223 104.832 58.1141 105.347C58.0685 105.56 57.9666 105.662 57.7329 105.609C56.0449 105.231 54.3133 106.45 53.847 108.114C53.444 109.553 53.1846 111.031 52.8688 112.494C52.5955 113.763 52.3275 115.032 52.0648 116.304C51.9946 116.649 51.8441 116.792 51.4659 116.747C51.055 116.707 50.6412 116.707 50.2303 116.747C49.8481 116.776 49.7659 116.612 49.8343 116.284C50.1075 114.999 50.3804 113.714 50.653 112.429C51.1309 110.162 51.6078 107.894 52.0837 105.626C52.182 105.164 52.2754 104.697 52.3638 104.226C52.4322 103.859 52.5826 103.641 53.0193 103.689C53.4308 103.723 53.8444 103.722 54.2558 103.688C54.6588 103.666 54.7459 103.84 54.636 104.19C54.5548 104.434 54.5285 104.693 54.5588 104.949Z" fill="#AB0520"/>
<path d="M54.9382 78.4192C55.452 77.7636 55.9777 77.2308 56.6727 76.8931C57.2846 76.596 57.9261 76.5485 58.5905 76.6386C58.8924 76.6792 58.9093 76.8941 58.8875 77.115C58.8301 77.62 58.6558 78.1053 58.633 78.6203C58.6212 78.8688 58.3974 78.9481 58.1905 78.8896C56.1975 78.3281 54.3897 80.3444 54.1214 81.9409C53.7709 84.0285 53.2254 86.0795 52.8343 88.1631C52.7353 88.6722 52.6264 89.1911 52.4788 89.6962C52.4155 89.9101 52.3303 89.9933 52.1106 89.9933C51.6155 89.9863 51.1205 89.9933 50.6255 90.0012C50.3284 90.0012 50.2166 89.92 50.2888 89.5942C50.6166 88.1017 50.9245 86.6043 51.2373 85.1089C51.6027 83.356 51.963 81.6031 52.3313 79.8512C52.5066 79.0154 52.6947 78.1835 52.8709 77.3477C52.9273 77.0823 53.0689 76.9515 53.3471 76.9515C53.8095 76.9585 54.2709 76.9605 54.7332 76.9515C55.0807 76.9466 55.1589 77.1338 55.1065 77.4289C55.054 77.724 54.9134 78.0211 54.9382 78.4192Z" fill="#AB0520"/>
<path d="M36.0312 90.0009C34.9422 89.991 34.962 89.995 35.1897 88.9244C35.5006 87.4656 35.757 85.993 36.0867 84.5412C36.4629 82.8784 36.7985 81.2067 37.1906 79.5479C37.3678 78.7982 37.5203 78.0436 37.6787 77.291C37.7311 77.0394 37.8668 76.9414 38.1282 76.9542C38.5054 76.9731 38.8856 76.9542 39.2647 76.9542C39.9756 76.9542 39.9716 76.9542 39.8132 77.6821C39.6608 78.3882 39.5162 79.0963 39.3677 79.8034C38.6767 83.0577 37.9859 86.3119 37.2955 89.5661C37.2332 89.8583 37.1124 90.0375 36.7728 90.0019C36.5258 89.9892 36.2783 89.9888 36.0312 90.0009Z" fill="#AB0520"/>
<path d="M26.0227 116.736C24.8346 116.736 24.8485 116.736 25.093 115.609C25.7108 112.768 26.3464 109.93 26.9177 107.08C27.1157 106.082 27.4365 105.107 27.5286 104.087C27.5563 103.778 27.7266 103.676 28.0315 103.691C28.4759 103.718 28.9216 103.718 29.3661 103.691C29.7918 103.657 29.8364 103.859 29.7621 104.192C29.5344 105.249 29.3083 106.308 29.0839 107.37C28.4543 110.341 27.8206 113.318 27.2028 116.295C27.1345 116.622 27.0335 116.803 26.6623 116.744C26.4496 116.724 26.2357 116.722 26.0227 116.736Z" fill="#AB0520"/>
<path d="M175.389 116.732C174.289 116.732 174.267 116.732 174.475 115.671C174.761 114.22 175.083 112.777 175.391 111.331C175.9 108.942 176.42 106.555 176.907 104.163C176.979 103.809 177.116 103.683 177.453 103.692C177.898 103.704 178.344 103.705 178.788 103.692C179.136 103.68 179.212 103.821 179.142 104.146C178.703 106.201 178.277 108.259 177.843 110.315C177.429 112.289 177.003 114.261 176.597 116.238C176.523 116.601 176.382 116.796 175.981 116.739C175.784 116.722 175.586 116.72 175.389 116.732Z" fill="#AB0520"/>
<path d="M67.691 116.733C66.5653 116.733 66.5465 116.733 66.7604 115.644C67.0495 114.178 67.3702 112.719 67.6811 111.257C68.187 108.88 68.7058 106.513 69.1939 104.136C69.2623 103.801 69.4028 103.691 69.7137 103.696C70.1751 103.703 70.6365 103.705 71.0998 103.696C71.4255 103.687 71.4958 103.831 71.4325 104.127C70.8998 106.597 70.3718 109.069 69.8484 111.542C69.5177 113.098 69.1731 114.653 68.8781 116.216C68.794 116.663 68.5979 116.79 68.191 116.74C68.0246 116.728 67.8577 116.726 67.691 116.733Z" fill="#AB0520"/>
<path d="M151.282 116.733C151.1 116.733 150.919 116.733 150.738 116.733C150.184 116.727 150.127 116.641 150.243 116.079C150.799 113.476 151.345 110.872 151.9 108.271C152.188 106.921 152.494 105.574 152.774 104.222C152.853 103.835 153.024 103.654 153.439 103.688C153.817 103.716 154.197 103.716 154.576 103.688C154.979 103.66 155.107 103.805 155.019 104.201C154.729 105.515 154.451 106.833 154.171 108.149C153.704 110.334 153.238 112.518 152.774 114.702C152.675 115.152 152.546 115.593 152.497 116.051C152.438 116.614 152.168 116.825 151.624 116.733C151.51 116.724 151.396 116.724 151.282 116.733Z" fill="#AB0520"/>
<path d="M154.449 101.876H154.302C153.224 101.876 153.223 101.876 153.476 100.811C153.538 100.556 153.643 100.305 153.658 100.047C153.689 99.5233 153.965 99.3896 154.438 99.4282C154.767 99.4454 155.096 99.4378 155.423 99.4054C155.961 99.3688 156.056 99.4639 155.929 99.9759C155.788 100.547 155.61 101.111 155.558 101.698C155.539 101.916 155.413 101.878 155.289 101.88C155.009 101.88 154.73 101.88 154.449 101.88V101.876Z" fill="#AB0520"/>
<path d="M70.8804 101.879C69.5201 101.867 69.627 102.031 69.93 100.667C70.2042 99.4347 70.2101 99.4357 71.4863 99.4377C72.4467 99.4377 72.4477 99.4377 72.2348 100.381C72.1952 100.557 72.1506 100.731 72.11 100.906C71.8843 101.879 71.8853 101.879 70.8804 101.879Z" fill="#AB0520"/>
<path d="M39.7003 72.7H39.8478C41.124 72.7108 40.8379 72.6009 40.6666 73.717C40.5973 74.1676 40.5676 74.7074 40.2924 75.0173C39.9954 75.3531 39.4231 75.0867 38.9746 75.1421C38.8934 75.153 38.8122 75.1619 38.7301 75.1689C38.2202 75.2105 38.142 75.1342 38.235 74.6489C38.34 74.1043 38.4885 73.5655 38.5598 73.0159C38.5984 72.7257 38.7043 72.6693 38.9558 72.692C39.2073 72.7148 39.4508 72.692 39.6954 72.692L39.7003 72.7Z" fill="#AB0520"/>
<path d="M178.595 101.877H178.1C177.407 101.877 177.371 101.829 177.528 101.139C177.627 100.692 177.737 100.247 177.841 99.8036C177.894 99.5758 177.987 99.4193 178.267 99.4302C178.743 99.448 179.221 99.4461 179.696 99.4302C180.007 99.4223 180.122 99.56 180.062 99.8501C179.941 100.444 179.809 101.039 179.69 101.633C179.647 101.843 179.516 101.886 179.331 101.882C179.086 101.882 178.836 101.882 178.593 101.882L178.595 101.877Z" fill="#AB0520"/>
<path d="M29.1856 101.879C28.0104 101.879 27.9758 101.871 28.2579 100.738C28.6332 99.2293 28.2203 99.4501 29.8291 99.4392C30.744 99.4313 30.744 99.4392 30.5747 100.331C30.541 100.509 30.5034 100.685 30.4648 100.862C30.245 101.879 30.245 101.879 29.1856 101.879Z" fill="#AB0520"/>
</g>
<defs>
<clipPath id="clip0_5237:444">
<rect width="208" height="121" fill="white"/>
</clipPath>
</defs>
</svg>
